<?xml version="1.0" encoding="utf-8" standalone="no"?>
<!DOCTYPE svg PUBLIC "-//W3C//DTD SVG 1.1//EN"
  "http://www.w3.org/Graphics/SVG/1.1/DTD/svg11.dtd">
<svg height="345.6pt" version="1.1" viewBox="0 0 460.8 345.6" width="460.8pt" xmlns="http://www.w3.org/2000/svg" xmlns:xlink="http://www.w3.org/1999/xlink">
 <metadata>
  <rdf:RDF xmlns:cc="http://creativecommons.org/ns#" xmlns:dc="http://purl.org/dc/elements/1.1/" xmlns:rdf="http://www.w3.org/1999/02/22-rdf-syntax-ns#">
   <cc:Work>
    <dc:type rdf:resource="http://purl.org/dc/dcmitype/StillImage"/>
    <dc:date>2022-03-08T13:43:12.024266</dc:date>
    <dc:format>image/svg+xml</dc:format>
    <dc:creator>
     <cc:Agent>
      <dc:title>Matplotlib v3.4.3, https://matplotlib.org/</dc:title>
     </cc:Agent>
    </dc:creator>
   </cc:Work>
  </rdf:RDF>
 </metadata>
 <defs>
  <style type="text/css">*{stroke-linecap:butt;stroke-linejoin:round;}</style>
 </defs>
 <g id="figure_1">
  <g id="patch_1">
   <path d="M 0 345.6 
L 460.8 345.6 
L 460.8 0 
L 0 0 
z
" style="fill:#ffffff;"/>
  </g>
  <g id="axes_1">
   <g id="patch_2">
    <path d="M 57.8 300.04 
L 450 300.04 
L 450 14.76 
L 57.8 14.76 
z
" style="fill:#ffffff;"/>
   </g>
   <g id="matplotlib.axis_1">
    <g id="xtick_1">
     <g id="line2d_1">
      <path clip-path="url(#p91a3d756db)" d="M 57.8 300.04 
L 57.8 14.76 
" style="fill:none;stroke:#000000;stroke-dasharray:2.96,1.28;stroke-dashoffset:0;stroke-opacity:0.5;stroke-width:0.8;"/>
     </g>
     <g id="line2d_2">
      <defs>
       <path d="M 0 0 
L 0 3.5 
" id="m2c7f93334a" style="stroke:#000000;stroke-width:0.8;"/>
      </defs>
      <g>
       <use style="stroke:#000000;stroke-width:0.8;" x="57.8" xlink:href="#m2c7f93334a" y="300.04"/>
      </g>
     </g>
     <g id="text_1">
      <!-- 0 -->
      <g transform="translate(54.61875 314.638437)scale(0.1 -0.1)">
       <defs>
        <path d="M 2034 4250 
Q 1547 4250 1301 3770 
Q 1056 3291 1056 2328 
Q 1056 1369 1301 889 
Q 1547 409 2034 409 
Q 2525 409 2770 889 
Q 3016 1369 3016 2328 
Q 3016 3291 2770 3770 
Q 2525 4250 2034 4250 
z
M 2034 4750 
Q 2819 4750 3233 4129 
Q 3647 3509 3647 2328 
Q 3647 1150 3233 529 
Q 2819 -91 2034 -91 
Q 1250 -91 836 529 
Q 422 1150 422 2328 
Q 422 3509 836 4129 
Q 1250 4750 2034 4750 
z
" id="DejaVuSans-30" transform="scale(0.015625)"/>
       </defs>
       <use xlink:href="#DejaVuSans-30"/>
      </g>
     </g>
    </g>
    <g id="xtick_2">
     <g id="line2d_3">
      <path clip-path="url(#p91a3d756db)" d="M 110.093333 300.04 
L 110.093333 14.76 
" style="fill:none;stroke:#000000;stroke-dasharray:2.96,1.28;stroke-dashoffset:0;stroke-opacity:0.5;stroke-width:0.8;"/>
     </g>
     <g id="line2d_4">
      <g>
       <use style="stroke:#000000;stroke-width:0.8;" x="110.093333" xlink:href="#m2c7f93334a" y="300.04"/>
      </g>
     </g>
     <g id="text_2">
      <!-- 20 -->
      <g transform="translate(103.730833 314.638437)scale(0.1 -0.1)">
       <defs>
        <path d="M 1228 531 
L 3431 531 
L 3431 0 
L 469 0 
L 469 531 
Q 828 903 1448 1529 
Q 2069 2156 2228 2338 
Q 2531 2678 2651 2914 
Q 2772 3150 2772 3378 
Q 2772 3750 2511 3984 
Q 2250 4219 1831 4219 
Q 1534 4219 1204 4116 
Q 875 4013 500 3803 
L 500 4441 
Q 881 4594 1212 4672 
Q 1544 4750 1819 4750 
Q 2544 4750 2975 4387 
Q 3406 4025 3406 3419 
Q 3406 3131 3298 2873 
Q 3191 2616 2906 2266 
Q 2828 2175 2409 1742 
Q 1991 1309 1228 531 
z
" id="DejaVuSans-32" transform="scale(0.015625)"/>
       </defs>
       <use xlink:href="#DejaVuSans-32"/>
       <use x="63.623047" xlink:href="#DejaVuSans-30"/>
      </g>
     </g>
    </g>
    <g id="xtick_3">
     <g id="line2d_5">
      <path clip-path="url(#p91a3d756db)" d="M 162.386667 300.04 
L 162.386667 14.76 
" style="fill:none;stroke:#000000;stroke-dasharray:2.96,1.28;stroke-dashoffset:0;stroke-opacity:0.5;stroke-width:0.8;"/>
     </g>
     <g id="line2d_6">
      <g>
       <use style="stroke:#000000;stroke-width:0.8;" x="162.386667" xlink:href="#m2c7f93334a" y="300.04"/>
      </g>
     </g>
     <g id="text_3">
      <!-- 40 -->
      <g transform="translate(156.024167 314.638437)scale(0.1 -0.1)">
       <defs>
        <path d="M 2419 4116 
L 825 1625 
L 2419 1625 
L 2419 4116 
z
M 2253 4666 
L 3047 4666 
L 3047 1625 
L 3713 1625 
L 3713 1100 
L 3047 1100 
L 3047 0 
L 2419 0 
L 2419 1100 
L 313 1100 
L 313 1709 
L 2253 4666 
z
" id="DejaVuSans-34" transform="scale(0.015625)"/>
       </defs>
       <use xlink:href="#DejaVuSans-34"/>
       <use x="63.623047" xlink:href="#DejaVuSans-30"/>
      </g>
     </g>
    </g>
    <g id="xtick_4">
     <g id="line2d_7">
      <path clip-path="url(#p91a3d756db)" d="M 214.68 300.04 
L 214.68 14.76 
" style="fill:none;stroke:#000000;stroke-dasharray:2.96,1.28;stroke-dashoffset:0;stroke-opacity:0.5;stroke-width:0.8;"/>
     </g>
     <g id="line2d_8">
      <g>
       <use style="stroke:#000000;stroke-width:0.8;" x="214.68" xlink:href="#m2c7f93334a" y="300.04"/>
      </g>
     </g>
     <g id="text_4">
      <!-- 60 -->
      <g transform="translate(208.3175 314.638437)scale(0.1 -0.1)">
       <defs>
        <path d="M 2113 2584 
Q 1688 2584 1439 2293 
Q 1191 2003 1191 1497 
Q 1191 994 1439 701 
Q 1688 409 2113 409 
Q 2538 409 2786 701 
Q 3034 994 3034 1497 
Q 3034 2003 2786 2293 
Q 2538 2584 2113 2584 
z
M 3366 4563 
L 3366 3988 
Q 3128 4100 2886 4159 
Q 2644 4219 2406 4219 
Q 1781 4219 1451 3797 
Q 1122 3375 1075 2522 
Q 1259 2794 1537 2939 
Q 1816 3084 2150 3084 
Q 2853 3084 3261 2657 
Q 3669 2231 3669 1497 
Q 3669 778 3244 343 
Q 2819 -91 2113 -91 
Q 1303 -91 875 529 
Q 447 1150 447 2328 
Q 447 3434 972 4092 
Q 1497 4750 2381 4750 
Q 2619 4750 2861 4703 
Q 3103 4656 3366 4563 
z
" id="DejaVuSans-36" transform="scale(0.015625)"/>
       </defs>
       <use xlink:href="#DejaVuSans-36"/>
       <use x="63.623047" xlink:href="#DejaVuSans-30"/>
      </g>
     </g>
    </g>
    <g id="xtick_5">
     <g id="line2d_9">
      <path clip-path="url(#p91a3d756db)" d="M 266.973333 300.04 
L 266.973333 14.76 
" style="fill:none;stroke:#000000;stroke-dasharray:2.96,1.28;stroke-dashoffset:0;stroke-opacity:0.5;stroke-width:0.8;"/>
     </g>
     <g id="line2d_10">
      <g>
       <use style="stroke:#000000;stroke-width:0.8;" x="266.973333" xlink:href="#m2c7f93334a" y="300.04"/>
      </g>
     </g>
     <g id="text_5">
      <!-- 80 -->
      <g transform="translate(260.610833 314.638437)scale(0.1 -0.1)">
       <defs>
        <path d="M 2034 2216 
Q 1584 2216 1326 1975 
Q 1069 1734 1069 1313 
Q 1069 891 1326 650 
Q 1584 409 2034 409 
Q 2484 409 2743 651 
Q 3003 894 3003 1313 
Q 3003 1734 2745 1975 
Q 2488 2216 2034 2216 
z
M 1403 2484 
Q 997 2584 770 2862 
Q 544 3141 544 3541 
Q 544 4100 942 4425 
Q 1341 4750 2034 4750 
Q 2731 4750 3128 4425 
Q 3525 4100 3525 3541 
Q 3525 3141 3298 2862 
Q 3072 2584 2669 2484 
Q 3125 2378 3379 2068 
Q 3634 1759 3634 1313 
Q 3634 634 3220 271 
Q 2806 -91 2034 -91 
Q 1263 -91 848 271 
Q 434 634 434 1313 
Q 434 1759 690 2068 
Q 947 2378 1403 2484 
z
M 1172 3481 
Q 1172 3119 1398 2916 
Q 1625 2713 2034 2713 
Q 2441 2713 2670 2916 
Q 2900 3119 2900 3481 
Q 2900 3844 2670 4047 
Q 2441 4250 2034 4250 
Q 1625 4250 1398 4047 
Q 1172 3844 1172 3481 
z
" id="DejaVuSans-38" transform="scale(0.015625)"/>
       </defs>
       <use xlink:href="#DejaVuSans-38"/>
       <use x="63.623047" xlink:href="#DejaVuSans-30"/>
      </g>
     </g>
    </g>
    <g id="xtick_6">
     <g id="line2d_11">
      <path clip-path="url(#p91a3d756db)" d="M 319.266667 300.04 
L 319.266667 14.76 
" style="fill:none;stroke:#000000;stroke-dasharray:2.96,1.28;stroke-dashoffset:0;stroke-opacity:0.5;stroke-width:0.8;"/>
     </g>
     <g id="line2d_12">
      <g>
       <use style="stroke:#000000;stroke-width:0.8;" x="319.266667" xlink:href="#m2c7f93334a" y="300.04"/>
      </g>
     </g>
     <g id="text_6">
      <!-- 100 -->
      <g transform="translate(309.722917 314.638437)scale(0.1 -0.1)">
       <defs>
        <path d="M 794 531 
L 1825 531 
L 1825 4091 
L 703 3866 
L 703 4441 
L 1819 4666 
L 2450 4666 
L 2450 531 
L 3481 531 
L 3481 0 
L 794 0 
L 794 531 
z
" id="DejaVuSans-31" transform="scale(0.015625)"/>
       </defs>
       <use xlink:href="#DejaVuSans-31"/>
       <use x="63.623047" xlink:href="#DejaVuSans-30"/>
       <use x="127.246094" xlink:href="#DejaVuSans-30"/>
      </g>
     </g>
    </g>
    <g id="xtick_7">
     <g id="line2d_13">
      <path clip-path="url(#p91a3d756db)" d="M 371.56 300.04 
L 371.56 14.76 
" style="fill:none;stroke:#000000;stroke-dasharray:2.96,1.28;stroke-dashoffset:0;stroke-opacity:0.5;stroke-width:0.8;"/>
     </g>
     <g id="line2d_14">
      <g>
       <use style="stroke:#000000;stroke-width:0.8;" x="371.56" xlink:href="#m2c7f93334a" y="300.04"/>
      </g>
     </g>
     <g id="text_7">
      <!-- 120 -->
      <g transform="translate(362.01625 314.638437)scale(0.1 -0.1)">
       <use xlink:href="#DejaVuSans-31"/>
       <use x="63.623047" xlink:href="#DejaVuSans-32"/>
       <use x="127.246094" xlink:href="#DejaVuSans-30"/>
      </g>
     </g>
    </g>
    <g id="xtick_8">
     <g id="line2d_15">
      <path clip-path="url(#p91a3d756db)" d="M 423.853333 300.04 
L 423.853333 14.76 
" style="fill:none;stroke:#000000;stroke-dasharray:2.96,1.28;stroke-dashoffset:0;stroke-opacity:0.5;stroke-width:0.8;"/>
     </g>
     <g id="line2d_16">
      <g>
       <use style="stroke:#000000;stroke-width:0.8;" x="423.853333" xlink:href="#m2c7f93334a" y="300.04"/>
      </g>
     </g>
     <g id="text_8">
      <!-- 140 -->
      <g transform="translate(414.309583 314.638437)scale(0.1 -0.1)">
       <use xlink:href="#DejaVuSans-31"/>
       <use x="63.623047" xlink:href="#DejaVuSans-34"/>
       <use x="127.246094" xlink:href="#DejaVuSans-30"/>
      </g>
     </g>
    </g>
    <g id="text_9">
     <!-- radial location -->
     <g transform="translate(204.110312 331.355937)scale(0.14 -0.14)">
      <defs>
       <path d="M 2631 2963 
Q 2534 3019 2420 3045 
Q 2306 3072 2169 3072 
Q 1681 3072 1420 2755 
Q 1159 2438 1159 1844 
L 1159 0 
L 581 0 
L 581 3500 
L 1159 3500 
L 1159 2956 
Q 1341 3275 1631 3429 
Q 1922 3584 2338 3584 
Q 2397 3584 2469 3576 
Q 2541 3569 2628 3553 
L 2631 2963 
z
" id="DejaVuSans-72" transform="scale(0.015625)"/>
       <path d="M 2194 1759 
Q 1497 1759 1228 1600 
Q 959 1441 959 1056 
Q 959 750 1161 570 
Q 1363 391 1709 391 
Q 2188 391 2477 730 
Q 2766 1069 2766 1631 
L 2766 1759 
L 2194 1759 
z
M 3341 1997 
L 3341 0 
L 2766 0 
L 2766 531 
Q 2569 213 2275 61 
Q 1981 -91 1556 -91 
Q 1019 -91 701 211 
Q 384 513 384 1019 
Q 384 1609 779 1909 
Q 1175 2209 1959 2209 
L 2766 2209 
L 2766 2266 
Q 2766 2663 2505 2880 
Q 2244 3097 1772 3097 
Q 1472 3097 1187 3025 
Q 903 2953 641 2809 
L 641 3341 
Q 956 3463 1253 3523 
Q 1550 3584 1831 3584 
Q 2591 3584 2966 3190 
Q 3341 2797 3341 1997 
z
" id="DejaVuSans-61" transform="scale(0.015625)"/>
       <path d="M 2906 2969 
L 2906 4863 
L 3481 4863 
L 3481 0 
L 2906 0 
L 2906 525 
Q 2725 213 2448 61 
Q 2172 -91 1784 -91 
Q 1150 -91 751 415 
Q 353 922 353 1747 
Q 353 2572 751 3078 
Q 1150 3584 1784 3584 
Q 2172 3584 2448 3432 
Q 2725 3281 2906 2969 
z
M 947 1747 
Q 947 1113 1208 752 
Q 1469 391 1925 391 
Q 2381 391 2643 752 
Q 2906 1113 2906 1747 
Q 2906 2381 2643 2742 
Q 2381 3103 1925 3103 
Q 1469 3103 1208 2742 
Q 947 2381 947 1747 
z
" id="DejaVuSans-64" transform="scale(0.015625)"/>
       <path d="M 603 3500 
L 1178 3500 
L 1178 0 
L 603 0 
L 603 3500 
z
M 603 4863 
L 1178 4863 
L 1178 4134 
L 603 4134 
L 603 4863 
z
" id="DejaVuSans-69" transform="scale(0.015625)"/>
       <path d="M 603 4863 
L 1178 4863 
L 1178 0 
L 603 0 
L 603 4863 
z
" id="DejaVuSans-6c" transform="scale(0.015625)"/>
       <path id="DejaVuSans-20" transform="scale(0.015625)"/>
       <path d="M 1959 3097 
Q 1497 3097 1228 2736 
Q 959 2375 959 1747 
Q 959 1119 1226 758 
Q 1494 397 1959 397 
Q 2419 397 2687 759 
Q 2956 1122 2956 1747 
Q 2956 2369 2687 2733 
Q 2419 3097 1959 3097 
z
M 1959 3584 
Q 2709 3584 3137 3096 
Q 3566 2609 3566 1747 
Q 3566 888 3137 398 
Q 2709 -91 1959 -91 
Q 1206 -91 779 398 
Q 353 888 353 1747 
Q 353 2609 779 3096 
Q 1206 3584 1959 3584 
z
" id="DejaVuSans-6f" transform="scale(0.015625)"/>
       <path d="M 3122 3366 
L 3122 2828 
Q 2878 2963 2633 3030 
Q 2388 3097 2138 3097 
Q 1578 3097 1268 2742 
Q 959 2388 959 1747 
Q 959 1106 1268 751 
Q 1578 397 2138 397 
Q 2388 397 2633 464 
Q 2878 531 3122 666 
L 3122 134 
Q 2881 22 2623 -34 
Q 2366 -91 2075 -91 
Q 1284 -91 818 406 
Q 353 903 353 1747 
Q 353 2603 823 3093 
Q 1294 3584 2113 3584 
Q 2378 3584 2631 3529 
Q 2884 3475 3122 3366 
z
" id="DejaVuSans-63" transform="scale(0.015625)"/>
       <path d="M 1172 4494 
L 1172 3500 
L 2356 3500 
L 2356 3053 
L 1172 3053 
L 1172 1153 
Q 1172 725 1289 603 
Q 1406 481 1766 481 
L 2356 481 
L 2356 0 
L 1766 0 
Q 1100 0 847 248 
Q 594 497 594 1153 
L 594 3053 
L 172 3053 
L 172 3500 
L 594 3500 
L 594 4494 
L 1172 4494 
z
" id="DejaVuSans-74" transform="scale(0.015625)"/>
       <path d="M 3513 2113 
L 3513 0 
L 2938 0 
L 2938 2094 
Q 2938 2591 2744 2837 
Q 2550 3084 2163 3084 
Q 1697 3084 1428 2787 
Q 1159 2491 1159 1978 
L 1159 0 
L 581 0 
L 581 3500 
L 1159 3500 
L 1159 2956 
Q 1366 3272 1645 3428 
Q 1925 3584 2291 3584 
Q 2894 3584 3203 3211 
Q 3513 2838 3513 2113 
z
" id="DejaVuSans-6e" transform="scale(0.015625)"/>
      </defs>
      <use xlink:href="#DejaVuSans-72"/>
      <use x="41.113281" xlink:href="#DejaVuSans-61"/>
      <use x="102.392578" xlink:href="#DejaVuSans-64"/>
      <use x="165.869141" xlink:href="#DejaVuSans-69"/>
      <use x="193.652344" xlink:href="#DejaVuSans-61"/>
      <use x="254.931641" xlink:href="#DejaVuSans-6c"/>
      <use x="282.714844" xlink:href="#DejaVuSans-20"/>
      <use x="314.501953" xlink:href="#DejaVuSans-6c"/>
      <use x="342.285156" xlink:href="#DejaVuSans-6f"/>
      <use x="403.466797" xlink:href="#DejaVuSans-63"/>
      <use x="458.447266" xlink:href="#DejaVuSans-61"/>
      <use x="519.726562" xlink:href="#DejaVuSans-74"/>
      <use x="558.935547" xlink:href="#DejaVuSans-69"/>
      <use x="586.71875" xlink:href="#DejaVuSans-6f"/>
      <use x="647.900391" xlink:href="#DejaVuSans-6e"/>
     </g>
    </g>
   </g>
   <g id="matplotlib.axis_2">
    <g id="ytick_1">
     <g id="line2d_17">
      <path clip-path="url(#p91a3d756db)" d="M 57.8 300.04 
L 450 300.04 
" style="fill:none;stroke:#000000;stroke-dasharray:2.96,1.28;stroke-dashoffset:0;stroke-opacity:0.5;stroke-width:0.8;"/>
     </g>
     <g id="line2d_18">
      <defs>
       <path d="M 0 0 
L -3.5 0 
" id="md8f2507905" style="stroke:#000000;stroke-width:0.8;"/>
      </defs>
      <g>
       <use style="stroke:#000000;stroke-width:0.8;" x="57.8" xlink:href="#md8f2507905" y="300.04"/>
      </g>
     </g>
     <g id="text_10">
      <!-- 0.0 -->
      <g transform="translate(34.896875 303.839219)scale(0.1 -0.1)">
       <defs>
        <path d="M 684 794 
L 1344 794 
L 1344 0 
L 684 0 
L 684 794 
z
" id="DejaVuSans-2e" transform="scale(0.015625)"/>
       </defs>
       <use xlink:href="#DejaVuSans-30"/>
       <use x="63.623047" xlink:href="#DejaVuSans-2e"/>
       <use x="95.410156" xlink:href="#DejaVuSans-30"/>
      </g>
     </g>
    </g>
    <g id="ytick_2">
     <g id="line2d_19">
      <path clip-path="url(#p91a3d756db)" d="M 57.8 264.38 
L 450 264.38 
" style="fill:none;stroke:#000000;stroke-dasharray:2.96,1.28;stroke-dashoffset:0;stroke-opacity:0.5;stroke-width:0.8;"/>
     </g>
     <g id="line2d_20">
      <g>
       <use style="stroke:#000000;stroke-width:0.8;" x="57.8" xlink:href="#md8f2507905" y="264.38"/>
      </g>
     </g>
     <g id="text_11">
      <!-- 2.5 -->
      <g transform="translate(34.896875 268.179219)scale(0.1 -0.1)">
       <defs>
        <path d="M 691 4666 
L 3169 4666 
L 3169 4134 
L 1269 4134 
L 1269 2991 
Q 1406 3038 1543 3061 
Q 1681 3084 1819 3084 
Q 2600 3084 3056 2656 
Q 3513 2228 3513 1497 
Q 3513 744 3044 326 
Q 2575 -91 1722 -91 
Q 1428 -91 1123 -41 
Q 819 9 494 109 
L 494 744 
Q 775 591 1075 516 
Q 1375 441 1709 441 
Q 2250 441 2565 725 
Q 2881 1009 2881 1497 
Q 2881 1984 2565 2268 
Q 2250 2553 1709 2553 
Q 1456 2553 1204 2497 
Q 953 2441 691 2322 
L 691 4666 
z
" id="DejaVuSans-35" transform="scale(0.015625)"/>
       </defs>
       <use xlink:href="#DejaVuSans-32"/>
       <use x="63.623047" xlink:href="#DejaVuSans-2e"/>
       <use x="95.410156" xlink:href="#DejaVuSans-35"/>
      </g>
     </g>
    </g>
    <g id="ytick_3">
     <g id="line2d_21">
      <path clip-path="url(#p91a3d756db)" d="M 57.8 228.72 
L 450 228.72 
" style="fill:none;stroke:#000000;stroke-dasharray:2.96,1.28;stroke-dashoffset:0;stroke-opacity:0.5;stroke-width:0.8;"/>
     </g>
     <g id="line2d_22">
      <g>
       <use style="stroke:#000000;stroke-width:0.8;" x="57.8" xlink:href="#md8f2507905" y="228.72"/>
      </g>
     </g>
     <g id="text_12">
      <!-- 5.0 -->
      <g transform="translate(34.896875 232.519219)scale(0.1 -0.1)">
       <use xlink:href="#DejaVuSans-35"/>
       <use x="63.623047" xlink:href="#DejaVuSans-2e"/>
       <use x="95.410156" xlink:href="#DejaVuSans-30"/>
      </g>
     </g>
    </g>
    <g id="ytick_4">
     <g id="line2d_23">
      <path clip-path="url(#p91a3d756db)" d="M 57.8 193.06 
L 450 193.06 
" style="fill:none;stroke:#000000;stroke-dasharray:2.96,1.28;stroke-dashoffset:0;stroke-opacity:0.5;stroke-width:0.8;"/>
     </g>
     <g id="line2d_24">
      <g>
       <use style="stroke:#000000;stroke-width:0.8;" x="57.8" xlink:href="#md8f2507905" y="193.06"/>
      </g>
     </g>
     <g id="text_13">
      <!-- 7.5 -->
      <g transform="translate(34.896875 196.859219)scale(0.1 -0.1)">
       <defs>
        <path d="M 525 4666 
L 3525 4666 
L 3525 4397 
L 1831 0 
L 1172 0 
L 2766 4134 
L 525 4134 
L 525 4666 
z
" id="DejaVuSans-37" transform="scale(0.015625)"/>
       </defs>
       <use xlink:href="#DejaVuSans-37"/>
       <use x="63.623047" xlink:href="#DejaVuSans-2e"/>
       <use x="95.410156" xlink:href="#DejaVuSans-35"/>
      </g>
     </g>
    </g>
    <g id="ytick_5">
     <g id="line2d_25">
      <path clip-path="url(#p91a3d756db)" d="M 57.8 157.4 
L 450 157.4 
" style="fill:none;stroke:#000000;stroke-dasharray:2.96,1.28;stroke-dashoffset:0;stroke-opacity:0.5;stroke-width:0.8;"/>
     </g>
     <g id="line2d_26">
      <g>
       <use style="stroke:#000000;stroke-width:0.8;" x="57.8" xlink:href="#md8f2507905" y="157.4"/>
      </g>
     </g>
     <g id="text_14">
      <!-- 10.0 -->
      <g transform="translate(28.534375 161.199219)scale(0.1 -0.1)">
       <use xlink:href="#DejaVuSans-31"/>
       <use x="63.623047" xlink:href="#DejaVuSans-30"/>
       <use x="127.246094" xlink:href="#DejaVuSans-2e"/>
       <use x="159.033203" xlink:href="#DejaVuSans-30"/>
      </g>
     </g>
    </g>
    <g id="ytick_6">
     <g id="line2d_27">
      <path clip-path="url(#p91a3d756db)" d="M 57.8 121.74 
L 450 121.74 
" style="fill:none;stroke:#000000;stroke-dasharray:2.96,1.28;stroke-dashoffset:0;stroke-opacity:0.5;stroke-width:0.8;"/>
     </g>
     <g id="line2d_28">
      <g>
       <use style="stroke:#000000;stroke-width:0.8;" x="57.8" xlink:href="#md8f2507905" y="121.74"/>
      </g>
     </g>
     <g id="text_15">
      <!-- 12.5 -->
      <g transform="translate(28.534375 125.539219)scale(0.1 -0.1)">
       <use xlink:href="#DejaVuSans-31"/>
       <use x="63.623047" xlink:href="#DejaVuSans-32"/>
       <use x="127.246094" xlink:href="#DejaVuSans-2e"/>
       <use x="159.033203" xlink:href="#DejaVuSans-35"/>
      </g>
     </g>
    </g>
    <g id="ytick_7">
     <g id="line2d_29">
      <path clip-path="url(#p91a3d756db)" d="M 57.8 86.08 
L 450 86.08 
" style="fill:none;stroke:#000000;stroke-dasharray:2.96,1.28;stroke-dashoffset:0;stroke-opacity:0.5;stroke-width:0.8;"/>
     </g>
     <g id="line2d_30">
      <g>
       <use style="stroke:#000000;stroke-width:0.8;" x="57.8" xlink:href="#md8f2507905" y="86.08"/>
      </g>
     </g>
     <g id="text_16">
      <!-- 15.0 -->
      <g transform="translate(28.534375 89.879219)scale(0.1 -0.1)">
       <use xlink:href="#DejaVuSans-31"/>
       <use x="63.623047" xlink:href="#DejaVuSans-35"/>
       <use x="127.246094" xlink:href="#DejaVuSans-2e"/>
       <use x="159.033203" xlink:href="#DejaVuSans-30"/>
      </g>
     </g>
    </g>
    <g id="ytick_8">
     <g id="line2d_31">
      <path clip-path="url(#p91a3d756db)" d="M 57.8 50.42 
L 450 50.42 
" style="fill:none;stroke:#000000;stroke-dasharray:2.96,1.28;stroke-dashoffset:0;stroke-opacity:0.5;stroke-width:0.8;"/>
     </g>
     <g id="line2d_32">
      <g>
       <use style="stroke:#000000;stroke-width:0.8;" x="57.8" xlink:href="#md8f2507905" y="50.42"/>
      </g>
     </g>
     <g id="text_17">
      <!-- 17.5 -->
      <g transform="translate(28.534375 54.219219)scale(0.1 -0.1)">
       <use xlink:href="#DejaVuSans-31"/>
       <use x="63.623047" xlink:href="#DejaVuSans-37"/>
       <use x="127.246094" xlink:href="#DejaVuSans-2e"/>
       <use x="159.033203" xlink:href="#DejaVuSans-35"/>
      </g>
     </g>
    </g>
    <g id="ytick_9">
     <g id="line2d_33">
      <path clip-path="url(#p91a3d756db)" d="M 57.8 14.76 
L 450 14.76 
" style="fill:none;stroke:#000000;stroke-dasharray:2.96,1.28;stroke-dashoffset:0;stroke-opacity:0.5;stroke-width:0.8;"/>
     </g>
     <g id="line2d_34">
      <g>
       <use style="stroke:#000000;stroke-width:0.8;" x="57.8" xlink:href="#md8f2507905" y="14.76"/>
      </g>
     </g>
     <g id="text_18">
      <!-- 20.0 -->
      <g transform="translate(28.534375 18.559219)scale(0.1 -0.1)">
       <use xlink:href="#DejaVuSans-32"/>
       <use x="63.623047" xlink:href="#DejaVuSans-30"/>
       <use x="127.246094" xlink:href="#DejaVuSans-2e"/>
       <use x="159.033203" xlink:href="#DejaVuSans-30"/>
      </g>
     </g>
    </g>
    <g id="text_19">
     <!-- chord length -->
     <g transform="translate(21.622813 201.704531)rotate(-90)scale(0.14 -0.14)">
      <defs>
       <path d="M 3513 2113 
L 3513 0 
L 2938 0 
L 2938 2094 
Q 2938 2591 2744 2837 
Q 2550 3084 2163 3084 
Q 1697 3084 1428 2787 
Q 1159 2491 1159 1978 
L 1159 0 
L 581 0 
L 581 4863 
L 1159 4863 
L 1159 2956 
Q 1366 3272 1645 3428 
Q 1925 3584 2291 3584 
Q 2894 3584 3203 3211 
Q 3513 2838 3513 2113 
z
" id="DejaVuSans-68" transform="scale(0.015625)"/>
       <path d="M 3597 1894 
L 3597 1613 
L 953 1613 
Q 991 1019 1311 708 
Q 1631 397 2203 397 
Q 2534 397 2845 478 
Q 3156 559 3463 722 
L 3463 178 
Q 3153 47 2828 -22 
Q 2503 -91 2169 -91 
Q 1331 -91 842 396 
Q 353 884 353 1716 
Q 353 2575 817 3079 
Q 1281 3584 2069 3584 
Q 2775 3584 3186 3129 
Q 3597 2675 3597 1894 
z
M 3022 2063 
Q 3016 2534 2758 2815 
Q 2500 3097 2075 3097 
Q 1594 3097 1305 2825 
Q 1016 2553 972 2059 
L 3022 2063 
z
" id="DejaVuSans-65" transform="scale(0.015625)"/>
       <path d="M 2906 1791 
Q 2906 2416 2648 2759 
Q 2391 3103 1925 3103 
Q 1463 3103 1205 2759 
Q 947 2416 947 1791 
Q 947 1169 1205 825 
Q 1463 481 1925 481 
Q 2391 481 2648 825 
Q 2906 1169 2906 1791 
z
M 3481 434 
Q 3481 -459 3084 -895 
Q 2688 -1331 1869 -1331 
Q 1566 -1331 1297 -1286 
Q 1028 -1241 775 -1147 
L 775 -588 
Q 1028 -725 1275 -790 
Q 1522 -856 1778 -856 
Q 2344 -856 2625 -561 
Q 2906 -266 2906 331 
L 2906 616 
Q 2728 306 2450 153 
Q 2172 0 1784 0 
Q 1141 0 747 490 
Q 353 981 353 1791 
Q 353 2603 747 3093 
Q 1141 3584 1784 3584 
Q 2172 3584 2450 3431 
Q 2728 3278 2906 2969 
L 2906 3500 
L 3481 3500 
L 3481 434 
z
" id="DejaVuSans-67" transform="scale(0.015625)"/>
      </defs>
      <use xlink:href="#DejaVuSans-63"/>
      <use x="54.980469" xlink:href="#DejaVuSans-68"/>
      <use x="118.359375" xlink:href="#DejaVuSans-6f"/>
      <use x="179.541016" xlink:href="#DejaVuSans-72"/>
      <use x="218.904297" xlink:href="#DejaVuSans-64"/>
      <use x="282.380859" xlink:href="#DejaVuSans-20"/>
      <use x="314.167969" xlink:href="#DejaVuSans-6c"/>
      <use x="341.951172" xlink:href="#DejaVuSans-65"/>
      <use x="403.474609" xlink:href="#DejaVuSans-6e"/>
      <use x="466.853516" xlink:href="#DejaVuSans-67"/>
      <use x="530.330078" xlink:href="#DejaVuSans-74"/>
      <use x="569.539062" xlink:href="#DejaVuSans-68"/>
     </g>
    </g>
   </g>
   <g id="line2d_35">
    <path clip-path="url(#p91a3d756db)" d="M 57.8 86.08 
L 110.093333 86.08 
L 214.68 157.4 
L 450 157.4 
L 450 157.4 
" style="fill:none;stroke:#1f77b4;stroke-linecap:square;stroke-width:1.5;"/>
    <defs>
     <path d="M -3 3 
L 3 3 
L 3 -3 
L -3 -3 
z
" id="m262afb768e" style="stroke:#1f77b4;stroke-linejoin:miter;"/>
    </defs>
    <g clip-path="url(#p91a3d756db)">
     <use style="fill-opacity:0;stroke:#1f77b4;stroke-linejoin:miter;" x="57.8" xlink:href="#m262afb768e" y="86.08"/>
     <use style="fill-opacity:0;stroke:#1f77b4;stroke-linejoin:miter;" x="60.414667" xlink:href="#m262afb768e" y="86.08"/>
     <use style="fill-opacity:0;stroke:#1f77b4;stroke-linejoin:miter;" x="63.029333" xlink:href="#m262afb768e" y="86.08"/>
     <use style="fill-opacity:0;stroke:#1f77b4;stroke-linejoin:miter;" x="65.644" xlink:href="#m262afb768e" y="86.08"/>
     <use style="fill-opacity:0;stroke:#1f77b4;stroke-linejoin:miter;" x="68.258667" xlink:href="#m262afb768e" y="86.08"/>
     <use style="fill-opacity:0;stroke:#1f77b4;stroke-linejoin:miter;" x="70.873333" xlink:href="#m262afb768e" y="86.08"/>
     <use style="fill-opacity:0;stroke:#1f77b4;stroke-linejoin:miter;" x="73.488" xlink:href="#m262afb768e" y="86.08"/>
     <use style="fill-opacity:0;stroke:#1f77b4;stroke-linejoin:miter;" x="76.102667" xlink:href="#m262afb768e" y="86.08"/>
     <use style="fill-opacity:0;stroke:#1f77b4;stroke-linejoin:miter;" x="78.717333" xlink:href="#m262afb768e" y="86.08"/>
     <use style="fill-opacity:0;stroke:#1f77b4;stroke-linejoin:miter;" x="81.332" xlink:href="#m262afb768e" y="86.08"/>
     <use style="fill-opacity:0;stroke:#1f77b4;stroke-linejoin:miter;" x="83.946667" xlink:href="#m262afb768e" y="86.08"/>
     <use style="fill-opacity:0;stroke:#1f77b4;stroke-linejoin:miter;" x="86.561333" xlink:href="#m262afb768e" y="86.08"/>
     <use style="fill-opacity:0;stroke:#1f77b4;stroke-linejoin:miter;" x="89.176" xlink:href="#m262afb768e" y="86.08"/>
     <use style="fill-opacity:0;stroke:#1f77b4;stroke-linejoin:miter;" x="91.790667" xlink:href="#m262afb768e" y="86.08"/>
     <use style="fill-opacity:0;stroke:#1f77b4;stroke-linejoin:miter;" x="94.405333" xlink:href="#m262afb768e" y="86.08"/>
     <use style="fill-opacity:0;stroke:#1f77b4;stroke-linejoin:miter;" x="97.02" xlink:href="#m262afb768e" y="86.08"/>
     <use style="fill-opacity:0;stroke:#1f77b4;stroke-linejoin:miter;" x="99.634667" xlink:href="#m262afb768e" y="86.08"/>
     <use style="fill-opacity:0;stroke:#1f77b4;stroke-linejoin:miter;" x="102.249333" xlink:href="#m262afb768e" y="86.08"/>
     <use style="fill-opacity:0;stroke:#1f77b4;stroke-linejoin:miter;" x="104.864" xlink:href="#m262afb768e" y="86.08"/>
     <use style="fill-opacity:0;stroke:#1f77b4;stroke-linejoin:miter;" x="107.478667" xlink:href="#m262afb768e" y="86.08"/>
     <use style="fill-opacity:0;stroke:#1f77b4;stroke-linejoin:miter;" x="110.093333" xlink:href="#m262afb768e" y="86.08"/>
     <use style="fill-opacity:0;stroke:#1f77b4;stroke-linejoin:miter;" x="112.708" xlink:href="#m262afb768e" y="87.863"/>
     <use style="fill-opacity:0;stroke:#1f77b4;stroke-linejoin:miter;" x="115.322667" xlink:href="#m262afb768e" y="89.646"/>
     <use style="fill-opacity:0;stroke:#1f77b4;stroke-linejoin:miter;" x="117.937333" xlink:href="#m262afb768e" y="91.429"/>
     <use style="fill-opacity:0;stroke:#1f77b4;stroke-linejoin:miter;" x="120.552" xlink:href="#m262afb768e" y="93.212"/>
     <use style="fill-opacity:0;stroke:#1f77b4;stroke-linejoin:miter;" x="123.166667" xlink:href="#m262afb768e" y="94.995"/>
     <use style="fill-opacity:0;stroke:#1f77b4;stroke-linejoin:miter;" x="125.781333" xlink:href="#m262afb768e" y="96.778"/>
     <use style="fill-opacity:0;stroke:#1f77b4;stroke-linejoin:miter;" x="128.396" xlink:href="#m262afb768e" y="98.561"/>
     <use style="fill-opacity:0;stroke:#1f77b4;stroke-linejoin:miter;" x="131.010667" xlink:href="#m262afb768e" y="100.344"/>
     <use style="fill-opacity:0;stroke:#1f77b4;stroke-linejoin:miter;" x="133.625333" xlink:href="#m262afb768e" y="102.127"/>
     <use style="fill-opacity:0;stroke:#1f77b4;stroke-linejoin:miter;" x="136.24" xlink:href="#m262afb768e" y="103.91"/>
     <use style="fill-opacity:0;stroke:#1f77b4;stroke-linejoin:miter;" x="138.854667" xlink:href="#m262afb768e" y="105.693"/>
     <use style="fill-opacity:0;stroke:#1f77b4;stroke-linejoin:miter;" x="141.469333" xlink:href="#m262afb768e" y="107.476"/>
     <use style="fill-opacity:0;stroke:#1f77b4;stroke-linejoin:miter;" x="144.084" xlink:href="#m262afb768e" y="109.259"/>
     <use style="fill-opacity:0;stroke:#1f77b4;stroke-linejoin:miter;" x="146.698667" xlink:href="#m262afb768e" y="111.042"/>
     <use style="fill-opacity:0;stroke:#1f77b4;stroke-linejoin:miter;" x="149.313333" xlink:href="#m262afb768e" y="112.825"/>
     <use style="fill-opacity:0;stroke:#1f77b4;stroke-linejoin:miter;" x="151.928" xlink:href="#m262afb768e" y="114.608"/>
     <use style="fill-opacity:0;stroke:#1f77b4;stroke-linejoin:miter;" x="154.542667" xlink:href="#m262afb768e" y="116.391"/>
     <use style="fill-opacity:0;stroke:#1f77b4;stroke-linejoin:miter;" x="157.157333" xlink:href="#m262afb768e" y="118.174"/>
     <use style="fill-opacity:0;stroke:#1f77b4;stroke-linejoin:miter;" x="159.772" xlink:href="#m262afb768e" y="119.957"/>
     <use style="fill-opacity:0;stroke:#1f77b4;stroke-linejoin:miter;" x="162.386667" xlink:href="#m262afb768e" y="121.74"/>
     <use style="fill-opacity:0;stroke:#1f77b4;stroke-linejoin:miter;" x="165.001333" xlink:href="#m262afb768e" y="123.523"/>
     <use style="fill-opacity:0;stroke:#1f77b4;stroke-linejoin:miter;" x="167.616" xlink:href="#m262afb768e" y="125.306"/>
     <use style="fill-opacity:0;stroke:#1f77b4;stroke-linejoin:miter;" x="170.230667" xlink:href="#m262afb768e" y="127.089"/>
     <use style="fill-opacity:0;stroke:#1f77b4;stroke-linejoin:miter;" x="172.845333" xlink:href="#m262afb768e" y="128.872"/>
     <use style="fill-opacity:0;stroke:#1f77b4;stroke-linejoin:miter;" x="175.46" xlink:href="#m262afb768e" y="130.655"/>
     <use style="fill-opacity:0;stroke:#1f77b4;stroke-linejoin:miter;" x="178.074667" xlink:href="#m262afb768e" y="132.438"/>
     <use style="fill-opacity:0;stroke:#1f77b4;stroke-linejoin:miter;" x="180.689333" xlink:href="#m262afb768e" y="134.221"/>
     <use style="fill-opacity:0;stroke:#1f77b4;stroke-linejoin:miter;" x="183.304" xlink:href="#m262afb768e" y="136.004"/>
     <use style="fill-opacity:0;stroke:#1f77b4;stroke-linejoin:miter;" x="185.918667" xlink:href="#m262afb768e" y="137.787"/>
     <use style="fill-opacity:0;stroke:#1f77b4;stroke-linejoin:miter;" x="188.533333" xlink:href="#m262afb768e" y="139.57"/>
     <use style="fill-opacity:0;stroke:#1f77b4;stroke-linejoin:miter;" x="191.148" xlink:href="#m262afb768e" y="141.353"/>
     <use style="fill-opacity:0;stroke:#1f77b4;stroke-linejoin:miter;" x="193.762667" xlink:href="#m262afb768e" y="143.136"/>
     <use style="fill-opacity:0;stroke:#1f77b4;stroke-linejoin:miter;" x="196.377333" xlink:href="#m262afb768e" y="144.919"/>
     <use style="fill-opacity:0;stroke:#1f77b4;stroke-linejoin:miter;" x="198.992" xlink:href="#m262afb768e" y="146.702"/>
     <use style="fill-opacity:0;stroke:#1f77b4;stroke-linejoin:miter;" x="201.606667" xlink:href="#m262afb768e" y="148.485"/>
     <use style="fill-opacity:0;stroke:#1f77b4;stroke-linejoin:miter;" x="204.221333" xlink:href="#m262afb768e" y="150.268"/>
     <use style="fill-opacity:0;stroke:#1f77b4;stroke-linejoin:miter;" x="206.836" xlink:href="#m262afb768e" y="152.051"/>
     <use style="fill-opacity:0;stroke:#1f77b4;stroke-linejoin:miter;" x="209.450667" xlink:href="#m262afb768e" y="153.834"/>
     <use style="fill-opacity:0;stroke:#1f77b4;stroke-linejoin:miter;" x="212.065333" xlink:href="#m262afb768e" y="155.617"/>
     <use style="fill-opacity:0;stroke:#1f77b4;stroke-linejoin:miter;" x="214.68" xlink:href="#m262afb768e" y="157.4"/>
     <use style="fill-opacity:0;stroke:#1f77b4;stroke-linejoin:miter;" x="217.294667" xlink:href="#m262afb768e" y="157.4"/>
     <use style="fill-opacity:0;stroke:#1f77b4;stroke-linejoin:miter;" x="219.909333" xlink:href="#m262afb768e" y="157.4"/>
     <use style="fill-opacity:0;stroke:#1f77b4;stroke-linejoin:miter;" x="222.524" xlink:href="#m262afb768e" y="157.4"/>
     <use style="fill-opacity:0;stroke:#1f77b4;stroke-linejoin:miter;" x="225.138667" xlink:href="#m262afb768e" y="157.4"/>
     <use style="fill-opacity:0;stroke:#1f77b4;stroke-linejoin:miter;" x="227.753333" xlink:href="#m262afb768e" y="157.4"/>
     <use style="fill-opacity:0;stroke:#1f77b4;stroke-linejoin:miter;" x="230.368" xlink:href="#m262afb768e" y="157.4"/>
     <use style="fill-opacity:0;stroke:#1f77b4;stroke-linejoin:miter;" x="232.982667" xlink:href="#m262afb768e" y="157.4"/>
     <use style="fill-opacity:0;stroke:#1f77b4;stroke-linejoin:miter;" x="235.597333" xlink:href="#m262afb768e" y="157.4"/>
     <use style="fill-opacity:0;stroke:#1f77b4;stroke-linejoin:miter;" x="238.212" xlink:href="#m262afb768e" y="157.4"/>
     <use style="fill-opacity:0;stroke:#1f77b4;stroke-linejoin:miter;" x="240.826667" xlink:href="#m262afb768e" y="157.4"/>
     <use style="fill-opacity:0;stroke:#1f77b4;stroke-linejoin:miter;" x="243.441333" xlink:href="#m262afb768e" y="157.4"/>
     <use style="fill-opacity:0;stroke:#1f77b4;stroke-linejoin:miter;" x="246.056" xlink:href="#m262afb768e" y="157.4"/>
     <use style="fill-opacity:0;stroke:#1f77b4;stroke-linejoin:miter;" x="248.670667" xlink:href="#m262afb768e" y="157.4"/>
     <use style="fill-opacity:0;stroke:#1f77b4;stroke-linejoin:miter;" x="251.285333" xlink:href="#m262afb768e" y="157.4"/>
     <use style="fill-opacity:0;stroke:#1f77b4;stroke-linejoin:miter;" x="253.9" xlink:href="#m262afb768e" y="157.4"/>
     <use style="fill-opacity:0;stroke:#1f77b4;stroke-linejoin:miter;" x="256.514667" xlink:href="#m262afb768e" y="157.4"/>
     <use style="fill-opacity:0;stroke:#1f77b4;stroke-linejoin:miter;" x="259.129333" xlink:href="#m262afb768e" y="157.4"/>
     <use style="fill-opacity:0;stroke:#1f77b4;stroke-linejoin:miter;" x="261.744" xlink:href="#m262afb768e" y="157.4"/>
     <use style="fill-opacity:0;stroke:#1f77b4;stroke-linejoin:miter;" x="264.358667" xlink:href="#m262afb768e" y="157.4"/>
     <use style="fill-opacity:0;stroke:#1f77b4;stroke-linejoin:miter;" x="266.973333" xlink:href="#m262afb768e" y="157.4"/>
     <use style="fill-opacity:0;stroke:#1f77b4;stroke-linejoin:miter;" x="269.588" xlink:href="#m262afb768e" y="157.4"/>
     <use style="fill-opacity:0;stroke:#1f77b4;stroke-linejoin:miter;" x="272.202667" xlink:href="#m262afb768e" y="157.4"/>
     <use style="fill-opacity:0;stroke:#1f77b4;stroke-linejoin:miter;" x="274.817333" xlink:href="#m262afb768e" y="157.4"/>
     <use style="fill-opacity:0;stroke:#1f77b4;stroke-linejoin:miter;" x="277.432" xlink:href="#m262afb768e" y="157.4"/>
     <use style="fill-opacity:0;stroke:#1f77b4;stroke-linejoin:miter;" x="280.046667" xlink:href="#m262afb768e" y="157.4"/>
     <use style="fill-opacity:0;stroke:#1f77b4;stroke-linejoin:miter;" x="282.661333" xlink:href="#m262afb768e" y="157.4"/>
     <use style="fill-opacity:0;stroke:#1f77b4;stroke-linejoin:miter;" x="285.276" xlink:href="#m262afb768e" y="157.4"/>
     <use style="fill-opacity:0;stroke:#1f77b4;stroke-linejoin:miter;" x="287.890667" xlink:href="#m262afb768e" y="157.4"/>
     <use style="fill-opacity:0;stroke:#1f77b4;stroke-linejoin:miter;" x="290.505333" xlink:href="#m262afb768e" y="157.4"/>
     <use style="fill-opacity:0;stroke:#1f77b4;stroke-linejoin:miter;" x="293.12" xlink:href="#m262afb768e" y="157.4"/>
     <use style="fill-opacity:0;stroke:#1f77b4;stroke-linejoin:miter;" x="295.734667" xlink:href="#m262afb768e" y="157.4"/>
     <use style="fill-opacity:0;stroke:#1f77b4;stroke-linejoin:miter;" x="298.349333" xlink:href="#m262afb768e" y="157.4"/>
     <use style="fill-opacity:0;stroke:#1f77b4;stroke-linejoin:miter;" x="300.964" xlink:href="#m262afb768e" y="157.4"/>
     <use style="fill-opacity:0;stroke:#1f77b4;stroke-linejoin:miter;" x="303.578667" xlink:href="#m262afb768e" y="157.4"/>
     <use style="fill-opacity:0;stroke:#1f77b4;stroke-linejoin:miter;" x="306.193333" xlink:href="#m262afb768e" y="157.4"/>
     <use style="fill-opacity:0;stroke:#1f77b4;stroke-linejoin:miter;" x="308.808" xlink:href="#m262afb768e" y="157.4"/>
     <use style="fill-opacity:0;stroke:#1f77b4;stroke-linejoin:miter;" x="311.422667" xlink:href="#m262afb768e" y="157.4"/>
     <use style="fill-opacity:0;stroke:#1f77b4;stroke-linejoin:miter;" x="314.037333" xlink:href="#m262afb768e" y="157.4"/>
     <use style="fill-opacity:0;stroke:#1f77b4;stroke-linejoin:miter;" x="316.652" xlink:href="#m262afb768e" y="157.4"/>
     <use style="fill-opacity:0;stroke:#1f77b4;stroke-linejoin:miter;" x="319.266667" xlink:href="#m262afb768e" y="157.4"/>
     <use style="fill-opacity:0;stroke:#1f77b4;stroke-linejoin:miter;" x="321.881333" xlink:href="#m262afb768e" y="157.4"/>
     <use style="fill-opacity:0;stroke:#1f77b4;stroke-linejoin:miter;" x="324.496" xlink:href="#m262afb768e" y="157.4"/>
     <use style="fill-opacity:0;stroke:#1f77b4;stroke-linejoin:miter;" x="327.110667" xlink:href="#m262afb768e" y="157.4"/>
     <use style="fill-opacity:0;stroke:#1f77b4;stroke-linejoin:miter;" x="329.725333" xlink:href="#m262afb768e" y="157.4"/>
     <use style="fill-opacity:0;stroke:#1f77b4;stroke-linejoin:miter;" x="332.34" xlink:href="#m262afb768e" y="157.4"/>
     <use style="fill-opacity:0;stroke:#1f77b4;stroke-linejoin:miter;" x="334.954667" xlink:href="#m262afb768e" y="157.4"/>
     <use style="fill-opacity:0;stroke:#1f77b4;stroke-linejoin:miter;" x="337.569333" xlink:href="#m262afb768e" y="157.4"/>
     <use style="fill-opacity:0;stroke:#1f77b4;stroke-linejoin:miter;" x="340.184" xlink:href="#m262afb768e" y="157.4"/>
     <use style="fill-opacity:0;stroke:#1f77b4;stroke-linejoin:miter;" x="342.798667" xlink:href="#m262afb768e" y="157.4"/>
     <use style="fill-opacity:0;stroke:#1f77b4;stroke-linejoin:miter;" x="345.413333" xlink:href="#m262afb768e" y="157.4"/>
     <use style="fill-opacity:0;stroke:#1f77b4;stroke-linejoin:miter;" x="348.028" xlink:href="#m262afb768e" y="157.4"/>
     <use style="fill-opacity:0;stroke:#1f77b4;stroke-linejoin:miter;" x="350.642667" xlink:href="#m262afb768e" y="157.4"/>
     <use style="fill-opacity:0;stroke:#1f77b4;stroke-linejoin:miter;" x="353.257333" xlink:href="#m262afb768e" y="157.4"/>
     <use style="fill-opacity:0;stroke:#1f77b4;stroke-linejoin:miter;" x="355.872" xlink:href="#m262afb768e" y="157.4"/>
     <use style="fill-opacity:0;stroke:#1f77b4;stroke-linejoin:miter;" x="358.486667" xlink:href="#m262afb768e" y="157.4"/>
     <use style="fill-opacity:0;stroke:#1f77b4;stroke-linejoin:miter;" x="361.101333" xlink:href="#m262afb768e" y="157.4"/>
     <use style="fill-opacity:0;stroke:#1f77b4;stroke-linejoin:miter;" x="363.716" xlink:href="#m262afb768e" y="157.4"/>
     <use style="fill-opacity:0;stroke:#1f77b4;stroke-linejoin:miter;" x="366.330667" xlink:href="#m262afb768e" y="157.4"/>
     <use style="fill-opacity:0;stroke:#1f77b4;stroke-linejoin:miter;" x="368.945333" xlink:href="#m262afb768e" y="157.4"/>
     <use style="fill-opacity:0;stroke:#1f77b4;stroke-linejoin:miter;" x="371.56" xlink:href="#m262afb768e" y="157.4"/>
     <use style="fill-opacity:0;stroke:#1f77b4;stroke-linejoin:miter;" x="374.174667" xlink:href="#m262afb768e" y="157.4"/>
     <use style="fill-opacity:0;stroke:#1f77b4;stroke-linejoin:miter;" x="376.789333" xlink:href="#m262afb768e" y="157.4"/>
     <use style="fill-opacity:0;stroke:#1f77b4;stroke-linejoin:miter;" x="379.404" xlink:href="#m262afb768e" y="157.4"/>
     <use style="fill-opacity:0;stroke:#1f77b4;stroke-linejoin:miter;" x="382.018667" xlink:href="#m262afb768e" y="157.4"/>
     <use style="fill-opacity:0;stroke:#1f77b4;stroke-linejoin:miter;" x="384.633333" xlink:href="#m262afb768e" y="157.4"/>
     <use style="fill-opacity:0;stroke:#1f77b4;stroke-linejoin:miter;" x="387.248" xlink:href="#m262afb768e" y="157.4"/>
     <use style="fill-opacity:0;stroke:#1f77b4;stroke-linejoin:miter;" x="389.862667" xlink:href="#m262afb768e" y="157.4"/>
     <use style="fill-opacity:0;stroke:#1f77b4;stroke-linejoin:miter;" x="392.477333" xlink:href="#m262afb768e" y="157.4"/>
     <use style="fill-opacity:0;stroke:#1f77b4;stroke-linejoin:miter;" x="395.092" xlink:href="#m262afb768e" y="157.4"/>
     <use style="fill-opacity:0;stroke:#1f77b4;stroke-linejoin:miter;" x="397.706667" xlink:href="#m262afb768e" y="157.4"/>
     <use style="fill-opacity:0;stroke:#1f77b4;stroke-linejoin:miter;" x="400.321333" xlink:href="#m262afb768e" y="157.4"/>
     <use style="fill-opacity:0;stroke:#1f77b4;stroke-linejoin:miter;" x="402.936" xlink:href="#m262afb768e" y="157.4"/>
     <use style="fill-opacity:0;stroke:#1f77b4;stroke-linejoin:miter;" x="405.550667" xlink:href="#m262afb768e" y="157.4"/>
     <use style="fill-opacity:0;stroke:#1f77b4;stroke-linejoin:miter;" x="408.165333" xlink:href="#m262afb768e" y="157.4"/>
     <use style="fill-opacity:0;stroke:#1f77b4;stroke-linejoin:miter;" x="410.78" xlink:href="#m262afb768e" y="157.4"/>
     <use style="fill-opacity:0;stroke:#1f77b4;stroke-linejoin:miter;" x="413.394667" xlink:href="#m262afb768e" y="157.4"/>
     <use style="fill-opacity:0;stroke:#1f77b4;stroke-linejoin:miter;" x="416.009333" xlink:href="#m262afb768e" y="157.4"/>
     <use style="fill-opacity:0;stroke:#1f77b4;stroke-linejoin:miter;" x="418.624" xlink:href="#m262afb768e" y="157.4"/>
     <use style="fill-opacity:0;stroke:#1f77b4;stroke-linejoin:miter;" x="421.238667" xlink:href="#m262afb768e" y="157.4"/>
     <use style="fill-opacity:0;stroke:#1f77b4;stroke-linejoin:miter;" x="423.853333" xlink:href="#m262afb768e" y="157.4"/>
     <use style="fill-opacity:0;stroke:#1f77b4;stroke-linejoin:miter;" x="426.468" xlink:href="#m262afb768e" y="157.4"/>
     <use style="fill-opacity:0;stroke:#1f77b4;stroke-linejoin:miter;" x="429.082667" xlink:href="#m262afb768e" y="157.4"/>
     <use style="fill-opacity:0;stroke:#1f77b4;stroke-linejoin:miter;" x="431.697333" xlink:href="#m262afb768e" y="157.4"/>
     <use style="fill-opacity:0;stroke:#1f77b4;stroke-linejoin:miter;" x="434.312" xlink:href="#m262afb768e" y="157.4"/>
     <use style="fill-opacity:0;stroke:#1f77b4;stroke-linejoin:miter;" x="436.926667" xlink:href="#m262afb768e" y="157.4"/>
     <use style="fill-opacity:0;stroke:#1f77b4;stroke-linejoin:miter;" x="439.541333" xlink:href="#m262afb768e" y="157.4"/>
     <use style="fill-opacity:0;stroke:#1f77b4;stroke-linejoin:miter;" x="442.156" xlink:href="#m262afb768e" y="157.4"/>
     <use style="fill-opacity:0;stroke:#1f77b4;stroke-linejoin:miter;" x="444.770667" xlink:href="#m262afb768e" y="157.4"/>
     <use style="fill-opacity:0;stroke:#1f77b4;stroke-linejoin:miter;" x="447.385333" xlink:href="#m262afb768e" y="157.4"/>
     <use style="fill-opacity:0;stroke:#1f77b4;stroke-linejoin:miter;" x="450" xlink:href="#m262afb768e" y="157.4"/>
    </g>
   </g>
   <g id="patch_3">
    <path d="M 57.8 300.04 
L 57.8 14.76 
" style="fill:none;stroke:#000000;stroke-linecap:square;stroke-linejoin:miter;stroke-width:0.8;"/>
   </g>
   <g id="patch_4">
    <path d="M 450 300.04 
L 450 14.76 
" style="fill:none;stroke:#000000;stroke-linecap:square;stroke-linejoin:miter;stroke-width:0.8;"/>
   </g>
   <g id="patch_5">
    <path d="M 57.8 300.04 
L 450 300.04 
" style="fill:none;stroke:#000000;stroke-linecap:square;stroke-linejoin:miter;stroke-width:0.8;"/>
   </g>
   <g id="patch_6">
    <path d="M 57.8 14.76 
L 450 14.76 
" style="fill:none;stroke:#000000;stroke-linecap:square;stroke-linejoin:miter;stroke-width:0.8;"/>
   </g>
   <g id="legend_1">
    <g id="patch_7">
     <path d="M 304.203125 37.71625 
L 443 37.71625 
Q 445 37.71625 445 35.71625 
L 445 21.76 
Q 445 19.76 443 19.76 
L 304.203125 19.76 
Q 302.203125 19.76 302.203125 21.76 
L 302.203125 35.71625 
Q 302.203125 37.71625 304.203125 37.71625 
z
" style="fill:#ffffff;opacity:0.8;stroke:#cccccc;stroke-linejoin:miter;"/>
    </g>
    <g id="line2d_36">
     <path d="M 306.203125 27.858437 
L 326.203125 27.858437 
" style="fill:none;stroke:#1f77b4;stroke-linecap:square;stroke-width:1.5;"/>
    </g>
    <g id="line2d_37">
     <g>
      <use style="fill-opacity:0;stroke:#1f77b4;stroke-linejoin:miter;" x="316.203125" xlink:href="#m262afb768e" y="27.858437"/>
     </g>
    </g>
    <g id="text_20">
     <!-- chords_distribution_3 -->
     <g transform="translate(334.203125 31.358437)scale(0.1 -0.1)">
      <defs>
       <path d="M 2834 3397 
L 2834 2853 
Q 2591 2978 2328 3040 
Q 2066 3103 1784 3103 
Q 1356 3103 1142 2972 
Q 928 2841 928 2578 
Q 928 2378 1081 2264 
Q 1234 2150 1697 2047 
L 1894 2003 
Q 2506 1872 2764 1633 
Q 3022 1394 3022 966 
Q 3022 478 2636 193 
Q 2250 -91 1575 -91 
Q 1294 -91 989 -36 
Q 684 19 347 128 
L 347 722 
Q 666 556 975 473 
Q 1284 391 1588 391 
Q 1994 391 2212 530 
Q 2431 669 2431 922 
Q 2431 1156 2273 1281 
Q 2116 1406 1581 1522 
L 1381 1569 
Q 847 1681 609 1914 
Q 372 2147 372 2553 
Q 372 3047 722 3315 
Q 1072 3584 1716 3584 
Q 2034 3584 2315 3537 
Q 2597 3491 2834 3397 
z
" id="DejaVuSans-73" transform="scale(0.015625)"/>
       <path d="M 3263 -1063 
L 3263 -1509 
L -63 -1509 
L -63 -1063 
L 3263 -1063 
z
" id="DejaVuSans-5f" transform="scale(0.015625)"/>
       <path d="M 3116 1747 
Q 3116 2381 2855 2742 
Q 2594 3103 2138 3103 
Q 1681 3103 1420 2742 
Q 1159 2381 1159 1747 
Q 1159 1113 1420 752 
Q 1681 391 2138 391 
Q 2594 391 2855 752 
Q 3116 1113 3116 1747 
z
M 1159 2969 
Q 1341 3281 1617 3432 
Q 1894 3584 2278 3584 
Q 2916 3584 3314 3078 
Q 3713 2572 3713 1747 
Q 3713 922 3314 415 
Q 2916 -91 2278 -91 
Q 1894 -91 1617 61 
Q 1341 213 1159 525 
L 1159 0 
L 581 0 
L 581 4863 
L 1159 4863 
L 1159 2969 
z
" id="DejaVuSans-62" transform="scale(0.015625)"/>
       <path d="M 544 1381 
L 544 3500 
L 1119 3500 
L 1119 1403 
Q 1119 906 1312 657 
Q 1506 409 1894 409 
Q 2359 409 2629 706 
Q 2900 1003 2900 1516 
L 2900 3500 
L 3475 3500 
L 3475 0 
L 2900 0 
L 2900 538 
Q 2691 219 2414 64 
Q 2138 -91 1772 -91 
Q 1169 -91 856 284 
Q 544 659 544 1381 
z
M 1991 3584 
L 1991 3584 
z
" id="DejaVuSans-75" transform="scale(0.015625)"/>
       <path d="M 2597 2516 
Q 3050 2419 3304 2112 
Q 3559 1806 3559 1356 
Q 3559 666 3084 287 
Q 2609 -91 1734 -91 
Q 1441 -91 1130 -33 
Q 819 25 488 141 
L 488 750 
Q 750 597 1062 519 
Q 1375 441 1716 441 
Q 2309 441 2620 675 
Q 2931 909 2931 1356 
Q 2931 1769 2642 2001 
Q 2353 2234 1838 2234 
L 1294 2234 
L 1294 2753 
L 1863 2753 
Q 2328 2753 2575 2939 
Q 2822 3125 2822 3475 
Q 2822 3834 2567 4026 
Q 2313 4219 1838 4219 
Q 1578 4219 1281 4162 
Q 984 4106 628 3988 
L 628 4550 
Q 988 4650 1302 4700 
Q 1616 4750 1894 4750 
Q 2613 4750 3031 4423 
Q 3450 4097 3450 3541 
Q 3450 3153 3228 2886 
Q 3006 2619 2597 2516 
z
" id="DejaVuSans-33" transform="scale(0.015625)"/>
      </defs>
      <use xlink:href="#DejaVuSans-63"/>
      <use x="54.980469" xlink:href="#DejaVuSans-68"/>
      <use x="118.359375" xlink:href="#DejaVuSans-6f"/>
      <use x="179.541016" xlink:href="#DejaVuSans-72"/>
      <use x="218.904297" xlink:href="#DejaVuSans-64"/>
      <use x="282.380859" xlink:href="#DejaVuSans-73"/>
      <use x="334.480469" xlink:href="#DejaVuSans-5f"/>
      <use x="384.480469" xlink:href="#DejaVuSans-64"/>
      <use x="447.957031" xlink:href="#DejaVuSans-69"/>
      <use x="475.740234" xlink:href="#DejaVuSans-73"/>
      <use x="527.839844" xlink:href="#DejaVuSans-74"/>
      <use x="567.048828" xlink:href="#DejaVuSans-72"/>
      <use x="608.162109" xlink:href="#DejaVuSans-69"/>
      <use x="635.945312" xlink:href="#DejaVuSans-62"/>
      <use x="699.421875" xlink:href="#DejaVuSans-75"/>
      <use x="762.800781" xlink:href="#DejaVuSans-74"/>
      <use x="802.009766" xlink:href="#DejaVuSans-69"/>
      <use x="829.792969" xlink:href="#DejaVuSans-6f"/>
      <use x="890.974609" xlink:href="#DejaVuSans-6e"/>
      <use x="954.353516" xlink:href="#DejaVuSans-5f"/>
      <use x="1004.353516" xlink:href="#DejaVuSans-33"/>
     </g>
    </g>
   </g>
  </g>
 </g>
 <defs>
  <clipPath id="p91a3d756db">
   <rect height="285.28" width="392.2" x="57.8" y="14.76"/>
  </clipPath>
 </defs>
</svg>
