<?xml version="1.0" encoding="utf-8" standalone="no"?>
<!DOCTYPE svg PUBLIC "-//W3C//DTD SVG 1.1//EN"
  "http://www.w3.org/Graphics/SVG/1.1/DTD/svg11.dtd">
<svg height="345.6pt" version="1.1" viewBox="0 0 460.8 345.6" width="460.8pt" xmlns="http://www.w3.org/2000/svg" xmlns:xlink="http://www.w3.org/1999/xlink">
 <metadata>
  <rdf:RDF xmlns:cc="http://creativecommons.org/ns#" xmlns:dc="http://purl.org/dc/elements/1.1/" xmlns:rdf="http://www.w3.org/1999/02/22-rdf-syntax-ns#">
   <cc:Work>
    <dc:type rdf:resource="http://purl.org/dc/dcmitype/StillImage"/>
    <dc:date>2022-03-03T12:48:35.180491</dc:date>
    <dc:format>image/svg+xml</dc:format>
    <dc:creator>
     <cc:Agent>
      <dc:title>Matplotlib v3.4.3, https://matplotlib.org/</dc:title>
     </cc:Agent>
    </dc:creator>
   </cc:Work>
  </rdf:RDF>
 </metadata>
 <defs>
  <style type="text/css">*{stroke-linecap:butt;stroke-linejoin:round;}</style>
 </defs>
 <g id="figure_1">
  <g id="patch_1">
   <path d="M 0 345.6 
L 460.8 345.6 
L 460.8 0 
L 0 0 
z
" style="fill:#ffffff;"/>
  </g>
  <g id="axes_1">
   <g id="patch_2">
    <path d="M 69.41 300.04 
L 450 300.04 
L 450 14.28643 
L 69.41 14.28643 
z
" style="fill:#ffffff;"/>
   </g>
   <g id="matplotlib.axis_1">
    <g id="xtick_1">
     <g id="line2d_1">
      <path clip-path="url(#p3d6f53e74b)" d="M 86.709545 300.04 
L 86.709545 14.28643 
" style="fill:none;stroke:#b0b0b0;stroke-dasharray:2.96,1.28;stroke-dashoffset:0;stroke-opacity:0.5;stroke-width:0.8;"/>
     </g>
     <g id="line2d_2">
      <defs>
       <path d="M 0 0 
L 0 3.5 
" id="mbd984d2309" style="stroke:#000000;stroke-width:0.8;"/>
      </defs>
      <g>
       <use style="stroke:#000000;stroke-width:0.8;" x="86.709545" xlink:href="#mbd984d2309" y="300.04"/>
      </g>
     </g>
     <g id="text_1">
      <!-- 0.0 -->
      <g transform="translate(78.757983 314.638437)scale(0.1 -0.1)">
       <defs>
        <path d="M 2034 4250 
Q 1547 4250 1301 3770 
Q 1056 3291 1056 2328 
Q 1056 1369 1301 889 
Q 1547 409 2034 409 
Q 2525 409 2770 889 
Q 3016 1369 3016 2328 
Q 3016 3291 2770 3770 
Q 2525 4250 2034 4250 
z
M 2034 4750 
Q 2819 4750 3233 4129 
Q 3647 3509 3647 2328 
Q 3647 1150 3233 529 
Q 2819 -91 2034 -91 
Q 1250 -91 836 529 
Q 422 1150 422 2328 
Q 422 3509 836 4129 
Q 1250 4750 2034 4750 
z
" id="DejaVuSans-30" transform="scale(0.015625)"/>
        <path d="M 684 794 
L 1344 794 
L 1344 0 
L 684 0 
L 684 794 
z
" id="DejaVuSans-2e" transform="scale(0.015625)"/>
       </defs>
       <use xlink:href="#DejaVuSans-30"/>
       <use x="63.623047" xlink:href="#DejaVuSans-2e"/>
       <use x="95.410156" xlink:href="#DejaVuSans-30"/>
      </g>
     </g>
    </g>
    <g id="xtick_2">
     <g id="line2d_3">
      <path clip-path="url(#p3d6f53e74b)" d="M 155.907727 300.04 
L 155.907727 14.28643 
" style="fill:none;stroke:#b0b0b0;stroke-dasharray:2.96,1.28;stroke-dashoffset:0;stroke-opacity:0.5;stroke-width:0.8;"/>
     </g>
     <g id="line2d_4">
      <g>
       <use style="stroke:#000000;stroke-width:0.8;" x="155.907727" xlink:href="#mbd984d2309" y="300.04"/>
      </g>
     </g>
     <g id="text_2">
      <!-- 0.2 -->
      <g transform="translate(147.956165 314.638437)scale(0.1 -0.1)">
       <defs>
        <path d="M 1228 531 
L 3431 531 
L 3431 0 
L 469 0 
L 469 531 
Q 828 903 1448 1529 
Q 2069 2156 2228 2338 
Q 2531 2678 2651 2914 
Q 2772 3150 2772 3378 
Q 2772 3750 2511 3984 
Q 2250 4219 1831 4219 
Q 1534 4219 1204 4116 
Q 875 4013 500 3803 
L 500 4441 
Q 881 4594 1212 4672 
Q 1544 4750 1819 4750 
Q 2544 4750 2975 4387 
Q 3406 4025 3406 3419 
Q 3406 3131 3298 2873 
Q 3191 2616 2906 2266 
Q 2828 2175 2409 1742 
Q 1991 1309 1228 531 
z
" id="DejaVuSans-32" transform="scale(0.015625)"/>
       </defs>
       <use xlink:href="#DejaVuSans-30"/>
       <use x="63.623047" xlink:href="#DejaVuSans-2e"/>
       <use x="95.410156" xlink:href="#DejaVuSans-32"/>
      </g>
     </g>
    </g>
    <g id="xtick_3">
     <g id="line2d_5">
      <path clip-path="url(#p3d6f53e74b)" d="M 225.105909 300.04 
L 225.105909 14.28643 
" style="fill:none;stroke:#b0b0b0;stroke-dasharray:2.96,1.28;stroke-dashoffset:0;stroke-opacity:0.5;stroke-width:0.8;"/>
     </g>
     <g id="line2d_6">
      <g>
       <use style="stroke:#000000;stroke-width:0.8;" x="225.105909" xlink:href="#mbd984d2309" y="300.04"/>
      </g>
     </g>
     <g id="text_3">
      <!-- 0.4 -->
      <g transform="translate(217.154347 314.638437)scale(0.1 -0.1)">
       <defs>
        <path d="M 2419 4116 
L 825 1625 
L 2419 1625 
L 2419 4116 
z
M 2253 4666 
L 3047 4666 
L 3047 1625 
L 3713 1625 
L 3713 1100 
L 3047 1100 
L 3047 0 
L 2419 0 
L 2419 1100 
L 313 1100 
L 313 1709 
L 2253 4666 
z
" id="DejaVuSans-34" transform="scale(0.015625)"/>
       </defs>
       <use xlink:href="#DejaVuSans-30"/>
       <use x="63.623047" xlink:href="#DejaVuSans-2e"/>
       <use x="95.410156" xlink:href="#DejaVuSans-34"/>
      </g>
     </g>
    </g>
    <g id="xtick_4">
     <g id="line2d_7">
      <path clip-path="url(#p3d6f53e74b)" d="M 294.304091 300.04 
L 294.304091 14.28643 
" style="fill:none;stroke:#b0b0b0;stroke-dasharray:2.96,1.28;stroke-dashoffset:0;stroke-opacity:0.5;stroke-width:0.8;"/>
     </g>
     <g id="line2d_8">
      <g>
       <use style="stroke:#000000;stroke-width:0.8;" x="294.304091" xlink:href="#mbd984d2309" y="300.04"/>
      </g>
     </g>
     <g id="text_4">
      <!-- 0.6 -->
      <g transform="translate(286.352528 314.638437)scale(0.1 -0.1)">
       <defs>
        <path d="M 2113 2584 
Q 1688 2584 1439 2293 
Q 1191 2003 1191 1497 
Q 1191 994 1439 701 
Q 1688 409 2113 409 
Q 2538 409 2786 701 
Q 3034 994 3034 1497 
Q 3034 2003 2786 2293 
Q 2538 2584 2113 2584 
z
M 3366 4563 
L 3366 3988 
Q 3128 4100 2886 4159 
Q 2644 4219 2406 4219 
Q 1781 4219 1451 3797 
Q 1122 3375 1075 2522 
Q 1259 2794 1537 2939 
Q 1816 3084 2150 3084 
Q 2853 3084 3261 2657 
Q 3669 2231 3669 1497 
Q 3669 778 3244 343 
Q 2819 -91 2113 -91 
Q 1303 -91 875 529 
Q 447 1150 447 2328 
Q 447 3434 972 4092 
Q 1497 4750 2381 4750 
Q 2619 4750 2861 4703 
Q 3103 4656 3366 4563 
z
" id="DejaVuSans-36" transform="scale(0.015625)"/>
       </defs>
       <use xlink:href="#DejaVuSans-30"/>
       <use x="63.623047" xlink:href="#DejaVuSans-2e"/>
       <use x="95.410156" xlink:href="#DejaVuSans-36"/>
      </g>
     </g>
    </g>
    <g id="xtick_5">
     <g id="line2d_9">
      <path clip-path="url(#p3d6f53e74b)" d="M 363.502273 300.04 
L 363.502273 14.28643 
" style="fill:none;stroke:#b0b0b0;stroke-dasharray:2.96,1.28;stroke-dashoffset:0;stroke-opacity:0.5;stroke-width:0.8;"/>
     </g>
     <g id="line2d_10">
      <g>
       <use style="stroke:#000000;stroke-width:0.8;" x="363.502273" xlink:href="#mbd984d2309" y="300.04"/>
      </g>
     </g>
     <g id="text_5">
      <!-- 0.8 -->
      <g transform="translate(355.55071 314.638437)scale(0.1 -0.1)">
       <defs>
        <path d="M 2034 2216 
Q 1584 2216 1326 1975 
Q 1069 1734 1069 1313 
Q 1069 891 1326 650 
Q 1584 409 2034 409 
Q 2484 409 2743 651 
Q 3003 894 3003 1313 
Q 3003 1734 2745 1975 
Q 2488 2216 2034 2216 
z
M 1403 2484 
Q 997 2584 770 2862 
Q 544 3141 544 3541 
Q 544 4100 942 4425 
Q 1341 4750 2034 4750 
Q 2731 4750 3128 4425 
Q 3525 4100 3525 3541 
Q 3525 3141 3298 2862 
Q 3072 2584 2669 2484 
Q 3125 2378 3379 2068 
Q 3634 1759 3634 1313 
Q 3634 634 3220 271 
Q 2806 -91 2034 -91 
Q 1263 -91 848 271 
Q 434 634 434 1313 
Q 434 1759 690 2068 
Q 947 2378 1403 2484 
z
M 1172 3481 
Q 1172 3119 1398 2916 
Q 1625 2713 2034 2713 
Q 2441 2713 2670 2916 
Q 2900 3119 2900 3481 
Q 2900 3844 2670 4047 
Q 2441 4250 2034 4250 
Q 1625 4250 1398 4047 
Q 1172 3844 1172 3481 
z
" id="DejaVuSans-38" transform="scale(0.015625)"/>
       </defs>
       <use xlink:href="#DejaVuSans-30"/>
       <use x="63.623047" xlink:href="#DejaVuSans-2e"/>
       <use x="95.410156" xlink:href="#DejaVuSans-38"/>
      </g>
     </g>
    </g>
    <g id="xtick_6">
     <g id="line2d_11">
      <path clip-path="url(#p3d6f53e74b)" d="M 432.700455 300.04 
L 432.700455 14.28643 
" style="fill:none;stroke:#b0b0b0;stroke-dasharray:2.96,1.28;stroke-dashoffset:0;stroke-opacity:0.5;stroke-width:0.8;"/>
     </g>
     <g id="line2d_12">
      <g>
       <use style="stroke:#000000;stroke-width:0.8;" x="432.700455" xlink:href="#mbd984d2309" y="300.04"/>
      </g>
     </g>
     <g id="text_6">
      <!-- 1.0 -->
      <g transform="translate(424.748892 314.638437)scale(0.1 -0.1)">
       <defs>
        <path d="M 794 531 
L 1825 531 
L 1825 4091 
L 703 3866 
L 703 4441 
L 1819 4666 
L 2450 4666 
L 2450 531 
L 3481 531 
L 3481 0 
L 794 0 
L 794 531 
z
" id="DejaVuSans-31" transform="scale(0.015625)"/>
       </defs>
       <use xlink:href="#DejaVuSans-31"/>
       <use x="63.623047" xlink:href="#DejaVuSans-2e"/>
       <use x="95.410156" xlink:href="#DejaVuSans-30"/>
      </g>
     </g>
    </g>
    <g id="text_7">
     <!-- r/R -->
     <g transform="translate(249.605312 331.355937)scale(0.14 -0.14)">
      <defs>
       <path d="M 2631 2963 
Q 2534 3019 2420 3045 
Q 2306 3072 2169 3072 
Q 1681 3072 1420 2755 
Q 1159 2438 1159 1844 
L 1159 0 
L 581 0 
L 581 3500 
L 1159 3500 
L 1159 2956 
Q 1341 3275 1631 3429 
Q 1922 3584 2338 3584 
Q 2397 3584 2469 3576 
Q 2541 3569 2628 3553 
L 2631 2963 
z
" id="DejaVuSans-72" transform="scale(0.015625)"/>
       <path d="M 1625 4666 
L 2156 4666 
L 531 -594 
L 0 -594 
L 1625 4666 
z
" id="DejaVuSans-2f" transform="scale(0.015625)"/>
       <path d="M 2841 2188 
Q 3044 2119 3236 1894 
Q 3428 1669 3622 1275 
L 4263 0 
L 3584 0 
L 2988 1197 
Q 2756 1666 2539 1819 
Q 2322 1972 1947 1972 
L 1259 1972 
L 1259 0 
L 628 0 
L 628 4666 
L 2053 4666 
Q 2853 4666 3247 4331 
Q 3641 3997 3641 3322 
Q 3641 2881 3436 2590 
Q 3231 2300 2841 2188 
z
M 1259 4147 
L 1259 2491 
L 2053 2491 
Q 2509 2491 2742 2702 
Q 2975 2913 2975 3322 
Q 2975 3731 2742 3939 
Q 2509 4147 2053 4147 
L 1259 4147 
z
" id="DejaVuSans-52" transform="scale(0.015625)"/>
      </defs>
      <use xlink:href="#DejaVuSans-72"/>
      <use x="41.113281" xlink:href="#DejaVuSans-2f"/>
      <use x="74.804688" xlink:href="#DejaVuSans-52"/>
     </g>
    </g>
   </g>
   <g id="matplotlib.axis_2">
    <g id="ytick_1">
     <g id="line2d_13">
      <path clip-path="url(#p3d6f53e74b)" d="M 69.41 272.083737 
L 450 272.083737 
" style="fill:none;stroke:#b0b0b0;stroke-dasharray:2.96,1.28;stroke-dashoffset:0;stroke-opacity:0.5;stroke-width:0.8;"/>
     </g>
     <g id="line2d_14">
      <defs>
       <path d="M 0 0 
L -3.5 0 
" id="m00be6f6549" style="stroke:#000000;stroke-width:0.8;"/>
      </defs>
      <g>
       <use style="stroke:#000000;stroke-width:0.8;" x="69.41" xlink:href="#m00be6f6549" y="272.083737"/>
      </g>
     </g>
     <g id="text_8">
      <!-- −2000 -->
      <g transform="translate(28.580313 275.882956)scale(0.1 -0.1)">
       <defs>
        <path d="M 678 2272 
L 4684 2272 
L 4684 1741 
L 678 1741 
L 678 2272 
z
" id="DejaVuSans-2212" transform="scale(0.015625)"/>
       </defs>
       <use xlink:href="#DejaVuSans-2212"/>
       <use x="83.789062" xlink:href="#DejaVuSans-32"/>
       <use x="147.412109" xlink:href="#DejaVuSans-30"/>
       <use x="211.035156" xlink:href="#DejaVuSans-30"/>
       <use x="274.658203" xlink:href="#DejaVuSans-30"/>
      </g>
     </g>
    </g>
    <g id="ytick_2">
     <g id="line2d_15">
      <path clip-path="url(#p3d6f53e74b)" d="M 69.41 239.922639 
L 450 239.922639 
" style="fill:none;stroke:#b0b0b0;stroke-dasharray:2.96,1.28;stroke-dashoffset:0;stroke-opacity:0.5;stroke-width:0.8;"/>
     </g>
     <g id="line2d_16">
      <g>
       <use style="stroke:#000000;stroke-width:0.8;" x="69.41" xlink:href="#m00be6f6549" y="239.922639"/>
      </g>
     </g>
     <g id="text_9">
      <!-- −1000 -->
      <g transform="translate(28.580313 243.721858)scale(0.1 -0.1)">
       <use xlink:href="#DejaVuSans-2212"/>
       <use x="83.789062" xlink:href="#DejaVuSans-31"/>
       <use x="147.412109" xlink:href="#DejaVuSans-30"/>
       <use x="211.035156" xlink:href="#DejaVuSans-30"/>
       <use x="274.658203" xlink:href="#DejaVuSans-30"/>
      </g>
     </g>
    </g>
    <g id="ytick_3">
     <g id="line2d_17">
      <path clip-path="url(#p3d6f53e74b)" d="M 69.41 207.761541 
L 450 207.761541 
" style="fill:none;stroke:#b0b0b0;stroke-dasharray:2.96,1.28;stroke-dashoffset:0;stroke-opacity:0.5;stroke-width:0.8;"/>
     </g>
     <g id="line2d_18">
      <g>
       <use style="stroke:#000000;stroke-width:0.8;" x="69.41" xlink:href="#m00be6f6549" y="207.761541"/>
      </g>
     </g>
     <g id="text_10">
      <!-- 0 -->
      <g transform="translate(56.0475 211.56076)scale(0.1 -0.1)">
       <use xlink:href="#DejaVuSans-30"/>
      </g>
     </g>
    </g>
    <g id="ytick_4">
     <g id="line2d_19">
      <path clip-path="url(#p3d6f53e74b)" d="M 69.41 175.600443 
L 450 175.600443 
" style="fill:none;stroke:#b0b0b0;stroke-dasharray:2.96,1.28;stroke-dashoffset:0;stroke-opacity:0.5;stroke-width:0.8;"/>
     </g>
     <g id="line2d_20">
      <g>
       <use style="stroke:#000000;stroke-width:0.8;" x="69.41" xlink:href="#m00be6f6549" y="175.600443"/>
      </g>
     </g>
     <g id="text_11">
      <!-- 1000 -->
      <g transform="translate(36.96 179.399662)scale(0.1 -0.1)">
       <use xlink:href="#DejaVuSans-31"/>
       <use x="63.623047" xlink:href="#DejaVuSans-30"/>
       <use x="127.246094" xlink:href="#DejaVuSans-30"/>
       <use x="190.869141" xlink:href="#DejaVuSans-30"/>
      </g>
     </g>
    </g>
    <g id="ytick_5">
     <g id="line2d_21">
      <path clip-path="url(#p3d6f53e74b)" d="M 69.41 143.439345 
L 450 143.439345 
" style="fill:none;stroke:#b0b0b0;stroke-dasharray:2.96,1.28;stroke-dashoffset:0;stroke-opacity:0.5;stroke-width:0.8;"/>
     </g>
     <g id="line2d_22">
      <g>
       <use style="stroke:#000000;stroke-width:0.8;" x="69.41" xlink:href="#m00be6f6549" y="143.439345"/>
      </g>
     </g>
     <g id="text_12">
      <!-- 2000 -->
      <g transform="translate(36.96 147.238564)scale(0.1 -0.1)">
       <use xlink:href="#DejaVuSans-32"/>
       <use x="63.623047" xlink:href="#DejaVuSans-30"/>
       <use x="127.246094" xlink:href="#DejaVuSans-30"/>
       <use x="190.869141" xlink:href="#DejaVuSans-30"/>
      </g>
     </g>
    </g>
    <g id="ytick_6">
     <g id="line2d_23">
      <path clip-path="url(#p3d6f53e74b)" d="M 69.41 111.278248 
L 450 111.278248 
" style="fill:none;stroke:#b0b0b0;stroke-dasharray:2.96,1.28;stroke-dashoffset:0;stroke-opacity:0.5;stroke-width:0.8;"/>
     </g>
     <g id="line2d_24">
      <g>
       <use style="stroke:#000000;stroke-width:0.8;" x="69.41" xlink:href="#m00be6f6549" y="111.278248"/>
      </g>
     </g>
     <g id="text_13">
      <!-- 3000 -->
      <g transform="translate(36.96 115.077466)scale(0.1 -0.1)">
       <defs>
        <path d="M 2597 2516 
Q 3050 2419 3304 2112 
Q 3559 1806 3559 1356 
Q 3559 666 3084 287 
Q 2609 -91 1734 -91 
Q 1441 -91 1130 -33 
Q 819 25 488 141 
L 488 750 
Q 750 597 1062 519 
Q 1375 441 1716 441 
Q 2309 441 2620 675 
Q 2931 909 2931 1356 
Q 2931 1769 2642 2001 
Q 2353 2234 1838 2234 
L 1294 2234 
L 1294 2753 
L 1863 2753 
Q 2328 2753 2575 2939 
Q 2822 3125 2822 3475 
Q 2822 3834 2567 4026 
Q 2313 4219 1838 4219 
Q 1578 4219 1281 4162 
Q 984 4106 628 3988 
L 628 4550 
Q 988 4650 1302 4700 
Q 1616 4750 1894 4750 
Q 2613 4750 3031 4423 
Q 3450 4097 3450 3541 
Q 3450 3153 3228 2886 
Q 3006 2619 2597 2516 
z
" id="DejaVuSans-33" transform="scale(0.015625)"/>
       </defs>
       <use xlink:href="#DejaVuSans-33"/>
       <use x="63.623047" xlink:href="#DejaVuSans-30"/>
       <use x="127.246094" xlink:href="#DejaVuSans-30"/>
       <use x="190.869141" xlink:href="#DejaVuSans-30"/>
      </g>
     </g>
    </g>
    <g id="ytick_7">
     <g id="line2d_25">
      <path clip-path="url(#p3d6f53e74b)" d="M 69.41 79.11715 
L 450 79.11715 
" style="fill:none;stroke:#b0b0b0;stroke-dasharray:2.96,1.28;stroke-dashoffset:0;stroke-opacity:0.5;stroke-width:0.8;"/>
     </g>
     <g id="line2d_26">
      <g>
       <use style="stroke:#000000;stroke-width:0.8;" x="69.41" xlink:href="#m00be6f6549" y="79.11715"/>
      </g>
     </g>
     <g id="text_14">
      <!-- 4000 -->
      <g transform="translate(36.96 82.916368)scale(0.1 -0.1)">
       <use xlink:href="#DejaVuSans-34"/>
       <use x="63.623047" xlink:href="#DejaVuSans-30"/>
       <use x="127.246094" xlink:href="#DejaVuSans-30"/>
       <use x="190.869141" xlink:href="#DejaVuSans-30"/>
      </g>
     </g>
    </g>
    <g id="ytick_8">
     <g id="line2d_27">
      <path clip-path="url(#p3d6f53e74b)" d="M 69.41 46.956052 
L 450 46.956052 
" style="fill:none;stroke:#b0b0b0;stroke-dasharray:2.96,1.28;stroke-dashoffset:0;stroke-opacity:0.5;stroke-width:0.8;"/>
     </g>
     <g id="line2d_28">
      <g>
       <use style="stroke:#000000;stroke-width:0.8;" x="69.41" xlink:href="#m00be6f6549" y="46.956052"/>
      </g>
     </g>
     <g id="text_15">
      <!-- 5000 -->
      <g transform="translate(36.96 50.755271)scale(0.1 -0.1)">
       <defs>
        <path d="M 691 4666 
L 3169 4666 
L 3169 4134 
L 1269 4134 
L 1269 2991 
Q 1406 3038 1543 3061 
Q 1681 3084 1819 3084 
Q 2600 3084 3056 2656 
Q 3513 2228 3513 1497 
Q 3513 744 3044 326 
Q 2575 -91 1722 -91 
Q 1428 -91 1123 -41 
Q 819 9 494 109 
L 494 744 
Q 775 591 1075 516 
Q 1375 441 1709 441 
Q 2250 441 2565 725 
Q 2881 1009 2881 1497 
Q 2881 1984 2565 2268 
Q 2250 2553 1709 2553 
Q 1456 2553 1204 2497 
Q 953 2441 691 2322 
L 691 4666 
z
" id="DejaVuSans-35" transform="scale(0.015625)"/>
       </defs>
       <use xlink:href="#DejaVuSans-35"/>
       <use x="63.623047" xlink:href="#DejaVuSans-30"/>
       <use x="127.246094" xlink:href="#DejaVuSans-30"/>
       <use x="190.869141" xlink:href="#DejaVuSans-30"/>
      </g>
     </g>
    </g>
    <g id="ytick_9">
     <g id="line2d_29">
      <path clip-path="url(#p3d6f53e74b)" d="M 69.41 14.794954 
L 450 14.794954 
" style="fill:none;stroke:#b0b0b0;stroke-dasharray:2.96,1.28;stroke-dashoffset:0;stroke-opacity:0.5;stroke-width:0.8;"/>
     </g>
     <g id="line2d_30">
      <g>
       <use style="stroke:#000000;stroke-width:0.8;" x="69.41" xlink:href="#m00be6f6549" y="14.794954"/>
      </g>
     </g>
     <g id="text_16">
      <!-- 6000 -->
      <g transform="translate(36.96 18.594173)scale(0.1 -0.1)">
       <use xlink:href="#DejaVuSans-36"/>
       <use x="63.623047" xlink:href="#DejaVuSans-30"/>
       <use x="127.246094" xlink:href="#DejaVuSans-30"/>
       <use x="190.869141" xlink:href="#DejaVuSans-30"/>
      </g>
     </g>
    </g>
    <g id="text_17">
     <!-- sectional thrust per unit span (N/m) -->
     <g transform="translate(21.66875 282.499309)rotate(-90)scale(0.14 -0.14)">
      <defs>
       <path d="M 2834 3397 
L 2834 2853 
Q 2591 2978 2328 3040 
Q 2066 3103 1784 3103 
Q 1356 3103 1142 2972 
Q 928 2841 928 2578 
Q 928 2378 1081 2264 
Q 1234 2150 1697 2047 
L 1894 2003 
Q 2506 1872 2764 1633 
Q 3022 1394 3022 966 
Q 3022 478 2636 193 
Q 2250 -91 1575 -91 
Q 1294 -91 989 -36 
Q 684 19 347 128 
L 347 722 
Q 666 556 975 473 
Q 1284 391 1588 391 
Q 1994 391 2212 530 
Q 2431 669 2431 922 
Q 2431 1156 2273 1281 
Q 2116 1406 1581 1522 
L 1381 1569 
Q 847 1681 609 1914 
Q 372 2147 372 2553 
Q 372 3047 722 3315 
Q 1072 3584 1716 3584 
Q 2034 3584 2315 3537 
Q 2597 3491 2834 3397 
z
" id="DejaVuSans-73" transform="scale(0.015625)"/>
       <path d="M 3597 1894 
L 3597 1613 
L 953 1613 
Q 991 1019 1311 708 
Q 1631 397 2203 397 
Q 2534 397 2845 478 
Q 3156 559 3463 722 
L 3463 178 
Q 3153 47 2828 -22 
Q 2503 -91 2169 -91 
Q 1331 -91 842 396 
Q 353 884 353 1716 
Q 353 2575 817 3079 
Q 1281 3584 2069 3584 
Q 2775 3584 3186 3129 
Q 3597 2675 3597 1894 
z
M 3022 2063 
Q 3016 2534 2758 2815 
Q 2500 3097 2075 3097 
Q 1594 3097 1305 2825 
Q 1016 2553 972 2059 
L 3022 2063 
z
" id="DejaVuSans-65" transform="scale(0.015625)"/>
       <path d="M 3122 3366 
L 3122 2828 
Q 2878 2963 2633 3030 
Q 2388 3097 2138 3097 
Q 1578 3097 1268 2742 
Q 959 2388 959 1747 
Q 959 1106 1268 751 
Q 1578 397 2138 397 
Q 2388 397 2633 464 
Q 2878 531 3122 666 
L 3122 134 
Q 2881 22 2623 -34 
Q 2366 -91 2075 -91 
Q 1284 -91 818 406 
Q 353 903 353 1747 
Q 353 2603 823 3093 
Q 1294 3584 2113 3584 
Q 2378 3584 2631 3529 
Q 2884 3475 3122 3366 
z
" id="DejaVuSans-63" transform="scale(0.015625)"/>
       <path d="M 1172 4494 
L 1172 3500 
L 2356 3500 
L 2356 3053 
L 1172 3053 
L 1172 1153 
Q 1172 725 1289 603 
Q 1406 481 1766 481 
L 2356 481 
L 2356 0 
L 1766 0 
Q 1100 0 847 248 
Q 594 497 594 1153 
L 594 3053 
L 172 3053 
L 172 3500 
L 594 3500 
L 594 4494 
L 1172 4494 
z
" id="DejaVuSans-74" transform="scale(0.015625)"/>
       <path d="M 603 3500 
L 1178 3500 
L 1178 0 
L 603 0 
L 603 3500 
z
M 603 4863 
L 1178 4863 
L 1178 4134 
L 603 4134 
L 603 4863 
z
" id="DejaVuSans-69" transform="scale(0.015625)"/>
       <path d="M 1959 3097 
Q 1497 3097 1228 2736 
Q 959 2375 959 1747 
Q 959 1119 1226 758 
Q 1494 397 1959 397 
Q 2419 397 2687 759 
Q 2956 1122 2956 1747 
Q 2956 2369 2687 2733 
Q 2419 3097 1959 3097 
z
M 1959 3584 
Q 2709 3584 3137 3096 
Q 3566 2609 3566 1747 
Q 3566 888 3137 398 
Q 2709 -91 1959 -91 
Q 1206 -91 779 398 
Q 353 888 353 1747 
Q 353 2609 779 3096 
Q 1206 3584 1959 3584 
z
" id="DejaVuSans-6f" transform="scale(0.015625)"/>
       <path d="M 3513 2113 
L 3513 0 
L 2938 0 
L 2938 2094 
Q 2938 2591 2744 2837 
Q 2550 3084 2163 3084 
Q 1697 3084 1428 2787 
Q 1159 2491 1159 1978 
L 1159 0 
L 581 0 
L 581 3500 
L 1159 3500 
L 1159 2956 
Q 1366 3272 1645 3428 
Q 1925 3584 2291 3584 
Q 2894 3584 3203 3211 
Q 3513 2838 3513 2113 
z
" id="DejaVuSans-6e" transform="scale(0.015625)"/>
       <path d="M 2194 1759 
Q 1497 1759 1228 1600 
Q 959 1441 959 1056 
Q 959 750 1161 570 
Q 1363 391 1709 391 
Q 2188 391 2477 730 
Q 2766 1069 2766 1631 
L 2766 1759 
L 2194 1759 
z
M 3341 1997 
L 3341 0 
L 2766 0 
L 2766 531 
Q 2569 213 2275 61 
Q 1981 -91 1556 -91 
Q 1019 -91 701 211 
Q 384 513 384 1019 
Q 384 1609 779 1909 
Q 1175 2209 1959 2209 
L 2766 2209 
L 2766 2266 
Q 2766 2663 2505 2880 
Q 2244 3097 1772 3097 
Q 1472 3097 1187 3025 
Q 903 2953 641 2809 
L 641 3341 
Q 956 3463 1253 3523 
Q 1550 3584 1831 3584 
Q 2591 3584 2966 3190 
Q 3341 2797 3341 1997 
z
" id="DejaVuSans-61" transform="scale(0.015625)"/>
       <path d="M 603 4863 
L 1178 4863 
L 1178 0 
L 603 0 
L 603 4863 
z
" id="DejaVuSans-6c" transform="scale(0.015625)"/>
       <path id="DejaVuSans-20" transform="scale(0.015625)"/>
       <path d="M 3513 2113 
L 3513 0 
L 2938 0 
L 2938 2094 
Q 2938 2591 2744 2837 
Q 2550 3084 2163 3084 
Q 1697 3084 1428 2787 
Q 1159 2491 1159 1978 
L 1159 0 
L 581 0 
L 581 4863 
L 1159 4863 
L 1159 2956 
Q 1366 3272 1645 3428 
Q 1925 3584 2291 3584 
Q 2894 3584 3203 3211 
Q 3513 2838 3513 2113 
z
" id="DejaVuSans-68" transform="scale(0.015625)"/>
       <path d="M 544 1381 
L 544 3500 
L 1119 3500 
L 1119 1403 
Q 1119 906 1312 657 
Q 1506 409 1894 409 
Q 2359 409 2629 706 
Q 2900 1003 2900 1516 
L 2900 3500 
L 3475 3500 
L 3475 0 
L 2900 0 
L 2900 538 
Q 2691 219 2414 64 
Q 2138 -91 1772 -91 
Q 1169 -91 856 284 
Q 544 659 544 1381 
z
M 1991 3584 
L 1991 3584 
z
" id="DejaVuSans-75" transform="scale(0.015625)"/>
       <path d="M 1159 525 
L 1159 -1331 
L 581 -1331 
L 581 3500 
L 1159 3500 
L 1159 2969 
Q 1341 3281 1617 3432 
Q 1894 3584 2278 3584 
Q 2916 3584 3314 3078 
Q 3713 2572 3713 1747 
Q 3713 922 3314 415 
Q 2916 -91 2278 -91 
Q 1894 -91 1617 61 
Q 1341 213 1159 525 
z
M 3116 1747 
Q 3116 2381 2855 2742 
Q 2594 3103 2138 3103 
Q 1681 3103 1420 2742 
Q 1159 2381 1159 1747 
Q 1159 1113 1420 752 
Q 1681 391 2138 391 
Q 2594 391 2855 752 
Q 3116 1113 3116 1747 
z
" id="DejaVuSans-70" transform="scale(0.015625)"/>
       <path d="M 1984 4856 
Q 1566 4138 1362 3434 
Q 1159 2731 1159 2009 
Q 1159 1288 1364 580 
Q 1569 -128 1984 -844 
L 1484 -844 
Q 1016 -109 783 600 
Q 550 1309 550 2009 
Q 550 2706 781 3412 
Q 1013 4119 1484 4856 
L 1984 4856 
z
" id="DejaVuSans-28" transform="scale(0.015625)"/>
       <path d="M 628 4666 
L 1478 4666 
L 3547 763 
L 3547 4666 
L 4159 4666 
L 4159 0 
L 3309 0 
L 1241 3903 
L 1241 0 
L 628 0 
L 628 4666 
z
" id="DejaVuSans-4e" transform="scale(0.015625)"/>
       <path d="M 3328 2828 
Q 3544 3216 3844 3400 
Q 4144 3584 4550 3584 
Q 5097 3584 5394 3201 
Q 5691 2819 5691 2113 
L 5691 0 
L 5113 0 
L 5113 2094 
Q 5113 2597 4934 2840 
Q 4756 3084 4391 3084 
Q 3944 3084 3684 2787 
Q 3425 2491 3425 1978 
L 3425 0 
L 2847 0 
L 2847 2094 
Q 2847 2600 2669 2842 
Q 2491 3084 2119 3084 
Q 1678 3084 1418 2786 
Q 1159 2488 1159 1978 
L 1159 0 
L 581 0 
L 581 3500 
L 1159 3500 
L 1159 2956 
Q 1356 3278 1631 3431 
Q 1906 3584 2284 3584 
Q 2666 3584 2933 3390 
Q 3200 3197 3328 2828 
z
" id="DejaVuSans-6d" transform="scale(0.015625)"/>
       <path d="M 513 4856 
L 1013 4856 
Q 1481 4119 1714 3412 
Q 1947 2706 1947 2009 
Q 1947 1309 1714 600 
Q 1481 -109 1013 -844 
L 513 -844 
Q 928 -128 1133 580 
Q 1338 1288 1338 2009 
Q 1338 2731 1133 3434 
Q 928 4138 513 4856 
z
" id="DejaVuSans-29" transform="scale(0.015625)"/>
      </defs>
      <use xlink:href="#DejaVuSans-73"/>
      <use x="52.099609" xlink:href="#DejaVuSans-65"/>
      <use x="113.623047" xlink:href="#DejaVuSans-63"/>
      <use x="168.603516" xlink:href="#DejaVuSans-74"/>
      <use x="207.8125" xlink:href="#DejaVuSans-69"/>
      <use x="235.595703" xlink:href="#DejaVuSans-6f"/>
      <use x="296.777344" xlink:href="#DejaVuSans-6e"/>
      <use x="360.15625" xlink:href="#DejaVuSans-61"/>
      <use x="421.435547" xlink:href="#DejaVuSans-6c"/>
      <use x="449.21875" xlink:href="#DejaVuSans-20"/>
      <use x="481.005859" xlink:href="#DejaVuSans-74"/>
      <use x="520.214844" xlink:href="#DejaVuSans-68"/>
      <use x="583.59375" xlink:href="#DejaVuSans-72"/>
      <use x="624.707031" xlink:href="#DejaVuSans-75"/>
      <use x="688.085938" xlink:href="#DejaVuSans-73"/>
      <use x="740.185547" xlink:href="#DejaVuSans-74"/>
      <use x="779.394531" xlink:href="#DejaVuSans-20"/>
      <use x="811.181641" xlink:href="#DejaVuSans-70"/>
      <use x="874.658203" xlink:href="#DejaVuSans-65"/>
      <use x="936.181641" xlink:href="#DejaVuSans-72"/>
      <use x="977.294922" xlink:href="#DejaVuSans-20"/>
      <use x="1009.082031" xlink:href="#DejaVuSans-75"/>
      <use x="1072.460938" xlink:href="#DejaVuSans-6e"/>
      <use x="1135.839844" xlink:href="#DejaVuSans-69"/>
      <use x="1163.623047" xlink:href="#DejaVuSans-74"/>
      <use x="1202.832031" xlink:href="#DejaVuSans-20"/>
      <use x="1234.619141" xlink:href="#DejaVuSans-73"/>
      <use x="1286.71875" xlink:href="#DejaVuSans-70"/>
      <use x="1350.195312" xlink:href="#DejaVuSans-61"/>
      <use x="1411.474609" xlink:href="#DejaVuSans-6e"/>
      <use x="1474.853516" xlink:href="#DejaVuSans-20"/>
      <use x="1506.640625" xlink:href="#DejaVuSans-28"/>
      <use x="1545.654297" xlink:href="#DejaVuSans-4e"/>
      <use x="1620.458984" xlink:href="#DejaVuSans-2f"/>
      <use x="1654.150391" xlink:href="#DejaVuSans-6d"/>
      <use x="1751.5625" xlink:href="#DejaVuSans-29"/>
     </g>
    </g>
   </g>
   <g id="line2d_31">
    <path clip-path="url(#p3d6f53e74b)" d="M 118.479693 204.17293 
L 119.110658 203.295604 
L 119.741623 202.71606 
L 121.003554 202.031222 
L 135.515758 195.198461 
L 142.456377 191.633509 
L 172.11175 175.510866 
L 174.004647 174.39028 
L 182.207197 169.104107 
L 184.731058 167.705836 
L 187.25492 166.692884 
L 195.45747 163.891607 
L 199.874227 161.987169 
L 203.029054 160.436772 
L 205.552916 158.940571 
L 212.493535 154.745739 
L 216.910293 152.436934 
L 221.32705 150.185779 
L 249.720493 134.094334 
L 254.137251 131.442748 
L 257.923043 128.952192 
L 263.601731 125.258953 
L 268.649454 122.233903 
L 277.48297 116.938252 
L 287.578416 111.23134 
L 294.519035 107.58646 
L 300.828689 104.528247 
L 309.662204 100.603126 
L 317.233789 97.649967 
L 322.912478 95.680186 
L 326.69827 94.529808 
L 329.853097 93.590697 
L 335.531785 92.184651 
L 338.055647 91.621514 
L 339.317578 91.351605 
L 343.10337 91.049871 
L 348.782058 91.225581 
L 353.198816 91.301739 
L 355.091712 91.502311 
L 356.353643 91.375675 
L 362.032331 91.916908 
L 363.925228 92.207235 
L 365.818124 92.205851 
L 368.341985 92.227228 
L 370.865847 92.046627 
L 371.496812 92.022142 
L 372.758743 91.687793 
L 375.282604 90.510719 
L 377.175501 89.143856 
L 378.437431 88.011817 
L 379.699362 86.66307 
L 380.961293 85.02249 
L 382.854189 82.028543 
L 384.747085 78.458513 
L 386.639981 74.310203 
L 388.532878 69.644137 
L 391.056739 62.782873 
L 398.628324 41.541305 
L 400.52122 37.037338 
L 402.414116 33.243911 
L 403.676047 31.169209 
L 404.937978 29.506361 
L 406.199908 28.284159 
L 406.830874 27.842387 
L 408.092805 27.348489 
L 408.72377 27.275229 
L 409.985701 27.497664 
L 410.616666 27.808739 
L 411.878597 28.77822 
L 413.140528 30.267626 
L 414.402458 32.253796 
L 415.664389 34.721794 
L 416.92632 37.638426 
L 418.188251 40.996515 
L 420.081147 46.933249 
L 421.974043 53.818218 
L 423.866939 61.621864 
L 426.390801 73.288667 
L 428.283697 81.952451 
L 428.914662 83.539644 
L 429.545628 82.110098 
L 430.176593 73.464186 
L 430.807558 53.058571 
L 431.438524 40.567383 
L 432.069489 58.494554 
L 432.700455 287.051201 
L 432.700455 287.051201 
" style="fill:none;stroke:#ff0000;stroke-linecap:square;stroke-width:1.5;"/>
   </g>
   <g id="line2d_32">
    <path clip-path="url(#p3d6f53e74b)" d="M 86.709545 207.761541 
L 104.919593 207.648639 
L 123.129641 202.944082 
L 141.339689 195.098428 
L 159.549737 185.34562 
L 177.759785 173.772221 
L 195.969833 160.072501 
L 214.17988 146.41234 
L 232.389928 135.09561 
L 250.599976 127.842046 
L 268.810024 122.662492 
L 287.020072 113.433379 
L 305.23012 105.542377 
L 323.440167 100.228594 
L 341.650215 99.369601 
L 359.860263 105.168757 
L 378.070311 107.667021 
L 396.280359 85.95057 
L 414.490407 61.373124 
L 432.700455 162.416482 
" style="fill:none;stroke:#2ca02c;stroke-dasharray:5.55,2.4;stroke-dashoffset:0;stroke-width:1.5;"/>
    <defs>
     <path d="M 0 3 
C 0.795609 3 1.55874 2.683901 2.12132 2.12132 
C 2.683901 1.55874 3 0.795609 3 0 
C 3 -0.795609 2.683901 -1.55874 2.12132 -2.12132 
C 1.55874 -2.683901 0.795609 -3 0 -3 
C -0.795609 -3 -1.55874 -2.683901 -2.12132 -2.12132 
C -2.683901 -1.55874 -3 -0.795609 -3 0 
C -3 0.795609 -2.683901 1.55874 -2.12132 2.12132 
C -1.55874 2.683901 -0.795609 3 0 3 
z
" id="mbb2d8cee56" style="stroke:#2ca02c;"/>
    </defs>
    <g clip-path="url(#p3d6f53e74b)">
     <use style="fill:#2ca02c;stroke:#2ca02c;" x="86.709545" xlink:href="#mbb2d8cee56" y="207.761541"/>
     <use style="fill:#2ca02c;stroke:#2ca02c;" x="104.919593" xlink:href="#mbb2d8cee56" y="207.648639"/>
     <use style="fill:#2ca02c;stroke:#2ca02c;" x="123.129641" xlink:href="#mbb2d8cee56" y="202.944082"/>
     <use style="fill:#2ca02c;stroke:#2ca02c;" x="141.339689" xlink:href="#mbb2d8cee56" y="195.098428"/>
     <use style="fill:#2ca02c;stroke:#2ca02c;" x="159.549737" xlink:href="#mbb2d8cee56" y="185.34562"/>
     <use style="fill:#2ca02c;stroke:#2ca02c;" x="177.759785" xlink:href="#mbb2d8cee56" y="173.772221"/>
     <use style="fill:#2ca02c;stroke:#2ca02c;" x="195.969833" xlink:href="#mbb2d8cee56" y="160.072501"/>
     <use style="fill:#2ca02c;stroke:#2ca02c;" x="214.17988" xlink:href="#mbb2d8cee56" y="146.41234"/>
     <use style="fill:#2ca02c;stroke:#2ca02c;" x="232.389928" xlink:href="#mbb2d8cee56" y="135.09561"/>
     <use style="fill:#2ca02c;stroke:#2ca02c;" x="250.599976" xlink:href="#mbb2d8cee56" y="127.842046"/>
     <use style="fill:#2ca02c;stroke:#2ca02c;" x="268.810024" xlink:href="#mbb2d8cee56" y="122.662492"/>
     <use style="fill:#2ca02c;stroke:#2ca02c;" x="287.020072" xlink:href="#mbb2d8cee56" y="113.433379"/>
     <use style="fill:#2ca02c;stroke:#2ca02c;" x="305.23012" xlink:href="#mbb2d8cee56" y="105.542377"/>
     <use style="fill:#2ca02c;stroke:#2ca02c;" x="323.440167" xlink:href="#mbb2d8cee56" y="100.228594"/>
     <use style="fill:#2ca02c;stroke:#2ca02c;" x="341.650215" xlink:href="#mbb2d8cee56" y="99.369601"/>
     <use style="fill:#2ca02c;stroke:#2ca02c;" x="359.860263" xlink:href="#mbb2d8cee56" y="105.168757"/>
     <use style="fill:#2ca02c;stroke:#2ca02c;" x="378.070311" xlink:href="#mbb2d8cee56" y="107.667021"/>
     <use style="fill:#2ca02c;stroke:#2ca02c;" x="396.280359" xlink:href="#mbb2d8cee56" y="85.95057"/>
     <use style="fill:#2ca02c;stroke:#2ca02c;" x="414.490407" xlink:href="#mbb2d8cee56" y="61.373124"/>
     <use style="fill:#2ca02c;stroke:#2ca02c;" x="432.700455" xlink:href="#mbb2d8cee56" y="162.416482"/>
    </g>
   </g>
   <g id="patch_3">
    <path d="M 69.41 300.04 
L 69.41 14.28643 
" style="fill:none;stroke:#000000;stroke-linecap:square;stroke-linejoin:miter;stroke-width:0.8;"/>
   </g>
   <g id="patch_4">
    <path d="M 450 300.04 
L 450 14.28643 
" style="fill:none;stroke:#000000;stroke-linecap:square;stroke-linejoin:miter;stroke-width:0.8;"/>
   </g>
   <g id="patch_5">
    <path d="M 69.41 300.04 
L 450 300.04 
" style="fill:none;stroke:#000000;stroke-linecap:square;stroke-linejoin:miter;stroke-width:0.8;"/>
   </g>
   <g id="patch_6">
    <path d="M 69.41 14.28643 
L 450 14.28643 
" style="fill:none;stroke:#000000;stroke-linecap:square;stroke-linejoin:miter;stroke-width:0.8;"/>
   </g>
   <g id="legend_1">
    <g id="patch_7">
     <path d="M 76.41 52.08643 
L 324.51 52.08643 
Q 326.51 52.08643 326.51 50.08643 
L 326.51 21.28643 
Q 326.51 19.28643 324.51 19.28643 
L 76.41 19.28643 
Q 74.41 19.28643 74.41 21.28643 
L 74.41 50.08643 
Q 74.41 52.08643 76.41 52.08643 
z
" style="fill:#ffffff;opacity:0.8;stroke:#cccccc;stroke-linejoin:miter;"/>
    </g>
    <g id="line2d_33">
     <path d="M 78.41 27.58643 
L 98.41 27.58643 
" style="fill:none;stroke:#ff0000;stroke-linecap:square;stroke-width:1.5;"/>
    </g>
    <g id="line2d_34"/>
    <g id="text_18">
     <!-- Flow360, high fidelity (unsteady), $\theta_{75}=10^o$ -->
     <g transform="translate(106.41 31.08643)scale(0.1 -0.1)">
      <defs>
       <path d="M 628 4666 
L 3309 4666 
L 3309 4134 
L 1259 4134 
L 1259 2759 
L 3109 2759 
L 3109 2228 
L 1259 2228 
L 1259 0 
L 628 0 
L 628 4666 
z
" id="DejaVuSans-46" transform="scale(0.015625)"/>
       <path d="M 269 3500 
L 844 3500 
L 1563 769 
L 2278 3500 
L 2956 3500 
L 3675 769 
L 4391 3500 
L 4966 3500 
L 4050 0 
L 3372 0 
L 2619 2869 
L 1863 0 
L 1184 0 
L 269 3500 
z
" id="DejaVuSans-77" transform="scale(0.015625)"/>
       <path d="M 750 794 
L 1409 794 
L 1409 256 
L 897 -744 
L 494 -744 
L 750 256 
L 750 794 
z
" id="DejaVuSans-2c" transform="scale(0.015625)"/>
       <path d="M 2906 1791 
Q 2906 2416 2648 2759 
Q 2391 3103 1925 3103 
Q 1463 3103 1205 2759 
Q 947 2416 947 1791 
Q 947 1169 1205 825 
Q 1463 481 1925 481 
Q 2391 481 2648 825 
Q 2906 1169 2906 1791 
z
M 3481 434 
Q 3481 -459 3084 -895 
Q 2688 -1331 1869 -1331 
Q 1566 -1331 1297 -1286 
Q 1028 -1241 775 -1147 
L 775 -588 
Q 1028 -725 1275 -790 
Q 1522 -856 1778 -856 
Q 2344 -856 2625 -561 
Q 2906 -266 2906 331 
L 2906 616 
Q 2728 306 2450 153 
Q 2172 0 1784 0 
Q 1141 0 747 490 
Q 353 981 353 1791 
Q 353 2603 747 3093 
Q 1141 3584 1784 3584 
Q 2172 3584 2450 3431 
Q 2728 3278 2906 2969 
L 2906 3500 
L 3481 3500 
L 3481 434 
z
" id="DejaVuSans-67" transform="scale(0.015625)"/>
       <path d="M 2375 4863 
L 2375 4384 
L 1825 4384 
Q 1516 4384 1395 4259 
Q 1275 4134 1275 3809 
L 1275 3500 
L 2222 3500 
L 2222 3053 
L 1275 3053 
L 1275 0 
L 697 0 
L 697 3053 
L 147 3053 
L 147 3500 
L 697 3500 
L 697 3744 
Q 697 4328 969 4595 
Q 1241 4863 1831 4863 
L 2375 4863 
z
" id="DejaVuSans-66" transform="scale(0.015625)"/>
       <path d="M 2906 2969 
L 2906 4863 
L 3481 4863 
L 3481 0 
L 2906 0 
L 2906 525 
Q 2725 213 2448 61 
Q 2172 -91 1784 -91 
Q 1150 -91 751 415 
Q 353 922 353 1747 
Q 353 2572 751 3078 
Q 1150 3584 1784 3584 
Q 2172 3584 2448 3432 
Q 2725 3281 2906 2969 
z
M 947 1747 
Q 947 1113 1208 752 
Q 1469 391 1925 391 
Q 2381 391 2643 752 
Q 2906 1113 2906 1747 
Q 2906 2381 2643 2742 
Q 2381 3103 1925 3103 
Q 1469 3103 1208 2742 
Q 947 2381 947 1747 
z
" id="DejaVuSans-64" transform="scale(0.015625)"/>
       <path d="M 2059 -325 
Q 1816 -950 1584 -1140 
Q 1353 -1331 966 -1331 
L 506 -1331 
L 506 -850 
L 844 -850 
Q 1081 -850 1212 -737 
Q 1344 -625 1503 -206 
L 1606 56 
L 191 3500 
L 800 3500 
L 1894 763 
L 2988 3500 
L 3597 3500 
L 2059 -325 
z
" id="DejaVuSans-79" transform="scale(0.015625)"/>
       <path d="M 2913 2219 
L 925 2219 
Q 791 1284 928 888 
Q 1100 400 1566 400 
Q 2034 400 2391 891 
Q 2703 1322 2913 2219 
z
M 3009 2750 
Q 3094 3638 2984 3950 
Q 2813 4444 2353 4444 
Q 1875 4444 1525 3956 
Q 1250 3563 1034 2750 
L 3009 2750 
z
M 2444 4913 
Q 3194 4913 3494 4250 
Q 3794 3591 3566 2422 
Q 3341 1256 2781 594 
Q 2225 -72 1475 -72 
Q 722 -72 425 594 
Q 128 1256 353 2422 
Q 581 3591 1134 4250 
Q 1691 4913 2444 4913 
z
" id="DejaVuSans-Oblique-3b8" transform="scale(0.015625)"/>
       <path d="M 525 4666 
L 3525 4666 
L 3525 4397 
L 1831 0 
L 1172 0 
L 2766 4134 
L 525 4134 
L 525 4666 
z
" id="DejaVuSans-37" transform="scale(0.015625)"/>
       <path d="M 678 2906 
L 4684 2906 
L 4684 2381 
L 678 2381 
L 678 2906 
z
M 678 1631 
L 4684 1631 
L 4684 1100 
L 678 1100 
L 678 1631 
z
" id="DejaVuSans-3d" transform="scale(0.015625)"/>
       <path d="M 1625 -91 
Q 1009 -91 651 289 
Q 294 669 294 1325 
Q 294 1706 417 2101 
Q 541 2497 738 2766 
Q 1047 3184 1428 3384 
Q 1809 3584 2291 3584 
Q 2888 3584 3255 3212 
Q 3622 2841 3622 2241 
Q 3622 1825 3500 1412 
Q 3378 1000 3181 728 
Q 2875 309 2494 109 
Q 2113 -91 1625 -91 
z
M 891 1344 
Q 891 869 1089 633 
Q 1288 397 1691 397 
Q 2269 397 2648 901 
Q 3028 1406 3028 2181 
Q 3028 2634 2825 2865 
Q 2622 3097 2228 3097 
Q 1903 3097 1650 2945 
Q 1397 2794 1197 2484 
Q 1050 2253 970 1956 
Q 891 1659 891 1344 
z
" id="DejaVuSans-Oblique-6f" transform="scale(0.015625)"/>
      </defs>
      <use transform="translate(0 0.51875)" xlink:href="#DejaVuSans-46"/>
      <use transform="translate(57.519531 0.51875)" xlink:href="#DejaVuSans-6c"/>
      <use transform="translate(85.302734 0.51875)" xlink:href="#DejaVuSans-6f"/>
      <use transform="translate(146.484375 0.51875)" xlink:href="#DejaVuSans-77"/>
      <use transform="translate(228.271484 0.51875)" xlink:href="#DejaVuSans-33"/>
      <use transform="translate(291.894531 0.51875)" xlink:href="#DejaVuSans-36"/>
      <use transform="translate(355.517578 0.51875)" xlink:href="#DejaVuSans-30"/>
      <use transform="translate(419.140625 0.51875)" xlink:href="#DejaVuSans-2c"/>
      <use transform="translate(450.927734 0.51875)" xlink:href="#DejaVuSans-20"/>
      <use transform="translate(482.714844 0.51875)" xlink:href="#DejaVuSans-68"/>
      <use transform="translate(546.09375 0.51875)" xlink:href="#DejaVuSans-69"/>
      <use transform="translate(573.876953 0.51875)" xlink:href="#DejaVuSans-67"/>
      <use transform="translate(637.353516 0.51875)" xlink:href="#DejaVuSans-68"/>
      <use transform="translate(700.732422 0.51875)" xlink:href="#DejaVuSans-20"/>
      <use transform="translate(732.519531 0.51875)" xlink:href="#DejaVuSans-66"/>
      <use transform="translate(767.724609 0.51875)" xlink:href="#DejaVuSans-69"/>
      <use transform="translate(795.507812 0.51875)" xlink:href="#DejaVuSans-64"/>
      <use transform="translate(858.984375 0.51875)" xlink:href="#DejaVuSans-65"/>
      <use transform="translate(920.507812 0.51875)" xlink:href="#DejaVuSans-6c"/>
      <use transform="translate(948.291016 0.51875)" xlink:href="#DejaVuSans-69"/>
      <use transform="translate(976.074219 0.51875)" xlink:href="#DejaVuSans-74"/>
      <use transform="translate(1015.283203 0.51875)" xlink:href="#DejaVuSans-79"/>
      <use transform="translate(1074.462891 0.51875)" xlink:href="#DejaVuSans-20"/>
      <use transform="translate(1106.25 0.51875)" xlink:href="#DejaVuSans-28"/>
      <use transform="translate(1145.263672 0.51875)" xlink:href="#DejaVuSans-75"/>
      <use transform="translate(1208.642578 0.51875)" xlink:href="#DejaVuSans-6e"/>
      <use transform="translate(1272.021484 0.51875)" xlink:href="#DejaVuSans-73"/>
      <use transform="translate(1324.121094 0.51875)" xlink:href="#DejaVuSans-74"/>
      <use transform="translate(1363.330078 0.51875)" xlink:href="#DejaVuSans-65"/>
      <use transform="translate(1424.853516 0.51875)" xlink:href="#DejaVuSans-61"/>
      <use transform="translate(1486.132812 0.51875)" xlink:href="#DejaVuSans-64"/>
      <use transform="translate(1549.609375 0.51875)" xlink:href="#DejaVuSans-79"/>
      <use transform="translate(1608.789062 0.51875)" xlink:href="#DejaVuSans-29"/>
      <use transform="translate(1647.802734 0.51875)" xlink:href="#DejaVuSans-2c"/>
      <use transform="translate(1679.589844 0.51875)" xlink:href="#DejaVuSans-20"/>
      <use transform="translate(1711.376953 0.51875)" xlink:href="#DejaVuSans-Oblique-3b8"/>
      <use transform="translate(1772.558594 -15.8875)scale(0.7)" xlink:href="#DejaVuSans-37"/>
      <use transform="translate(1817.094727 -15.8875)scale(0.7)" xlink:href="#DejaVuSans-35"/>
      <use transform="translate(1883.847656 0.51875)" xlink:href="#DejaVuSans-3d"/>
      <use transform="translate(1987.119141 0.51875)" xlink:href="#DejaVuSans-31"/>
      <use transform="translate(2050.742188 0.51875)" xlink:href="#DejaVuSans-30"/>
      <use transform="translate(2115.322266 38.8)scale(0.7)" xlink:href="#DejaVuSans-Oblique-6f"/>
     </g>
    </g>
    <g id="line2d_35">
     <path d="M 78.41 42.48643 
L 98.41 42.48643 
" style="fill:none;stroke:#2ca02c;stroke-dasharray:5.55,2.4;stroke-dashoffset:0;stroke-width:1.5;"/>
    </g>
    <g id="line2d_36">
     <g>
      <use style="fill:#2ca02c;stroke:#2ca02c;" x="88.41" xlink:href="#mbb2d8cee56" y="42.48643"/>
     </g>
    </g>
    <g id="text_19">
     <!-- Flow360, BET Disk (steady), $\theta_{75}=10^o$ -->
     <g transform="translate(106.41 45.98643)scale(0.1 -0.1)">
      <defs>
       <path d="M 1259 2228 
L 1259 519 
L 2272 519 
Q 2781 519 3026 730 
Q 3272 941 3272 1375 
Q 3272 1813 3026 2020 
Q 2781 2228 2272 2228 
L 1259 2228 
z
M 1259 4147 
L 1259 2741 
L 2194 2741 
Q 2656 2741 2882 2914 
Q 3109 3088 3109 3444 
Q 3109 3797 2882 3972 
Q 2656 4147 2194 4147 
L 1259 4147 
z
M 628 4666 
L 2241 4666 
Q 2963 4666 3353 4366 
Q 3744 4066 3744 3513 
Q 3744 3084 3544 2831 
Q 3344 2578 2956 2516 
Q 3422 2416 3680 2098 
Q 3938 1781 3938 1306 
Q 3938 681 3513 340 
Q 3088 0 2303 0 
L 628 0 
L 628 4666 
z
" id="DejaVuSans-42" transform="scale(0.015625)"/>
       <path d="M 628 4666 
L 3578 4666 
L 3578 4134 
L 1259 4134 
L 1259 2753 
L 3481 2753 
L 3481 2222 
L 1259 2222 
L 1259 531 
L 3634 531 
L 3634 0 
L 628 0 
L 628 4666 
z
" id="DejaVuSans-45" transform="scale(0.015625)"/>
       <path d="M -19 4666 
L 3928 4666 
L 3928 4134 
L 2272 4134 
L 2272 0 
L 1638 0 
L 1638 4134 
L -19 4134 
L -19 4666 
z
" id="DejaVuSans-54" transform="scale(0.015625)"/>
       <path d="M 1259 4147 
L 1259 519 
L 2022 519 
Q 2988 519 3436 956 
Q 3884 1394 3884 2338 
Q 3884 3275 3436 3711 
Q 2988 4147 2022 4147 
L 1259 4147 
z
M 628 4666 
L 1925 4666 
Q 3281 4666 3915 4102 
Q 4550 3538 4550 2338 
Q 4550 1131 3912 565 
Q 3275 0 1925 0 
L 628 0 
L 628 4666 
z
" id="DejaVuSans-44" transform="scale(0.015625)"/>
       <path d="M 581 4863 
L 1159 4863 
L 1159 1991 
L 2875 3500 
L 3609 3500 
L 1753 1863 
L 3688 0 
L 2938 0 
L 1159 1709 
L 1159 0 
L 581 0 
L 581 4863 
z
" id="DejaVuSans-6b" transform="scale(0.015625)"/>
      </defs>
      <use transform="translate(0 0.51875)" xlink:href="#DejaVuSans-46"/>
      <use transform="translate(57.519531 0.51875)" xlink:href="#DejaVuSans-6c"/>
      <use transform="translate(85.302734 0.51875)" xlink:href="#DejaVuSans-6f"/>
      <use transform="translate(146.484375 0.51875)" xlink:href="#DejaVuSans-77"/>
      <use transform="translate(228.271484 0.51875)" xlink:href="#DejaVuSans-33"/>
      <use transform="translate(291.894531 0.51875)" xlink:href="#DejaVuSans-36"/>
      <use transform="translate(355.517578 0.51875)" xlink:href="#DejaVuSans-30"/>
      <use transform="translate(419.140625 0.51875)" xlink:href="#DejaVuSans-2c"/>
      <use transform="translate(450.927734 0.51875)" xlink:href="#DejaVuSans-20"/>
      <use transform="translate(482.714844 0.51875)" xlink:href="#DejaVuSans-42"/>
      <use transform="translate(551.318359 0.51875)" xlink:href="#DejaVuSans-45"/>
      <use transform="translate(614.501953 0.51875)" xlink:href="#DejaVuSans-54"/>
      <use transform="translate(675.585938 0.51875)" xlink:href="#DejaVuSans-20"/>
      <use transform="translate(707.373047 0.51875)" xlink:href="#DejaVuSans-44"/>
      <use transform="translate(784.375 0.51875)" xlink:href="#DejaVuSans-69"/>
      <use transform="translate(812.158203 0.51875)" xlink:href="#DejaVuSans-73"/>
      <use transform="translate(864.257812 0.51875)" xlink:href="#DejaVuSans-6b"/>
      <use transform="translate(922.167969 0.51875)" xlink:href="#DejaVuSans-20"/>
      <use transform="translate(953.955078 0.51875)" xlink:href="#DejaVuSans-28"/>
      <use transform="translate(992.96875 0.51875)" xlink:href="#DejaVuSans-73"/>
      <use transform="translate(1045.068359 0.51875)" xlink:href="#DejaVuSans-74"/>
      <use transform="translate(1084.277344 0.51875)" xlink:href="#DejaVuSans-65"/>
      <use transform="translate(1145.800781 0.51875)" xlink:href="#DejaVuSans-61"/>
      <use transform="translate(1207.080078 0.51875)" xlink:href="#DejaVuSans-64"/>
      <use transform="translate(1270.556641 0.51875)" xlink:href="#DejaVuSans-79"/>
      <use transform="translate(1329.736328 0.51875)" xlink:href="#DejaVuSans-29"/>
      <use transform="translate(1368.75 0.51875)" xlink:href="#DejaVuSans-2c"/>
      <use transform="translate(1400.537109 0.51875)" xlink:href="#DejaVuSans-20"/>
      <use transform="translate(1432.324219 0.51875)" xlink:href="#DejaVuSans-Oblique-3b8"/>
      <use transform="translate(1493.505859 -15.8875)scale(0.7)" xlink:href="#DejaVuSans-37"/>
      <use transform="translate(1538.041992 -15.8875)scale(0.7)" xlink:href="#DejaVuSans-35"/>
      <use transform="translate(1604.794922 0.51875)" xlink:href="#DejaVuSans-3d"/>
      <use transform="translate(1708.066406 0.51875)" xlink:href="#DejaVuSans-31"/>
      <use transform="translate(1771.689453 0.51875)" xlink:href="#DejaVuSans-30"/>
      <use transform="translate(1836.269531 38.8)scale(0.7)" xlink:href="#DejaVuSans-Oblique-6f"/>
     </g>
    </g>
   </g>
  </g>
 </g>
 <defs>
  <clipPath id="p3d6f53e74b">
   <rect height="285.75357" width="380.59" x="69.41" y="14.28643"/>
  </clipPath>
 </defs>
</svg>
