<?xml version="1.0" encoding="utf-8" standalone="no"?>
<!DOCTYPE svg PUBLIC "-//W3C//DTD SVG 1.1//EN"
  "http://www.w3.org/Graphics/SVG/1.1/DTD/svg11.dtd">
<svg height="345.6pt" version="1.1" viewBox="0 0 460.8 345.6" width="460.8pt" xmlns="http://www.w3.org/2000/svg" xmlns:xlink="http://www.w3.org/1999/xlink">
 <metadata>
  <rdf:RDF xmlns:cc="http://creativecommons.org/ns#" xmlns:dc="http://purl.org/dc/elements/1.1/" xmlns:rdf="http://www.w3.org/1999/02/22-rdf-syntax-ns#">
   <cc:Work>
    <dc:type rdf:resource="http://purl.org/dc/dcmitype/StillImage"/>
    <dc:date>2022-03-08T16:02:47.072936</dc:date>
    <dc:format>image/svg+xml</dc:format>
    <dc:creator>
     <cc:Agent>
      <dc:title>Matplotlib v3.4.3, https://matplotlib.org/</dc:title>
     </cc:Agent>
    </dc:creator>
   </cc:Work>
  </rdf:RDF>
 </metadata>
 <defs>
  <style type="text/css">*{stroke-linecap:butt;stroke-linejoin:round;}</style>
 </defs>
 <g id="figure_1">
  <g id="patch_1">
   <path d="M 0 345.6 
L 460.8 345.6 
L 460.8 0 
L 0 0 
z
" style="fill:#ffffff;"/>
  </g>
  <g id="axes_1">
   <g id="patch_2">
    <path d="M 67.43 300.04 
L 437.22 300.04 
L 437.22 10.8 
L 67.43 10.8 
z
" style="fill:#ffffff;"/>
   </g>
   <g id="matplotlib.axis_1">
    <g id="xtick_1">
     <g id="line2d_1">
      <path clip-path="url(#p651aa40ee7)" d="M 67.43 300.04 
L 67.43 10.8 
" style="fill:none;stroke:#b0b0b0;stroke-dasharray:2.96,1.28;stroke-dashoffset:0;stroke-opacity:0.5;stroke-width:0.8;"/>
     </g>
     <g id="line2d_2">
      <defs>
       <path d="M 0 0 
L 0 3.5 
" id="m0f437e8bdc" style="stroke:#000000;stroke-width:0.8;"/>
      </defs>
      <g>
       <use style="stroke:#000000;stroke-width:0.8;" x="67.43" xlink:href="#m0f437e8bdc" y="300.04"/>
      </g>
     </g>
     <g id="text_1">
      <!-- 0 -->
      <g transform="translate(64.24875 314.638437)scale(0.1 -0.1)">
       <defs>
        <path d="M 2034 4250 
Q 1547 4250 1301 3770 
Q 1056 3291 1056 2328 
Q 1056 1369 1301 889 
Q 1547 409 2034 409 
Q 2525 409 2770 889 
Q 3016 1369 3016 2328 
Q 3016 3291 2770 3770 
Q 2525 4250 2034 4250 
z
M 2034 4750 
Q 2819 4750 3233 4129 
Q 3647 3509 3647 2328 
Q 3647 1150 3233 529 
Q 2819 -91 2034 -91 
Q 1250 -91 836 529 
Q 422 1150 422 2328 
Q 422 3509 836 4129 
Q 1250 4750 2034 4750 
z
" id="DejaVuSans-30" transform="scale(0.015625)"/>
       </defs>
       <use xlink:href="#DejaVuSans-30"/>
      </g>
     </g>
    </g>
    <g id="xtick_2">
     <g id="line2d_3">
      <path clip-path="url(#p651aa40ee7)" d="M 108.517778 300.04 
L 108.517778 10.8 
" style="fill:none;stroke:#b0b0b0;stroke-dasharray:2.96,1.28;stroke-dashoffset:0;stroke-opacity:0.5;stroke-width:0.8;"/>
     </g>
     <g id="line2d_4">
      <g>
       <use style="stroke:#000000;stroke-width:0.8;" x="108.517778" xlink:href="#m0f437e8bdc" y="300.04"/>
      </g>
     </g>
     <g id="text_2">
      <!-- 500 -->
      <g transform="translate(98.974028 314.638437)scale(0.1 -0.1)">
       <defs>
        <path d="M 691 4666 
L 3169 4666 
L 3169 4134 
L 1269 4134 
L 1269 2991 
Q 1406 3038 1543 3061 
Q 1681 3084 1819 3084 
Q 2600 3084 3056 2656 
Q 3513 2228 3513 1497 
Q 3513 744 3044 326 
Q 2575 -91 1722 -91 
Q 1428 -91 1123 -41 
Q 819 9 494 109 
L 494 744 
Q 775 591 1075 516 
Q 1375 441 1709 441 
Q 2250 441 2565 725 
Q 2881 1009 2881 1497 
Q 2881 1984 2565 2268 
Q 2250 2553 1709 2553 
Q 1456 2553 1204 2497 
Q 953 2441 691 2322 
L 691 4666 
z
" id="DejaVuSans-35" transform="scale(0.015625)"/>
       </defs>
       <use xlink:href="#DejaVuSans-35"/>
       <use x="63.623047" xlink:href="#DejaVuSans-30"/>
       <use x="127.246094" xlink:href="#DejaVuSans-30"/>
      </g>
     </g>
    </g>
    <g id="xtick_3">
     <g id="line2d_5">
      <path clip-path="url(#p651aa40ee7)" d="M 149.605556 300.04 
L 149.605556 10.8 
" style="fill:none;stroke:#b0b0b0;stroke-dasharray:2.96,1.28;stroke-dashoffset:0;stroke-opacity:0.5;stroke-width:0.8;"/>
     </g>
     <g id="line2d_6">
      <g>
       <use style="stroke:#000000;stroke-width:0.8;" x="149.605556" xlink:href="#m0f437e8bdc" y="300.04"/>
      </g>
     </g>
     <g id="text_3">
      <!-- 1000 -->
      <g transform="translate(136.880556 314.638437)scale(0.1 -0.1)">
       <defs>
        <path d="M 794 531 
L 1825 531 
L 1825 4091 
L 703 3866 
L 703 4441 
L 1819 4666 
L 2450 4666 
L 2450 531 
L 3481 531 
L 3481 0 
L 794 0 
L 794 531 
z
" id="DejaVuSans-31" transform="scale(0.015625)"/>
       </defs>
       <use xlink:href="#DejaVuSans-31"/>
       <use x="63.623047" xlink:href="#DejaVuSans-30"/>
       <use x="127.246094" xlink:href="#DejaVuSans-30"/>
       <use x="190.869141" xlink:href="#DejaVuSans-30"/>
      </g>
     </g>
    </g>
    <g id="xtick_4">
     <g id="line2d_7">
      <path clip-path="url(#p651aa40ee7)" d="M 190.693333 300.04 
L 190.693333 10.8 
" style="fill:none;stroke:#b0b0b0;stroke-dasharray:2.96,1.28;stroke-dashoffset:0;stroke-opacity:0.5;stroke-width:0.8;"/>
     </g>
     <g id="line2d_8">
      <g>
       <use style="stroke:#000000;stroke-width:0.8;" x="190.693333" xlink:href="#m0f437e8bdc" y="300.04"/>
      </g>
     </g>
     <g id="text_4">
      <!-- 1500 -->
      <g transform="translate(177.968333 314.638437)scale(0.1 -0.1)">
       <use xlink:href="#DejaVuSans-31"/>
       <use x="63.623047" xlink:href="#DejaVuSans-35"/>
       <use x="127.246094" xlink:href="#DejaVuSans-30"/>
       <use x="190.869141" xlink:href="#DejaVuSans-30"/>
      </g>
     </g>
    </g>
    <g id="xtick_5">
     <g id="line2d_9">
      <path clip-path="url(#p651aa40ee7)" d="M 231.781111 300.04 
L 231.781111 10.8 
" style="fill:none;stroke:#b0b0b0;stroke-dasharray:2.96,1.28;stroke-dashoffset:0;stroke-opacity:0.5;stroke-width:0.8;"/>
     </g>
     <g id="line2d_10">
      <g>
       <use style="stroke:#000000;stroke-width:0.8;" x="231.781111" xlink:href="#m0f437e8bdc" y="300.04"/>
      </g>
     </g>
     <g id="text_5">
      <!-- 2000 -->
      <g transform="translate(219.056111 314.638437)scale(0.1 -0.1)">
       <defs>
        <path d="M 1228 531 
L 3431 531 
L 3431 0 
L 469 0 
L 469 531 
Q 828 903 1448 1529 
Q 2069 2156 2228 2338 
Q 2531 2678 2651 2914 
Q 2772 3150 2772 3378 
Q 2772 3750 2511 3984 
Q 2250 4219 1831 4219 
Q 1534 4219 1204 4116 
Q 875 4013 500 3803 
L 500 4441 
Q 881 4594 1212 4672 
Q 1544 4750 1819 4750 
Q 2544 4750 2975 4387 
Q 3406 4025 3406 3419 
Q 3406 3131 3298 2873 
Q 3191 2616 2906 2266 
Q 2828 2175 2409 1742 
Q 1991 1309 1228 531 
z
" id="DejaVuSans-32" transform="scale(0.015625)"/>
       </defs>
       <use xlink:href="#DejaVuSans-32"/>
       <use x="63.623047" xlink:href="#DejaVuSans-30"/>
       <use x="127.246094" xlink:href="#DejaVuSans-30"/>
       <use x="190.869141" xlink:href="#DejaVuSans-30"/>
      </g>
     </g>
    </g>
    <g id="xtick_6">
     <g id="line2d_11">
      <path clip-path="url(#p651aa40ee7)" d="M 272.868889 300.04 
L 272.868889 10.8 
" style="fill:none;stroke:#b0b0b0;stroke-dasharray:2.96,1.28;stroke-dashoffset:0;stroke-opacity:0.5;stroke-width:0.8;"/>
     </g>
     <g id="line2d_12">
      <g>
       <use style="stroke:#000000;stroke-width:0.8;" x="272.868889" xlink:href="#m0f437e8bdc" y="300.04"/>
      </g>
     </g>
     <g id="text_6">
      <!-- 2500 -->
      <g transform="translate(260.143889 314.638437)scale(0.1 -0.1)">
       <use xlink:href="#DejaVuSans-32"/>
       <use x="63.623047" xlink:href="#DejaVuSans-35"/>
       <use x="127.246094" xlink:href="#DejaVuSans-30"/>
       <use x="190.869141" xlink:href="#DejaVuSans-30"/>
      </g>
     </g>
    </g>
    <g id="xtick_7">
     <g id="line2d_13">
      <path clip-path="url(#p651aa40ee7)" d="M 313.956667 300.04 
L 313.956667 10.8 
" style="fill:none;stroke:#b0b0b0;stroke-dasharray:2.96,1.28;stroke-dashoffset:0;stroke-opacity:0.5;stroke-width:0.8;"/>
     </g>
     <g id="line2d_14">
      <g>
       <use style="stroke:#000000;stroke-width:0.8;" x="313.956667" xlink:href="#m0f437e8bdc" y="300.04"/>
      </g>
     </g>
     <g id="text_7">
      <!-- 3000 -->
      <g transform="translate(301.231667 314.638437)scale(0.1 -0.1)">
       <defs>
        <path d="M 2597 2516 
Q 3050 2419 3304 2112 
Q 3559 1806 3559 1356 
Q 3559 666 3084 287 
Q 2609 -91 1734 -91 
Q 1441 -91 1130 -33 
Q 819 25 488 141 
L 488 750 
Q 750 597 1062 519 
Q 1375 441 1716 441 
Q 2309 441 2620 675 
Q 2931 909 2931 1356 
Q 2931 1769 2642 2001 
Q 2353 2234 1838 2234 
L 1294 2234 
L 1294 2753 
L 1863 2753 
Q 2328 2753 2575 2939 
Q 2822 3125 2822 3475 
Q 2822 3834 2567 4026 
Q 2313 4219 1838 4219 
Q 1578 4219 1281 4162 
Q 984 4106 628 3988 
L 628 4550 
Q 988 4650 1302 4700 
Q 1616 4750 1894 4750 
Q 2613 4750 3031 4423 
Q 3450 4097 3450 3541 
Q 3450 3153 3228 2886 
Q 3006 2619 2597 2516 
z
" id="DejaVuSans-33" transform="scale(0.015625)"/>
       </defs>
       <use xlink:href="#DejaVuSans-33"/>
       <use x="63.623047" xlink:href="#DejaVuSans-30"/>
       <use x="127.246094" xlink:href="#DejaVuSans-30"/>
       <use x="190.869141" xlink:href="#DejaVuSans-30"/>
      </g>
     </g>
    </g>
    <g id="xtick_8">
     <g id="line2d_15">
      <path clip-path="url(#p651aa40ee7)" d="M 355.044444 300.04 
L 355.044444 10.8 
" style="fill:none;stroke:#b0b0b0;stroke-dasharray:2.96,1.28;stroke-dashoffset:0;stroke-opacity:0.5;stroke-width:0.8;"/>
     </g>
     <g id="line2d_16">
      <g>
       <use style="stroke:#000000;stroke-width:0.8;" x="355.044444" xlink:href="#m0f437e8bdc" y="300.04"/>
      </g>
     </g>
     <g id="text_8">
      <!-- 3500 -->
      <g transform="translate(342.319444 314.638437)scale(0.1 -0.1)">
       <use xlink:href="#DejaVuSans-33"/>
       <use x="63.623047" xlink:href="#DejaVuSans-35"/>
       <use x="127.246094" xlink:href="#DejaVuSans-30"/>
       <use x="190.869141" xlink:href="#DejaVuSans-30"/>
      </g>
     </g>
    </g>
    <g id="xtick_9">
     <g id="line2d_17">
      <path clip-path="url(#p651aa40ee7)" d="M 396.132222 300.04 
L 396.132222 10.8 
" style="fill:none;stroke:#b0b0b0;stroke-dasharray:2.96,1.28;stroke-dashoffset:0;stroke-opacity:0.5;stroke-width:0.8;"/>
     </g>
     <g id="line2d_18">
      <g>
       <use style="stroke:#000000;stroke-width:0.8;" x="396.132222" xlink:href="#m0f437e8bdc" y="300.04"/>
      </g>
     </g>
     <g id="text_9">
      <!-- 4000 -->
      <g transform="translate(383.407222 314.638437)scale(0.1 -0.1)">
       <defs>
        <path d="M 2419 4116 
L 825 1625 
L 2419 1625 
L 2419 4116 
z
M 2253 4666 
L 3047 4666 
L 3047 1625 
L 3713 1625 
L 3713 1100 
L 3047 1100 
L 3047 0 
L 2419 0 
L 2419 1100 
L 313 1100 
L 313 1709 
L 2253 4666 
z
" id="DejaVuSans-34" transform="scale(0.015625)"/>
       </defs>
       <use xlink:href="#DejaVuSans-34"/>
       <use x="63.623047" xlink:href="#DejaVuSans-30"/>
       <use x="127.246094" xlink:href="#DejaVuSans-30"/>
       <use x="190.869141" xlink:href="#DejaVuSans-30"/>
      </g>
     </g>
    </g>
    <g id="xtick_10">
     <g id="line2d_19">
      <path clip-path="url(#p651aa40ee7)" d="M 437.22 300.04 
L 437.22 10.8 
" style="fill:none;stroke:#b0b0b0;stroke-dasharray:2.96,1.28;stroke-dashoffset:0;stroke-opacity:0.5;stroke-width:0.8;"/>
     </g>
     <g id="line2d_20">
      <g>
       <use style="stroke:#000000;stroke-width:0.8;" x="437.22" xlink:href="#m0f437e8bdc" y="300.04"/>
      </g>
     </g>
     <g id="text_10">
      <!-- 4500 -->
      <g transform="translate(424.495 314.638437)scale(0.1 -0.1)">
       <use xlink:href="#DejaVuSans-34"/>
       <use x="63.623047" xlink:href="#DejaVuSans-35"/>
       <use x="127.246094" xlink:href="#DejaVuSans-30"/>
       <use x="190.869141" xlink:href="#DejaVuSans-30"/>
      </g>
     </g>
    </g>
    <g id="text_11">
     <!-- pseudo time step -->
     <g transform="translate(191.358281 331.355937)scale(0.14 -0.14)">
      <defs>
       <path d="M 1159 525 
L 1159 -1331 
L 581 -1331 
L 581 3500 
L 1159 3500 
L 1159 2969 
Q 1341 3281 1617 3432 
Q 1894 3584 2278 3584 
Q 2916 3584 3314 3078 
Q 3713 2572 3713 1747 
Q 3713 922 3314 415 
Q 2916 -91 2278 -91 
Q 1894 -91 1617 61 
Q 1341 213 1159 525 
z
M 3116 1747 
Q 3116 2381 2855 2742 
Q 2594 3103 2138 3103 
Q 1681 3103 1420 2742 
Q 1159 2381 1159 1747 
Q 1159 1113 1420 752 
Q 1681 391 2138 391 
Q 2594 391 2855 752 
Q 3116 1113 3116 1747 
z
" id="DejaVuSans-70" transform="scale(0.015625)"/>
       <path d="M 2834 3397 
L 2834 2853 
Q 2591 2978 2328 3040 
Q 2066 3103 1784 3103 
Q 1356 3103 1142 2972 
Q 928 2841 928 2578 
Q 928 2378 1081 2264 
Q 1234 2150 1697 2047 
L 1894 2003 
Q 2506 1872 2764 1633 
Q 3022 1394 3022 966 
Q 3022 478 2636 193 
Q 2250 -91 1575 -91 
Q 1294 -91 989 -36 
Q 684 19 347 128 
L 347 722 
Q 666 556 975 473 
Q 1284 391 1588 391 
Q 1994 391 2212 530 
Q 2431 669 2431 922 
Q 2431 1156 2273 1281 
Q 2116 1406 1581 1522 
L 1381 1569 
Q 847 1681 609 1914 
Q 372 2147 372 2553 
Q 372 3047 722 3315 
Q 1072 3584 1716 3584 
Q 2034 3584 2315 3537 
Q 2597 3491 2834 3397 
z
" id="DejaVuSans-73" transform="scale(0.015625)"/>
       <path d="M 3597 1894 
L 3597 1613 
L 953 1613 
Q 991 1019 1311 708 
Q 1631 397 2203 397 
Q 2534 397 2845 478 
Q 3156 559 3463 722 
L 3463 178 
Q 3153 47 2828 -22 
Q 2503 -91 2169 -91 
Q 1331 -91 842 396 
Q 353 884 353 1716 
Q 353 2575 817 3079 
Q 1281 3584 2069 3584 
Q 2775 3584 3186 3129 
Q 3597 2675 3597 1894 
z
M 3022 2063 
Q 3016 2534 2758 2815 
Q 2500 3097 2075 3097 
Q 1594 3097 1305 2825 
Q 1016 2553 972 2059 
L 3022 2063 
z
" id="DejaVuSans-65" transform="scale(0.015625)"/>
       <path d="M 544 1381 
L 544 3500 
L 1119 3500 
L 1119 1403 
Q 1119 906 1312 657 
Q 1506 409 1894 409 
Q 2359 409 2629 706 
Q 2900 1003 2900 1516 
L 2900 3500 
L 3475 3500 
L 3475 0 
L 2900 0 
L 2900 538 
Q 2691 219 2414 64 
Q 2138 -91 1772 -91 
Q 1169 -91 856 284 
Q 544 659 544 1381 
z
M 1991 3584 
L 1991 3584 
z
" id="DejaVuSans-75" transform="scale(0.015625)"/>
       <path d="M 2906 2969 
L 2906 4863 
L 3481 4863 
L 3481 0 
L 2906 0 
L 2906 525 
Q 2725 213 2448 61 
Q 2172 -91 1784 -91 
Q 1150 -91 751 415 
Q 353 922 353 1747 
Q 353 2572 751 3078 
Q 1150 3584 1784 3584 
Q 2172 3584 2448 3432 
Q 2725 3281 2906 2969 
z
M 947 1747 
Q 947 1113 1208 752 
Q 1469 391 1925 391 
Q 2381 391 2643 752 
Q 2906 1113 2906 1747 
Q 2906 2381 2643 2742 
Q 2381 3103 1925 3103 
Q 1469 3103 1208 2742 
Q 947 2381 947 1747 
z
" id="DejaVuSans-64" transform="scale(0.015625)"/>
       <path d="M 1959 3097 
Q 1497 3097 1228 2736 
Q 959 2375 959 1747 
Q 959 1119 1226 758 
Q 1494 397 1959 397 
Q 2419 397 2687 759 
Q 2956 1122 2956 1747 
Q 2956 2369 2687 2733 
Q 2419 3097 1959 3097 
z
M 1959 3584 
Q 2709 3584 3137 3096 
Q 3566 2609 3566 1747 
Q 3566 888 3137 398 
Q 2709 -91 1959 -91 
Q 1206 -91 779 398 
Q 353 888 353 1747 
Q 353 2609 779 3096 
Q 1206 3584 1959 3584 
z
" id="DejaVuSans-6f" transform="scale(0.015625)"/>
       <path id="DejaVuSans-20" transform="scale(0.015625)"/>
       <path d="M 1172 4494 
L 1172 3500 
L 2356 3500 
L 2356 3053 
L 1172 3053 
L 1172 1153 
Q 1172 725 1289 603 
Q 1406 481 1766 481 
L 2356 481 
L 2356 0 
L 1766 0 
Q 1100 0 847 248 
Q 594 497 594 1153 
L 594 3053 
L 172 3053 
L 172 3500 
L 594 3500 
L 594 4494 
L 1172 4494 
z
" id="DejaVuSans-74" transform="scale(0.015625)"/>
       <path d="M 603 3500 
L 1178 3500 
L 1178 0 
L 603 0 
L 603 3500 
z
M 603 4863 
L 1178 4863 
L 1178 4134 
L 603 4134 
L 603 4863 
z
" id="DejaVuSans-69" transform="scale(0.015625)"/>
       <path d="M 3328 2828 
Q 3544 3216 3844 3400 
Q 4144 3584 4550 3584 
Q 5097 3584 5394 3201 
Q 5691 2819 5691 2113 
L 5691 0 
L 5113 0 
L 5113 2094 
Q 5113 2597 4934 2840 
Q 4756 3084 4391 3084 
Q 3944 3084 3684 2787 
Q 3425 2491 3425 1978 
L 3425 0 
L 2847 0 
L 2847 2094 
Q 2847 2600 2669 2842 
Q 2491 3084 2119 3084 
Q 1678 3084 1418 2786 
Q 1159 2488 1159 1978 
L 1159 0 
L 581 0 
L 581 3500 
L 1159 3500 
L 1159 2956 
Q 1356 3278 1631 3431 
Q 1906 3584 2284 3584 
Q 2666 3584 2933 3390 
Q 3200 3197 3328 2828 
z
" id="DejaVuSans-6d" transform="scale(0.015625)"/>
      </defs>
      <use xlink:href="#DejaVuSans-70"/>
      <use x="63.476562" xlink:href="#DejaVuSans-73"/>
      <use x="115.576172" xlink:href="#DejaVuSans-65"/>
      <use x="177.099609" xlink:href="#DejaVuSans-75"/>
      <use x="240.478516" xlink:href="#DejaVuSans-64"/>
      <use x="303.955078" xlink:href="#DejaVuSans-6f"/>
      <use x="365.136719" xlink:href="#DejaVuSans-20"/>
      <use x="396.923828" xlink:href="#DejaVuSans-74"/>
      <use x="436.132812" xlink:href="#DejaVuSans-69"/>
      <use x="463.916016" xlink:href="#DejaVuSans-6d"/>
      <use x="561.328125" xlink:href="#DejaVuSans-65"/>
      <use x="622.851562" xlink:href="#DejaVuSans-20"/>
      <use x="654.638672" xlink:href="#DejaVuSans-73"/>
      <use x="706.738281" xlink:href="#DejaVuSans-74"/>
      <use x="745.947266" xlink:href="#DejaVuSans-65"/>
      <use x="807.470703" xlink:href="#DejaVuSans-70"/>
     </g>
    </g>
   </g>
   <g id="matplotlib.axis_2">
    <g id="ytick_1">
     <g id="line2d_21">
      <path clip-path="url(#p651aa40ee7)" d="M 67.43 249.24062 
L 437.22 249.24062 
" style="fill:none;stroke:#b0b0b0;stroke-dasharray:2.96,1.28;stroke-dashoffset:0;stroke-opacity:0.5;stroke-width:0.8;"/>
     </g>
     <g id="line2d_22">
      <defs>
       <path d="M 0 0 
L -3.5 0 
" id="mefe3ff9b0e" style="stroke:#000000;stroke-width:0.8;"/>
      </defs>
      <g>
       <use style="stroke:#000000;stroke-width:0.8;" x="67.43" xlink:href="#mefe3ff9b0e" y="249.24062"/>
      </g>
     </g>
     <g id="text_12">
      <!-- 10000 -->
      <g transform="translate(28.6175 253.039839)scale(0.1 -0.1)">
       <use xlink:href="#DejaVuSans-31"/>
       <use x="63.623047" xlink:href="#DejaVuSans-30"/>
       <use x="127.246094" xlink:href="#DejaVuSans-30"/>
       <use x="190.869141" xlink:href="#DejaVuSans-30"/>
       <use x="254.492188" xlink:href="#DejaVuSans-30"/>
      </g>
     </g>
    </g>
    <g id="ytick_2">
     <g id="line2d_23">
      <path clip-path="url(#p651aa40ee7)" d="M 67.43 196.318886 
L 437.22 196.318886 
" style="fill:none;stroke:#b0b0b0;stroke-dasharray:2.96,1.28;stroke-dashoffset:0;stroke-opacity:0.5;stroke-width:0.8;"/>
     </g>
     <g id="line2d_24">
      <g>
       <use style="stroke:#000000;stroke-width:0.8;" x="67.43" xlink:href="#mefe3ff9b0e" y="196.318886"/>
      </g>
     </g>
     <g id="text_13">
      <!-- 20000 -->
      <g transform="translate(28.6175 200.118105)scale(0.1 -0.1)">
       <use xlink:href="#DejaVuSans-32"/>
       <use x="63.623047" xlink:href="#DejaVuSans-30"/>
       <use x="127.246094" xlink:href="#DejaVuSans-30"/>
       <use x="190.869141" xlink:href="#DejaVuSans-30"/>
       <use x="254.492188" xlink:href="#DejaVuSans-30"/>
      </g>
     </g>
    </g>
    <g id="ytick_3">
     <g id="line2d_25">
      <path clip-path="url(#p651aa40ee7)" d="M 67.43 143.397151 
L 437.22 143.397151 
" style="fill:none;stroke:#b0b0b0;stroke-dasharray:2.96,1.28;stroke-dashoffset:0;stroke-opacity:0.5;stroke-width:0.8;"/>
     </g>
     <g id="line2d_26">
      <g>
       <use style="stroke:#000000;stroke-width:0.8;" x="67.43" xlink:href="#mefe3ff9b0e" y="143.397151"/>
      </g>
     </g>
     <g id="text_14">
      <!-- 30000 -->
      <g transform="translate(28.6175 147.19637)scale(0.1 -0.1)">
       <use xlink:href="#DejaVuSans-33"/>
       <use x="63.623047" xlink:href="#DejaVuSans-30"/>
       <use x="127.246094" xlink:href="#DejaVuSans-30"/>
       <use x="190.869141" xlink:href="#DejaVuSans-30"/>
       <use x="254.492188" xlink:href="#DejaVuSans-30"/>
      </g>
     </g>
    </g>
    <g id="ytick_4">
     <g id="line2d_27">
      <path clip-path="url(#p651aa40ee7)" d="M 67.43 90.475417 
L 437.22 90.475417 
" style="fill:none;stroke:#b0b0b0;stroke-dasharray:2.96,1.28;stroke-dashoffset:0;stroke-opacity:0.5;stroke-width:0.8;"/>
     </g>
     <g id="line2d_28">
      <g>
       <use style="stroke:#000000;stroke-width:0.8;" x="67.43" xlink:href="#mefe3ff9b0e" y="90.475417"/>
      </g>
     </g>
     <g id="text_15">
      <!-- 40000 -->
      <g transform="translate(28.6175 94.274636)scale(0.1 -0.1)">
       <use xlink:href="#DejaVuSans-34"/>
       <use x="63.623047" xlink:href="#DejaVuSans-30"/>
       <use x="127.246094" xlink:href="#DejaVuSans-30"/>
       <use x="190.869141" xlink:href="#DejaVuSans-30"/>
       <use x="254.492188" xlink:href="#DejaVuSans-30"/>
      </g>
     </g>
    </g>
    <g id="ytick_5">
     <g id="line2d_29">
      <path clip-path="url(#p651aa40ee7)" d="M 67.43 37.553683 
L 437.22 37.553683 
" style="fill:none;stroke:#b0b0b0;stroke-dasharray:2.96,1.28;stroke-dashoffset:0;stroke-opacity:0.5;stroke-width:0.8;"/>
     </g>
     <g id="line2d_30">
      <g>
       <use style="stroke:#000000;stroke-width:0.8;" x="67.43" xlink:href="#mefe3ff9b0e" y="37.553683"/>
      </g>
     </g>
     <g id="text_16">
      <!-- 50000 -->
      <g transform="translate(28.6175 41.352901)scale(0.1 -0.1)">
       <use xlink:href="#DejaVuSans-35"/>
       <use x="63.623047" xlink:href="#DejaVuSans-30"/>
       <use x="127.246094" xlink:href="#DejaVuSans-30"/>
       <use x="190.869141" xlink:href="#DejaVuSans-30"/>
       <use x="254.492188" xlink:href="#DejaVuSans-30"/>
      </g>
     </g>
    </g>
    <g id="text_17">
     <!-- Thrust (N) -->
     <g transform="translate(21.705938 190.760156)rotate(-90)scale(0.14 -0.14)">
      <defs>
       <path d="M -19 4666 
L 3928 4666 
L 3928 4134 
L 2272 4134 
L 2272 0 
L 1638 0 
L 1638 4134 
L -19 4134 
L -19 4666 
z
" id="DejaVuSans-54" transform="scale(0.015625)"/>
       <path d="M 3513 2113 
L 3513 0 
L 2938 0 
L 2938 2094 
Q 2938 2591 2744 2837 
Q 2550 3084 2163 3084 
Q 1697 3084 1428 2787 
Q 1159 2491 1159 1978 
L 1159 0 
L 581 0 
L 581 4863 
L 1159 4863 
L 1159 2956 
Q 1366 3272 1645 3428 
Q 1925 3584 2291 3584 
Q 2894 3584 3203 3211 
Q 3513 2838 3513 2113 
z
" id="DejaVuSans-68" transform="scale(0.015625)"/>
       <path d="M 2631 2963 
Q 2534 3019 2420 3045 
Q 2306 3072 2169 3072 
Q 1681 3072 1420 2755 
Q 1159 2438 1159 1844 
L 1159 0 
L 581 0 
L 581 3500 
L 1159 3500 
L 1159 2956 
Q 1341 3275 1631 3429 
Q 1922 3584 2338 3584 
Q 2397 3584 2469 3576 
Q 2541 3569 2628 3553 
L 2631 2963 
z
" id="DejaVuSans-72" transform="scale(0.015625)"/>
       <path d="M 1984 4856 
Q 1566 4138 1362 3434 
Q 1159 2731 1159 2009 
Q 1159 1288 1364 580 
Q 1569 -128 1984 -844 
L 1484 -844 
Q 1016 -109 783 600 
Q 550 1309 550 2009 
Q 550 2706 781 3412 
Q 1013 4119 1484 4856 
L 1984 4856 
z
" id="DejaVuSans-28" transform="scale(0.015625)"/>
       <path d="M 628 4666 
L 1478 4666 
L 3547 763 
L 3547 4666 
L 4159 4666 
L 4159 0 
L 3309 0 
L 1241 3903 
L 1241 0 
L 628 0 
L 628 4666 
z
" id="DejaVuSans-4e" transform="scale(0.015625)"/>
       <path d="M 513 4856 
L 1013 4856 
Q 1481 4119 1714 3412 
Q 1947 2706 1947 2009 
Q 1947 1309 1714 600 
Q 1481 -109 1013 -844 
L 513 -844 
Q 928 -128 1133 580 
Q 1338 1288 1338 2009 
Q 1338 2731 1133 3434 
Q 928 4138 513 4856 
z
" id="DejaVuSans-29" transform="scale(0.015625)"/>
      </defs>
      <use xlink:href="#DejaVuSans-54"/>
      <use x="61.083984" xlink:href="#DejaVuSans-68"/>
      <use x="124.462891" xlink:href="#DejaVuSans-72"/>
      <use x="165.576172" xlink:href="#DejaVuSans-75"/>
      <use x="228.955078" xlink:href="#DejaVuSans-73"/>
      <use x="281.054688" xlink:href="#DejaVuSans-74"/>
      <use x="320.263672" xlink:href="#DejaVuSans-20"/>
      <use x="352.050781" xlink:href="#DejaVuSans-28"/>
      <use x="391.064453" xlink:href="#DejaVuSans-4e"/>
      <use x="465.869141" xlink:href="#DejaVuSans-29"/>
     </g>
    </g>
   </g>
   <g id="line2d_31">
    <path clip-path="url(#p651aa40ee7)" d="M 67.43 261.961652 
L 68.251756 262.670588 
L 69.073511 262.996754 
L 70.717022 262.995894 
L 73.182289 262.739554 
L 75.647556 262.337886 
L 76.469311 262.401005 
L 77.291067 262.658836 
L 78.934578 263.933427 
L 79.756333 264.240591 
L 80.578089 264.310425 
L 82.2216 264.930162 
L 83.043356 265.433628 
L 83.865111 266.473221 
L 85.508622 267.569688 
L 90.439156 273.948276 
L 94.547933 279.94054 
L 97.834956 285.468306 
L 98.656711 286.40343 
L 99.478467 286.892727 
L 100.300222 286.820523 
L 101.121978 286.113566 
L 101.943733 284.765155 
L 102.765489 282.86891 
L 105.230756 276.33504 
L 106.052511 274.734964 
L 106.874267 273.631187 
L 107.696022 273.022191 
L 108.517778 272.867582 
L 111.8048 273.4977 
L 114.270067 273.636625 
L 119.2006 274.176703 
L 122.487622 274.25112 
L 157.001356 273.969413 
L 263.829578 274.32676 
L 461.8 274.376543 
L 461.8 274.376543 
" style="fill:none;stroke:#1f77b4;stroke-linecap:square;stroke-width:1.5;"/>
   </g>
   <g id="line2d_32">
    <path clip-path="url(#p651aa40ee7)" d="M 67.43 199.107893 
L 68.251756 201.364507 
L 69.073511 202.399513 
L 69.895267 202.577607 
L 72.360533 202.822352 
L 74.004044 203.198605 
L 74.8258 203.636636 
L 75.647556 204.370321 
L 77.291067 206.411885 
L 78.112822 207.877578 
L 79.756333 211.293969 
L 80.578089 212.603023 
L 81.399844 213.60172 
L 82.2216 215.003106 
L 85.508622 223.611357 
L 89.6174 237.377764 
L 93.726178 251.66679 
L 96.191444 259.473112 
L 97.834956 264.099261 
L 98.656711 265.765759 
L 99.478467 266.650298 
L 100.300222 266.571464 
L 101.121978 265.474627 
L 101.943733 263.455488 
L 105.230756 253.066301 
L 106.052511 251.66152 
L 106.874267 250.874718 
L 107.696022 250.460846 
L 108.517778 250.211003 
L 109.339533 250.221921 
L 110.983044 250.87899 
L 111.8048 251.02218 
L 114.270067 251.004351 
L 120.844111 250.887102 
L 133.170444 250.270406 
L 140.566244 250.242481 
L 155.357844 250.455444 
L 178.367 250.829272 
L 205.484933 251.007743 
L 261.364311 251.111146 
L 456.44908 251.15729 
L 456.44908 251.15729 
" style="fill:none;stroke:#ff7f0e;stroke-linecap:square;stroke-width:1.5;"/>
   </g>
   <g id="line2d_33">
    <path clip-path="url(#p651aa40ee7)" d="M 67.43 158.955587 
L 68.251756 162.103007 
L 69.073511 163.559419 
L 69.895267 163.841622 
L 71.538778 164.175811 
L 73.182289 164.78113 
L 74.004044 165.306465 
L 74.8258 166.168866 
L 75.647556 167.434168 
L 77.291067 170.576118 
L 78.112822 172.588698 
L 80.578089 179.63245 
L 81.399844 181.115521 
L 82.2216 183.233842 
L 84.686867 192.736062 
L 85.508622 195.655322 
L 89.6174 214.68511 
L 92.904422 230.178757 
L 95.369689 240.766249 
L 97.0132 246.474515 
L 97.834956 248.652835 
L 98.656711 250.146251 
L 99.478467 250.618718 
L 100.300222 249.798881 
L 101.121978 247.646949 
L 101.943733 244.400936 
L 103.587244 236.760655 
L 104.409 233.590328 
L 105.230756 231.419819 
L 106.052511 230.329729 
L 106.874267 230.105934 
L 108.517778 230.383619 
L 109.339533 230.23514 
L 110.161289 230.41496 
L 110.983044 230.870804 
L 111.8048 231.12163 
L 112.626556 231.214213 
L 114.270067 231.095844 
L 120.844111 230.41922 
L 127.418156 230.112461 
L 132.348689 230.050853 
L 139.744489 230.226295 
L 162.753644 230.843981 
L 181.654022 231.010063 
L 222.7418 231.085254 
L 461.8 231.122456 
L 461.8 231.122456 
" style="fill:none;stroke:#2ca02c;stroke-linecap:square;stroke-width:1.5;"/>
   </g>
   <g id="line2d_34">
    <path clip-path="url(#p651aa40ee7)" d="M 67.43 68.518638 
L 68.251756 73.192011 
L 69.073511 75.431621 
L 69.895267 75.97857 
L 70.717022 76.34481 
L 71.538778 76.878925 
L 72.360533 77.547393 
L 73.182289 78.417519 
L 74.004044 79.662739 
L 74.8258 81.488564 
L 76.469311 86.510736 
L 78.112822 92.537662 
L 78.934578 96.2531 
L 80.578089 104.466062 
L 81.399844 107.170688 
L 82.2216 110.94458 
L 83.865111 121.776323 
L 85.508622 131.720851 
L 90.439156 166.423699 
L 92.904422 182.044032 
L 94.547933 190.880757 
L 95.369689 194.140064 
L 96.191444 196.129338 
L 97.0132 196.482239 
L 97.834956 195.009425 
L 98.656711 191.631018 
L 99.478467 186.53691 
L 101.121978 173.923418 
L 101.943733 169.001162 
L 102.765489 166.412515 
L 103.587244 166.057904 
L 104.409 167.201761 
L 106.052511 170.717221 
L 106.874267 172.040877 
L 107.696022 172.692964 
L 108.517778 172.373452 
L 110.983044 168.716427 
L 111.8048 168.274743 
L 114.270067 167.736196 
L 115.913578 167.672194 
L 123.309378 168.135786 
L 134.813956 168.624429 
L 143.853267 168.788474 
L 159.466622 168.780586 
L 208.771956 168.593041 
L 296.6998 168.565006 
L 438.041756 168.558319 
L 438.041756 168.558319 
" style="fill:none;stroke:#d62728;stroke-linecap:square;stroke-width:1.5;"/>
   </g>
   <g id="line2d_35">
    <path clip-path="url(#p651aa40ee7)" d="M 67.43 23.947273 
L 68.251756 28.604813 
L 69.073511 30.938097 
L 71.538778 32.937685 
L 72.360533 33.865231 
L 73.182289 35.043113 
L 74.004044 36.652521 
L 74.8258 38.860244 
L 76.469311 44.609437 
L 78.112822 51.535854 
L 78.934578 55.640561 
L 80.578089 65.255704 
L 81.399844 68.600302 
L 82.2216 73.150012 
L 83.865111 85.697397 
L 85.508622 97.462271 
L 88.795644 123.754038 
L 91.260911 141.348968 
L 92.904422 151.442382 
L 93.726178 155.444275 
L 94.547933 158.266389 
L 95.369689 159.515131 
L 96.191444 158.893873 
L 97.0132 156.080483 
L 97.834956 150.965458 
L 100.300222 130.8009 
L 101.121978 127.929506 
L 101.943733 127.445359 
L 102.765489 128.31269 
L 105.230756 132.469089 
L 106.052511 133.444406 
L 106.874267 133.745349 
L 107.696022 133.230431 
L 108.517778 132.052853 
L 109.339533 130.600006 
L 110.161289 129.379842 
L 110.983044 128.703962 
L 112.626556 128.180407 
L 114.270067 127.906881 
L 115.913578 127.984329 
L 128.239911 128.952387 
L 138.100978 129.202724 
L 147.962044 129.203289 
L 207.9502 128.947888 
L 327.926511 128.929474 
L 438.041756 128.924227 
L 438.041756 128.924227 
" style="fill:none;stroke:#9467bd;stroke-linecap:square;stroke-width:1.5;"/>
   </g>
   <g id="patch_3">
    <path d="M 67.43 300.04 
L 67.43 10.8 
" style="fill:none;stroke:#000000;stroke-linecap:square;stroke-linejoin:miter;stroke-width:0.8;"/>
   </g>
   <g id="patch_4">
    <path d="M 437.22 300.04 
L 437.22 10.8 
" style="fill:none;stroke:#000000;stroke-linecap:square;stroke-linejoin:miter;stroke-width:0.8;"/>
   </g>
   <g id="patch_5">
    <path d="M 67.43 300.04 
L 437.22 300.04 
" style="fill:none;stroke:#000000;stroke-linecap:square;stroke-linejoin:miter;stroke-width:0.8;"/>
   </g>
   <g id="patch_6">
    <path d="M 67.43 10.8 
L 437.22 10.8 
" style="fill:none;stroke:#000000;stroke-linecap:square;stroke-linejoin:miter;stroke-width:0.8;"/>
   </g>
   <g id="legend_1">
    <g id="patch_7">
     <path d="M 318.22 92.190625 
L 430.22 92.190625 
Q 432.22 92.190625 432.22 90.190625 
L 432.22 17.8 
Q 432.22 15.8 430.22 15.8 
L 318.22 15.8 
Q 316.22 15.8 316.22 17.8 
L 316.22 90.190625 
Q 316.22 92.190625 318.22 92.190625 
z
" style="fill:#ffffff;opacity:0.8;stroke:#cccccc;stroke-linejoin:miter;"/>
    </g>
    <g id="line2d_36">
     <path d="M 320.22 23.898438 
L 340.22 23.898438 
" style="fill:none;stroke:#1f77b4;stroke-linecap:square;stroke-width:1.5;"/>
    </g>
    <g id="line2d_37"/>
    <g id="text_18">
     <!-- hover, $\theta_{75}=0^o$ -->
     <g transform="translate(348.22 27.398438)scale(0.1 -0.1)">
      <defs>
       <path d="M 191 3500 
L 800 3500 
L 1894 563 
L 2988 3500 
L 3597 3500 
L 2284 0 
L 1503 0 
L 191 3500 
z
" id="DejaVuSans-76" transform="scale(0.015625)"/>
       <path d="M 750 794 
L 1409 794 
L 1409 256 
L 897 -744 
L 494 -744 
L 750 256 
L 750 794 
z
" id="DejaVuSans-2c" transform="scale(0.015625)"/>
       <path d="M 2913 2219 
L 925 2219 
Q 791 1284 928 888 
Q 1100 400 1566 400 
Q 2034 400 2391 891 
Q 2703 1322 2913 2219 
z
M 3009 2750 
Q 3094 3638 2984 3950 
Q 2813 4444 2353 4444 
Q 1875 4444 1525 3956 
Q 1250 3563 1034 2750 
L 3009 2750 
z
M 2444 4913 
Q 3194 4913 3494 4250 
Q 3794 3591 3566 2422 
Q 3341 1256 2781 594 
Q 2225 -72 1475 -72 
Q 722 -72 425 594 
Q 128 1256 353 2422 
Q 581 3591 1134 4250 
Q 1691 4913 2444 4913 
z
" id="DejaVuSans-Oblique-3b8" transform="scale(0.015625)"/>
       <path d="M 525 4666 
L 3525 4666 
L 3525 4397 
L 1831 0 
L 1172 0 
L 2766 4134 
L 525 4134 
L 525 4666 
z
" id="DejaVuSans-37" transform="scale(0.015625)"/>
       <path d="M 678 2906 
L 4684 2906 
L 4684 2381 
L 678 2381 
L 678 2906 
z
M 678 1631 
L 4684 1631 
L 4684 1100 
L 678 1100 
L 678 1631 
z
" id="DejaVuSans-3d" transform="scale(0.015625)"/>
       <path d="M 1625 -91 
Q 1009 -91 651 289 
Q 294 669 294 1325 
Q 294 1706 417 2101 
Q 541 2497 738 2766 
Q 1047 3184 1428 3384 
Q 1809 3584 2291 3584 
Q 2888 3584 3255 3212 
Q 3622 2841 3622 2241 
Q 3622 1825 3500 1412 
Q 3378 1000 3181 728 
Q 2875 309 2494 109 
Q 2113 -91 1625 -91 
z
M 891 1344 
Q 891 869 1089 633 
Q 1288 397 1691 397 
Q 2269 397 2648 901 
Q 3028 1406 3028 2181 
Q 3028 2634 2825 2865 
Q 2622 3097 2228 3097 
Q 1903 3097 1650 2945 
Q 1397 2794 1197 2484 
Q 1050 2253 970 1956 
Q 891 1659 891 1344 
z
" id="DejaVuSans-Oblique-6f" transform="scale(0.015625)"/>
      </defs>
      <use transform="translate(0 0.51875)" xlink:href="#DejaVuSans-68"/>
      <use transform="translate(63.378906 0.51875)" xlink:href="#DejaVuSans-6f"/>
      <use transform="translate(124.560547 0.51875)" xlink:href="#DejaVuSans-76"/>
      <use transform="translate(183.740234 0.51875)" xlink:href="#DejaVuSans-65"/>
      <use transform="translate(245.263672 0.51875)" xlink:href="#DejaVuSans-72"/>
      <use transform="translate(286.376953 0.51875)" xlink:href="#DejaVuSans-2c"/>
      <use transform="translate(318.164062 0.51875)" xlink:href="#DejaVuSans-20"/>
      <use transform="translate(349.951172 0.51875)" xlink:href="#DejaVuSans-Oblique-3b8"/>
      <use transform="translate(411.132812 -15.8875)scale(0.7)" xlink:href="#DejaVuSans-37"/>
      <use transform="translate(455.668945 -15.8875)scale(0.7)" xlink:href="#DejaVuSans-35"/>
      <use transform="translate(522.421875 0.51875)" xlink:href="#DejaVuSans-3d"/>
      <use transform="translate(625.693359 0.51875)" xlink:href="#DejaVuSans-30"/>
      <use transform="translate(690.273438 38.8)scale(0.7)" xlink:href="#DejaVuSans-Oblique-6f"/>
     </g>
    </g>
    <g id="line2d_38">
     <path d="M 320.22 38.576563 
L 340.22 38.576563 
" style="fill:none;stroke:#ff7f0e;stroke-linecap:square;stroke-width:1.5;"/>
    </g>
    <g id="line2d_39"/>
    <g id="text_19">
     <!-- hover, $\theta_{75}=3^o$ -->
     <g transform="translate(348.22 42.076563)scale(0.1 -0.1)">
      <use transform="translate(0 0.51875)" xlink:href="#DejaVuSans-68"/>
      <use transform="translate(63.378906 0.51875)" xlink:href="#DejaVuSans-6f"/>
      <use transform="translate(124.560547 0.51875)" xlink:href="#DejaVuSans-76"/>
      <use transform="translate(183.740234 0.51875)" xlink:href="#DejaVuSans-65"/>
      <use transform="translate(245.263672 0.51875)" xlink:href="#DejaVuSans-72"/>
      <use transform="translate(286.376953 0.51875)" xlink:href="#DejaVuSans-2c"/>
      <use transform="translate(318.164062 0.51875)" xlink:href="#DejaVuSans-20"/>
      <use transform="translate(349.951172 0.51875)" xlink:href="#DejaVuSans-Oblique-3b8"/>
      <use transform="translate(411.132812 -15.8875)scale(0.7)" xlink:href="#DejaVuSans-37"/>
      <use transform="translate(455.668945 -15.8875)scale(0.7)" xlink:href="#DejaVuSans-35"/>
      <use transform="translate(522.421875 0.51875)" xlink:href="#DejaVuSans-3d"/>
      <use transform="translate(625.693359 0.51875)" xlink:href="#DejaVuSans-33"/>
      <use transform="translate(690.273438 38.8)scale(0.7)" xlink:href="#DejaVuSans-Oblique-6f"/>
     </g>
    </g>
    <g id="line2d_40">
     <path d="M 320.22 53.254687 
L 340.22 53.254687 
" style="fill:none;stroke:#2ca02c;stroke-linecap:square;stroke-width:1.5;"/>
    </g>
    <g id="line2d_41"/>
    <g id="text_20">
     <!-- hover, $\theta_{75}=5^o$ -->
     <g transform="translate(348.22 56.754687)scale(0.1 -0.1)">
      <use transform="translate(0 0.51875)" xlink:href="#DejaVuSans-68"/>
      <use transform="translate(63.378906 0.51875)" xlink:href="#DejaVuSans-6f"/>
      <use transform="translate(124.560547 0.51875)" xlink:href="#DejaVuSans-76"/>
      <use transform="translate(183.740234 0.51875)" xlink:href="#DejaVuSans-65"/>
      <use transform="translate(245.263672 0.51875)" xlink:href="#DejaVuSans-72"/>
      <use transform="translate(286.376953 0.51875)" xlink:href="#DejaVuSans-2c"/>
      <use transform="translate(318.164062 0.51875)" xlink:href="#DejaVuSans-20"/>
      <use transform="translate(349.951172 0.51875)" xlink:href="#DejaVuSans-Oblique-3b8"/>
      <use transform="translate(411.132812 -15.8875)scale(0.7)" xlink:href="#DejaVuSans-37"/>
      <use transform="translate(455.668945 -15.8875)scale(0.7)" xlink:href="#DejaVuSans-35"/>
      <use transform="translate(522.421875 0.51875)" xlink:href="#DejaVuSans-3d"/>
      <use transform="translate(625.693359 0.51875)" xlink:href="#DejaVuSans-35"/>
      <use transform="translate(690.273438 38.8)scale(0.7)" xlink:href="#DejaVuSans-Oblique-6f"/>
     </g>
    </g>
    <g id="line2d_42">
     <path d="M 320.22 67.932813 
L 340.22 67.932813 
" style="fill:none;stroke:#d62728;stroke-linecap:square;stroke-width:1.5;"/>
    </g>
    <g id="line2d_43"/>
    <g id="text_21">
     <!-- hover, $\theta_{75}=10^o$ -->
     <g transform="translate(348.22 71.432813)scale(0.1 -0.1)">
      <use transform="translate(0 0.51875)" xlink:href="#DejaVuSans-68"/>
      <use transform="translate(63.378906 0.51875)" xlink:href="#DejaVuSans-6f"/>
      <use transform="translate(124.560547 0.51875)" xlink:href="#DejaVuSans-76"/>
      <use transform="translate(183.740234 0.51875)" xlink:href="#DejaVuSans-65"/>
      <use transform="translate(245.263672 0.51875)" xlink:href="#DejaVuSans-72"/>
      <use transform="translate(286.376953 0.51875)" xlink:href="#DejaVuSans-2c"/>
      <use transform="translate(318.164062 0.51875)" xlink:href="#DejaVuSans-20"/>
      <use transform="translate(349.951172 0.51875)" xlink:href="#DejaVuSans-Oblique-3b8"/>
      <use transform="translate(411.132812 -15.8875)scale(0.7)" xlink:href="#DejaVuSans-37"/>
      <use transform="translate(455.668945 -15.8875)scale(0.7)" xlink:href="#DejaVuSans-35"/>
      <use transform="translate(522.421875 0.51875)" xlink:href="#DejaVuSans-3d"/>
      <use transform="translate(625.693359 0.51875)" xlink:href="#DejaVuSans-31"/>
      <use transform="translate(689.316406 0.51875)" xlink:href="#DejaVuSans-30"/>
      <use transform="translate(753.896484 38.8)scale(0.7)" xlink:href="#DejaVuSans-Oblique-6f"/>
     </g>
    </g>
    <g id="line2d_44">
     <path d="M 320.22 82.610938 
L 340.22 82.610938 
" style="fill:none;stroke:#9467bd;stroke-linecap:square;stroke-width:1.5;"/>
    </g>
    <g id="line2d_45"/>
    <g id="text_22">
     <!-- hover, $\theta_{75}=13^o$ -->
     <g transform="translate(348.22 86.110938)scale(0.1 -0.1)">
      <use transform="translate(0 0.51875)" xlink:href="#DejaVuSans-68"/>
      <use transform="translate(63.378906 0.51875)" xlink:href="#DejaVuSans-6f"/>
      <use transform="translate(124.560547 0.51875)" xlink:href="#DejaVuSans-76"/>
      <use transform="translate(183.740234 0.51875)" xlink:href="#DejaVuSans-65"/>
      <use transform="translate(245.263672 0.51875)" xlink:href="#DejaVuSans-72"/>
      <use transform="translate(286.376953 0.51875)" xlink:href="#DejaVuSans-2c"/>
      <use transform="translate(318.164062 0.51875)" xlink:href="#DejaVuSans-20"/>
      <use transform="translate(349.951172 0.51875)" xlink:href="#DejaVuSans-Oblique-3b8"/>
      <use transform="translate(411.132812 -15.8875)scale(0.7)" xlink:href="#DejaVuSans-37"/>
      <use transform="translate(455.668945 -15.8875)scale(0.7)" xlink:href="#DejaVuSans-35"/>
      <use transform="translate(522.421875 0.51875)" xlink:href="#DejaVuSans-3d"/>
      <use transform="translate(625.693359 0.51875)" xlink:href="#DejaVuSans-31"/>
      <use transform="translate(689.316406 0.51875)" xlink:href="#DejaVuSans-33"/>
      <use transform="translate(753.896484 38.8)scale(0.7)" xlink:href="#DejaVuSans-Oblique-6f"/>
     </g>
    </g>
   </g>
  </g>
 </g>
 <defs>
  <clipPath id="p651aa40ee7">
   <rect height="289.24" width="369.79" x="67.43" y="10.8"/>
  </clipPath>
 </defs>
</svg>
