<?xml version="1.0" encoding="utf-8" standalone="no"?>
<!DOCTYPE svg PUBLIC "-//W3C//DTD SVG 1.1//EN"
  "http://www.w3.org/Graphics/SVG/1.1/DTD/svg11.dtd">
<svg height="345.6pt" version="1.1" viewBox="0 0 460.8 345.6" width="460.8pt" xmlns="http://www.w3.org/2000/svg" xmlns:xlink="http://www.w3.org/1999/xlink">
 <metadata>
  <rdf:RDF xmlns:cc="http://creativecommons.org/ns#" xmlns:dc="http://purl.org/dc/elements/1.1/" xmlns:rdf="http://www.w3.org/1999/02/22-rdf-syntax-ns#">
   <cc:Work>
    <dc:type rdf:resource="http://purl.org/dc/dcmitype/StillImage"/>
    <dc:date>2022-03-08T16:47:38.121518</dc:date>
    <dc:format>image/svg+xml</dc:format>
    <dc:creator>
     <cc:Agent>
      <dc:title>Matplotlib v3.4.3, https://matplotlib.org/</dc:title>
     </cc:Agent>
    </dc:creator>
   </cc:Work>
  </rdf:RDF>
 </metadata>
 <defs>
  <style type="text/css">*{stroke-linecap:butt;stroke-linejoin:round;}</style>
 </defs>
 <g id="figure_1">
  <g id="patch_1">
   <path d="M 0 345.6 
L 460.8 345.6 
L 460.8 0 
L 0 0 
z
" style="fill:#ffffff;"/>
  </g>
  <g id="axes_1">
   <g id="patch_2">
    <path d="M 68.87 300.04 
L 440.415 300.04 
L 440.415 14.76 
L 68.87 14.76 
z
" style="fill:#ffffff;"/>
   </g>
   <g id="matplotlib.axis_1">
    <g id="xtick_1">
     <g id="line2d_1">
      <path clip-path="url(#pec493d81c9)" d="M 68.87 300.04 
L 68.87 14.76 
" style="fill:none;stroke:#b0b0b0;stroke-dasharray:2.96,1.28;stroke-dashoffset:0;stroke-opacity:0.5;stroke-width:0.8;"/>
     </g>
     <g id="line2d_2">
      <defs>
       <path d="M 0 0 
L 0 3.5 
" id="m2cbd4345fb" style="stroke:#000000;stroke-width:0.8;"/>
      </defs>
      <g>
       <use style="stroke:#000000;stroke-width:0.8;" x="68.87" xlink:href="#m2cbd4345fb" y="300.04"/>
      </g>
     </g>
     <g id="text_1">
      <!-- 0 -->
      <g transform="translate(65.68875 314.638437)scale(0.1 -0.1)">
       <defs>
        <path d="M 2034 4250 
Q 1547 4250 1301 3770 
Q 1056 3291 1056 2328 
Q 1056 1369 1301 889 
Q 1547 409 2034 409 
Q 2525 409 2770 889 
Q 3016 1369 3016 2328 
Q 3016 3291 2770 3770 
Q 2525 4250 2034 4250 
z
M 2034 4750 
Q 2819 4750 3233 4129 
Q 3647 3509 3647 2328 
Q 3647 1150 3233 529 
Q 2819 -91 2034 -91 
Q 1250 -91 836 529 
Q 422 1150 422 2328 
Q 422 3509 836 4129 
Q 1250 4750 2034 4750 
z
" id="DejaVuSans-30" transform="scale(0.015625)"/>
       </defs>
       <use xlink:href="#DejaVuSans-30"/>
      </g>
     </g>
    </g>
    <g id="xtick_2">
     <g id="line2d_3">
      <path clip-path="url(#pec493d81c9)" d="M 143.179 300.04 
L 143.179 14.76 
" style="fill:none;stroke:#b0b0b0;stroke-dasharray:2.96,1.28;stroke-dashoffset:0;stroke-opacity:0.5;stroke-width:0.8;"/>
     </g>
     <g id="line2d_4">
      <g>
       <use style="stroke:#000000;stroke-width:0.8;" x="143.179" xlink:href="#m2cbd4345fb" y="300.04"/>
      </g>
     </g>
     <g id="text_2">
      <!-- 100 -->
      <g transform="translate(133.63525 314.638437)scale(0.1 -0.1)">
       <defs>
        <path d="M 794 531 
L 1825 531 
L 1825 4091 
L 703 3866 
L 703 4441 
L 1819 4666 
L 2450 4666 
L 2450 531 
L 3481 531 
L 3481 0 
L 794 0 
L 794 531 
z
" id="DejaVuSans-31" transform="scale(0.015625)"/>
       </defs>
       <use xlink:href="#DejaVuSans-31"/>
       <use x="63.623047" xlink:href="#DejaVuSans-30"/>
       <use x="127.246094" xlink:href="#DejaVuSans-30"/>
      </g>
     </g>
    </g>
    <g id="xtick_3">
     <g id="line2d_5">
      <path clip-path="url(#pec493d81c9)" d="M 217.488 300.04 
L 217.488 14.76 
" style="fill:none;stroke:#b0b0b0;stroke-dasharray:2.96,1.28;stroke-dashoffset:0;stroke-opacity:0.5;stroke-width:0.8;"/>
     </g>
     <g id="line2d_6">
      <g>
       <use style="stroke:#000000;stroke-width:0.8;" x="217.488" xlink:href="#m2cbd4345fb" y="300.04"/>
      </g>
     </g>
     <g id="text_3">
      <!-- 200 -->
      <g transform="translate(207.94425 314.638437)scale(0.1 -0.1)">
       <defs>
        <path d="M 1228 531 
L 3431 531 
L 3431 0 
L 469 0 
L 469 531 
Q 828 903 1448 1529 
Q 2069 2156 2228 2338 
Q 2531 2678 2651 2914 
Q 2772 3150 2772 3378 
Q 2772 3750 2511 3984 
Q 2250 4219 1831 4219 
Q 1534 4219 1204 4116 
Q 875 4013 500 3803 
L 500 4441 
Q 881 4594 1212 4672 
Q 1544 4750 1819 4750 
Q 2544 4750 2975 4387 
Q 3406 4025 3406 3419 
Q 3406 3131 3298 2873 
Q 3191 2616 2906 2266 
Q 2828 2175 2409 1742 
Q 1991 1309 1228 531 
z
" id="DejaVuSans-32" transform="scale(0.015625)"/>
       </defs>
       <use xlink:href="#DejaVuSans-32"/>
       <use x="63.623047" xlink:href="#DejaVuSans-30"/>
       <use x="127.246094" xlink:href="#DejaVuSans-30"/>
      </g>
     </g>
    </g>
    <g id="xtick_4">
     <g id="line2d_7">
      <path clip-path="url(#pec493d81c9)" d="M 291.797 300.04 
L 291.797 14.76 
" style="fill:none;stroke:#b0b0b0;stroke-dasharray:2.96,1.28;stroke-dashoffset:0;stroke-opacity:0.5;stroke-width:0.8;"/>
     </g>
     <g id="line2d_8">
      <g>
       <use style="stroke:#000000;stroke-width:0.8;" x="291.797" xlink:href="#m2cbd4345fb" y="300.04"/>
      </g>
     </g>
     <g id="text_4">
      <!-- 300 -->
      <g transform="translate(282.25325 314.638437)scale(0.1 -0.1)">
       <defs>
        <path d="M 2597 2516 
Q 3050 2419 3304 2112 
Q 3559 1806 3559 1356 
Q 3559 666 3084 287 
Q 2609 -91 1734 -91 
Q 1441 -91 1130 -33 
Q 819 25 488 141 
L 488 750 
Q 750 597 1062 519 
Q 1375 441 1716 441 
Q 2309 441 2620 675 
Q 2931 909 2931 1356 
Q 2931 1769 2642 2001 
Q 2353 2234 1838 2234 
L 1294 2234 
L 1294 2753 
L 1863 2753 
Q 2328 2753 2575 2939 
Q 2822 3125 2822 3475 
Q 2822 3834 2567 4026 
Q 2313 4219 1838 4219 
Q 1578 4219 1281 4162 
Q 984 4106 628 3988 
L 628 4550 
Q 988 4650 1302 4700 
Q 1616 4750 1894 4750 
Q 2613 4750 3031 4423 
Q 3450 4097 3450 3541 
Q 3450 3153 3228 2886 
Q 3006 2619 2597 2516 
z
" id="DejaVuSans-33" transform="scale(0.015625)"/>
       </defs>
       <use xlink:href="#DejaVuSans-33"/>
       <use x="63.623047" xlink:href="#DejaVuSans-30"/>
       <use x="127.246094" xlink:href="#DejaVuSans-30"/>
      </g>
     </g>
    </g>
    <g id="xtick_5">
     <g id="line2d_9">
      <path clip-path="url(#pec493d81c9)" d="M 366.106 300.04 
L 366.106 14.76 
" style="fill:none;stroke:#b0b0b0;stroke-dasharray:2.96,1.28;stroke-dashoffset:0;stroke-opacity:0.5;stroke-width:0.8;"/>
     </g>
     <g id="line2d_10">
      <g>
       <use style="stroke:#000000;stroke-width:0.8;" x="366.106" xlink:href="#m2cbd4345fb" y="300.04"/>
      </g>
     </g>
     <g id="text_5">
      <!-- 400 -->
      <g transform="translate(356.56225 314.638437)scale(0.1 -0.1)">
       <defs>
        <path d="M 2419 4116 
L 825 1625 
L 2419 1625 
L 2419 4116 
z
M 2253 4666 
L 3047 4666 
L 3047 1625 
L 3713 1625 
L 3713 1100 
L 3047 1100 
L 3047 0 
L 2419 0 
L 2419 1100 
L 313 1100 
L 313 1709 
L 2253 4666 
z
" id="DejaVuSans-34" transform="scale(0.015625)"/>
       </defs>
       <use xlink:href="#DejaVuSans-34"/>
       <use x="63.623047" xlink:href="#DejaVuSans-30"/>
       <use x="127.246094" xlink:href="#DejaVuSans-30"/>
      </g>
     </g>
    </g>
    <g id="xtick_6">
     <g id="line2d_11">
      <path clip-path="url(#pec493d81c9)" d="M 440.415 300.04 
L 440.415 14.76 
" style="fill:none;stroke:#b0b0b0;stroke-dasharray:2.96,1.28;stroke-dashoffset:0;stroke-opacity:0.5;stroke-width:0.8;"/>
     </g>
     <g id="line2d_12">
      <g>
       <use style="stroke:#000000;stroke-width:0.8;" x="440.415" xlink:href="#m2cbd4345fb" y="300.04"/>
      </g>
     </g>
     <g id="text_6">
      <!-- 500 -->
      <g transform="translate(430.87125 314.638437)scale(0.1 -0.1)">
       <defs>
        <path d="M 691 4666 
L 3169 4666 
L 3169 4134 
L 1269 4134 
L 1269 2991 
Q 1406 3038 1543 3061 
Q 1681 3084 1819 3084 
Q 2600 3084 3056 2656 
Q 3513 2228 3513 1497 
Q 3513 744 3044 326 
Q 2575 -91 1722 -91 
Q 1428 -91 1123 -41 
Q 819 9 494 109 
L 494 744 
Q 775 591 1075 516 
Q 1375 441 1709 441 
Q 2250 441 2565 725 
Q 2881 1009 2881 1497 
Q 2881 1984 2565 2268 
Q 2250 2553 1709 2553 
Q 1456 2553 1204 2497 
Q 953 2441 691 2322 
L 691 4666 
z
" id="DejaVuSans-35" transform="scale(0.015625)"/>
       </defs>
       <use xlink:href="#DejaVuSans-35"/>
       <use x="63.623047" xlink:href="#DejaVuSans-30"/>
       <use x="127.246094" xlink:href="#DejaVuSans-30"/>
      </g>
     </g>
    </g>
    <g id="text_7">
     <!-- pseudo time step -->
     <g transform="translate(193.675781 331.355937)scale(0.14 -0.14)">
      <defs>
       <path d="M 1159 525 
L 1159 -1331 
L 581 -1331 
L 581 3500 
L 1159 3500 
L 1159 2969 
Q 1341 3281 1617 3432 
Q 1894 3584 2278 3584 
Q 2916 3584 3314 3078 
Q 3713 2572 3713 1747 
Q 3713 922 3314 415 
Q 2916 -91 2278 -91 
Q 1894 -91 1617 61 
Q 1341 213 1159 525 
z
M 3116 1747 
Q 3116 2381 2855 2742 
Q 2594 3103 2138 3103 
Q 1681 3103 1420 2742 
Q 1159 2381 1159 1747 
Q 1159 1113 1420 752 
Q 1681 391 2138 391 
Q 2594 391 2855 752 
Q 3116 1113 3116 1747 
z
" id="DejaVuSans-70" transform="scale(0.015625)"/>
       <path d="M 2834 3397 
L 2834 2853 
Q 2591 2978 2328 3040 
Q 2066 3103 1784 3103 
Q 1356 3103 1142 2972 
Q 928 2841 928 2578 
Q 928 2378 1081 2264 
Q 1234 2150 1697 2047 
L 1894 2003 
Q 2506 1872 2764 1633 
Q 3022 1394 3022 966 
Q 3022 478 2636 193 
Q 2250 -91 1575 -91 
Q 1294 -91 989 -36 
Q 684 19 347 128 
L 347 722 
Q 666 556 975 473 
Q 1284 391 1588 391 
Q 1994 391 2212 530 
Q 2431 669 2431 922 
Q 2431 1156 2273 1281 
Q 2116 1406 1581 1522 
L 1381 1569 
Q 847 1681 609 1914 
Q 372 2147 372 2553 
Q 372 3047 722 3315 
Q 1072 3584 1716 3584 
Q 2034 3584 2315 3537 
Q 2597 3491 2834 3397 
z
" id="DejaVuSans-73" transform="scale(0.015625)"/>
       <path d="M 3597 1894 
L 3597 1613 
L 953 1613 
Q 991 1019 1311 708 
Q 1631 397 2203 397 
Q 2534 397 2845 478 
Q 3156 559 3463 722 
L 3463 178 
Q 3153 47 2828 -22 
Q 2503 -91 2169 -91 
Q 1331 -91 842 396 
Q 353 884 353 1716 
Q 353 2575 817 3079 
Q 1281 3584 2069 3584 
Q 2775 3584 3186 3129 
Q 3597 2675 3597 1894 
z
M 3022 2063 
Q 3016 2534 2758 2815 
Q 2500 3097 2075 3097 
Q 1594 3097 1305 2825 
Q 1016 2553 972 2059 
L 3022 2063 
z
" id="DejaVuSans-65" transform="scale(0.015625)"/>
       <path d="M 544 1381 
L 544 3500 
L 1119 3500 
L 1119 1403 
Q 1119 906 1312 657 
Q 1506 409 1894 409 
Q 2359 409 2629 706 
Q 2900 1003 2900 1516 
L 2900 3500 
L 3475 3500 
L 3475 0 
L 2900 0 
L 2900 538 
Q 2691 219 2414 64 
Q 2138 -91 1772 -91 
Q 1169 -91 856 284 
Q 544 659 544 1381 
z
M 1991 3584 
L 1991 3584 
z
" id="DejaVuSans-75" transform="scale(0.015625)"/>
       <path d="M 2906 2969 
L 2906 4863 
L 3481 4863 
L 3481 0 
L 2906 0 
L 2906 525 
Q 2725 213 2448 61 
Q 2172 -91 1784 -91 
Q 1150 -91 751 415 
Q 353 922 353 1747 
Q 353 2572 751 3078 
Q 1150 3584 1784 3584 
Q 2172 3584 2448 3432 
Q 2725 3281 2906 2969 
z
M 947 1747 
Q 947 1113 1208 752 
Q 1469 391 1925 391 
Q 2381 391 2643 752 
Q 2906 1113 2906 1747 
Q 2906 2381 2643 2742 
Q 2381 3103 1925 3103 
Q 1469 3103 1208 2742 
Q 947 2381 947 1747 
z
" id="DejaVuSans-64" transform="scale(0.015625)"/>
       <path d="M 1959 3097 
Q 1497 3097 1228 2736 
Q 959 2375 959 1747 
Q 959 1119 1226 758 
Q 1494 397 1959 397 
Q 2419 397 2687 759 
Q 2956 1122 2956 1747 
Q 2956 2369 2687 2733 
Q 2419 3097 1959 3097 
z
M 1959 3584 
Q 2709 3584 3137 3096 
Q 3566 2609 3566 1747 
Q 3566 888 3137 398 
Q 2709 -91 1959 -91 
Q 1206 -91 779 398 
Q 353 888 353 1747 
Q 353 2609 779 3096 
Q 1206 3584 1959 3584 
z
" id="DejaVuSans-6f" transform="scale(0.015625)"/>
       <path id="DejaVuSans-20" transform="scale(0.015625)"/>
       <path d="M 1172 4494 
L 1172 3500 
L 2356 3500 
L 2356 3053 
L 1172 3053 
L 1172 1153 
Q 1172 725 1289 603 
Q 1406 481 1766 481 
L 2356 481 
L 2356 0 
L 1766 0 
Q 1100 0 847 248 
Q 594 497 594 1153 
L 594 3053 
L 172 3053 
L 172 3500 
L 594 3500 
L 594 4494 
L 1172 4494 
z
" id="DejaVuSans-74" transform="scale(0.015625)"/>
       <path d="M 603 3500 
L 1178 3500 
L 1178 0 
L 603 0 
L 603 3500 
z
M 603 4863 
L 1178 4863 
L 1178 4134 
L 603 4134 
L 603 4863 
z
" id="DejaVuSans-69" transform="scale(0.015625)"/>
       <path d="M 3328 2828 
Q 3544 3216 3844 3400 
Q 4144 3584 4550 3584 
Q 5097 3584 5394 3201 
Q 5691 2819 5691 2113 
L 5691 0 
L 5113 0 
L 5113 2094 
Q 5113 2597 4934 2840 
Q 4756 3084 4391 3084 
Q 3944 3084 3684 2787 
Q 3425 2491 3425 1978 
L 3425 0 
L 2847 0 
L 2847 2094 
Q 2847 2600 2669 2842 
Q 2491 3084 2119 3084 
Q 1678 3084 1418 2786 
Q 1159 2488 1159 1978 
L 1159 0 
L 581 0 
L 581 3500 
L 1159 3500 
L 1159 2956 
Q 1356 3278 1631 3431 
Q 1906 3584 2284 3584 
Q 2666 3584 2933 3390 
Q 3200 3197 3328 2828 
z
" id="DejaVuSans-6d" transform="scale(0.015625)"/>
      </defs>
      <use xlink:href="#DejaVuSans-70"/>
      <use x="63.476562" xlink:href="#DejaVuSans-73"/>
      <use x="115.576172" xlink:href="#DejaVuSans-65"/>
      <use x="177.099609" xlink:href="#DejaVuSans-75"/>
      <use x="240.478516" xlink:href="#DejaVuSans-64"/>
      <use x="303.955078" xlink:href="#DejaVuSans-6f"/>
      <use x="365.136719" xlink:href="#DejaVuSans-20"/>
      <use x="396.923828" xlink:href="#DejaVuSans-74"/>
      <use x="436.132812" xlink:href="#DejaVuSans-69"/>
      <use x="463.916016" xlink:href="#DejaVuSans-6d"/>
      <use x="561.328125" xlink:href="#DejaVuSans-65"/>
      <use x="622.851562" xlink:href="#DejaVuSans-20"/>
      <use x="654.638672" xlink:href="#DejaVuSans-73"/>
      <use x="706.738281" xlink:href="#DejaVuSans-74"/>
      <use x="745.947266" xlink:href="#DejaVuSans-65"/>
      <use x="807.470703" xlink:href="#DejaVuSans-70"/>
     </g>
    </g>
   </g>
   <g id="matplotlib.axis_2">
    <g id="ytick_1">
     <g id="line2d_13">
      <path clip-path="url(#pec493d81c9)" d="M 68.87 274.105455 
L 440.415 274.105455 
" style="fill:none;stroke:#b0b0b0;stroke-dasharray:2.96,1.28;stroke-dashoffset:0;stroke-opacity:0.5;stroke-width:0.8;"/>
     </g>
     <g id="line2d_14">
      <defs>
       <path d="M 0 0 
L -3.5 0 
" id="md52e2f20f4" style="stroke:#000000;stroke-width:0.8;"/>
      </defs>
      <g>
       <use style="stroke:#000000;stroke-width:0.8;" x="68.87" xlink:href="#md52e2f20f4" y="274.105455"/>
      </g>
     </g>
     <g id="text_8">
      <!-- 4000 -->
      <g transform="translate(36.42 277.904673)scale(0.1 -0.1)">
       <use xlink:href="#DejaVuSans-34"/>
       <use x="63.623047" xlink:href="#DejaVuSans-30"/>
       <use x="127.246094" xlink:href="#DejaVuSans-30"/>
       <use x="190.869141" xlink:href="#DejaVuSans-30"/>
      </g>
     </g>
    </g>
    <g id="ytick_2">
     <g id="line2d_15">
      <path clip-path="url(#pec493d81c9)" d="M 68.87 222.236364 
L 440.415 222.236364 
" style="fill:none;stroke:#b0b0b0;stroke-dasharray:2.96,1.28;stroke-dashoffset:0;stroke-opacity:0.5;stroke-width:0.8;"/>
     </g>
     <g id="line2d_16">
      <g>
       <use style="stroke:#000000;stroke-width:0.8;" x="68.87" xlink:href="#md52e2f20f4" y="222.236364"/>
      </g>
     </g>
     <g id="text_9">
      <!-- 6000 -->
      <g transform="translate(36.42 226.035582)scale(0.1 -0.1)">
       <defs>
        <path d="M 2113 2584 
Q 1688 2584 1439 2293 
Q 1191 2003 1191 1497 
Q 1191 994 1439 701 
Q 1688 409 2113 409 
Q 2538 409 2786 701 
Q 3034 994 3034 1497 
Q 3034 2003 2786 2293 
Q 2538 2584 2113 2584 
z
M 3366 4563 
L 3366 3988 
Q 3128 4100 2886 4159 
Q 2644 4219 2406 4219 
Q 1781 4219 1451 3797 
Q 1122 3375 1075 2522 
Q 1259 2794 1537 2939 
Q 1816 3084 2150 3084 
Q 2853 3084 3261 2657 
Q 3669 2231 3669 1497 
Q 3669 778 3244 343 
Q 2819 -91 2113 -91 
Q 1303 -91 875 529 
Q 447 1150 447 2328 
Q 447 3434 972 4092 
Q 1497 4750 2381 4750 
Q 2619 4750 2861 4703 
Q 3103 4656 3366 4563 
z
" id="DejaVuSans-36" transform="scale(0.015625)"/>
       </defs>
       <use xlink:href="#DejaVuSans-36"/>
       <use x="63.623047" xlink:href="#DejaVuSans-30"/>
       <use x="127.246094" xlink:href="#DejaVuSans-30"/>
       <use x="190.869141" xlink:href="#DejaVuSans-30"/>
      </g>
     </g>
    </g>
    <g id="ytick_3">
     <g id="line2d_17">
      <path clip-path="url(#pec493d81c9)" d="M 68.87 170.367273 
L 440.415 170.367273 
" style="fill:none;stroke:#b0b0b0;stroke-dasharray:2.96,1.28;stroke-dashoffset:0;stroke-opacity:0.5;stroke-width:0.8;"/>
     </g>
     <g id="line2d_18">
      <g>
       <use style="stroke:#000000;stroke-width:0.8;" x="68.87" xlink:href="#md52e2f20f4" y="170.367273"/>
      </g>
     </g>
     <g id="text_10">
      <!-- 8000 -->
      <g transform="translate(36.42 174.166491)scale(0.1 -0.1)">
       <defs>
        <path d="M 2034 2216 
Q 1584 2216 1326 1975 
Q 1069 1734 1069 1313 
Q 1069 891 1326 650 
Q 1584 409 2034 409 
Q 2484 409 2743 651 
Q 3003 894 3003 1313 
Q 3003 1734 2745 1975 
Q 2488 2216 2034 2216 
z
M 1403 2484 
Q 997 2584 770 2862 
Q 544 3141 544 3541 
Q 544 4100 942 4425 
Q 1341 4750 2034 4750 
Q 2731 4750 3128 4425 
Q 3525 4100 3525 3541 
Q 3525 3141 3298 2862 
Q 3072 2584 2669 2484 
Q 3125 2378 3379 2068 
Q 3634 1759 3634 1313 
Q 3634 634 3220 271 
Q 2806 -91 2034 -91 
Q 1263 -91 848 271 
Q 434 634 434 1313 
Q 434 1759 690 2068 
Q 947 2378 1403 2484 
z
M 1172 3481 
Q 1172 3119 1398 2916 
Q 1625 2713 2034 2713 
Q 2441 2713 2670 2916 
Q 2900 3119 2900 3481 
Q 2900 3844 2670 4047 
Q 2441 4250 2034 4250 
Q 1625 4250 1398 4047 
Q 1172 3844 1172 3481 
z
" id="DejaVuSans-38" transform="scale(0.015625)"/>
       </defs>
       <use xlink:href="#DejaVuSans-38"/>
       <use x="63.623047" xlink:href="#DejaVuSans-30"/>
       <use x="127.246094" xlink:href="#DejaVuSans-30"/>
       <use x="190.869141" xlink:href="#DejaVuSans-30"/>
      </g>
     </g>
    </g>
    <g id="ytick_4">
     <g id="line2d_19">
      <path clip-path="url(#pec493d81c9)" d="M 68.87 118.498182 
L 440.415 118.498182 
" style="fill:none;stroke:#b0b0b0;stroke-dasharray:2.96,1.28;stroke-dashoffset:0;stroke-opacity:0.5;stroke-width:0.8;"/>
     </g>
     <g id="line2d_20">
      <g>
       <use style="stroke:#000000;stroke-width:0.8;" x="68.87" xlink:href="#md52e2f20f4" y="118.498182"/>
      </g>
     </g>
     <g id="text_11">
      <!-- 10000 -->
      <g transform="translate(30.0575 122.297401)scale(0.1 -0.1)">
       <use xlink:href="#DejaVuSans-31"/>
       <use x="63.623047" xlink:href="#DejaVuSans-30"/>
       <use x="127.246094" xlink:href="#DejaVuSans-30"/>
       <use x="190.869141" xlink:href="#DejaVuSans-30"/>
       <use x="254.492188" xlink:href="#DejaVuSans-30"/>
      </g>
     </g>
    </g>
    <g id="ytick_5">
     <g id="line2d_21">
      <path clip-path="url(#pec493d81c9)" d="M 68.87 66.629091 
L 440.415 66.629091 
" style="fill:none;stroke:#b0b0b0;stroke-dasharray:2.96,1.28;stroke-dashoffset:0;stroke-opacity:0.5;stroke-width:0.8;"/>
     </g>
     <g id="line2d_22">
      <g>
       <use style="stroke:#000000;stroke-width:0.8;" x="68.87" xlink:href="#md52e2f20f4" y="66.629091"/>
      </g>
     </g>
     <g id="text_12">
      <!-- 12000 -->
      <g transform="translate(30.0575 70.42831)scale(0.1 -0.1)">
       <use xlink:href="#DejaVuSans-31"/>
       <use x="63.623047" xlink:href="#DejaVuSans-32"/>
       <use x="127.246094" xlink:href="#DejaVuSans-30"/>
       <use x="190.869141" xlink:href="#DejaVuSans-30"/>
       <use x="254.492188" xlink:href="#DejaVuSans-30"/>
      </g>
     </g>
    </g>
    <g id="ytick_6">
     <g id="line2d_23">
      <path clip-path="url(#pec493d81c9)" d="M 68.87 14.76 
L 440.415 14.76 
" style="fill:none;stroke:#b0b0b0;stroke-dasharray:2.96,1.28;stroke-dashoffset:0;stroke-opacity:0.5;stroke-width:0.8;"/>
     </g>
     <g id="line2d_24">
      <g>
       <use style="stroke:#000000;stroke-width:0.8;" x="68.87" xlink:href="#md52e2f20f4" y="14.76"/>
      </g>
     </g>
     <g id="text_13">
      <!-- 14000 -->
      <g transform="translate(30.0575 18.559219)scale(0.1 -0.1)">
       <use xlink:href="#DejaVuSans-31"/>
       <use x="63.623047" xlink:href="#DejaVuSans-34"/>
       <use x="127.246094" xlink:href="#DejaVuSans-30"/>
       <use x="190.869141" xlink:href="#DejaVuSans-30"/>
       <use x="254.492188" xlink:href="#DejaVuSans-30"/>
      </g>
     </g>
    </g>
    <g id="text_14">
     <!-- Thrust ($N$) -->
     <g transform="translate(23.145938 192.75)rotate(-90)scale(0.14 -0.14)">
      <defs>
       <path d="M -19 4666 
L 3928 4666 
L 3928 4134 
L 2272 4134 
L 2272 0 
L 1638 0 
L 1638 4134 
L -19 4134 
L -19 4666 
z
" id="DejaVuSans-54" transform="scale(0.015625)"/>
       <path d="M 3513 2113 
L 3513 0 
L 2938 0 
L 2938 2094 
Q 2938 2591 2744 2837 
Q 2550 3084 2163 3084 
Q 1697 3084 1428 2787 
Q 1159 2491 1159 1978 
L 1159 0 
L 581 0 
L 581 4863 
L 1159 4863 
L 1159 2956 
Q 1366 3272 1645 3428 
Q 1925 3584 2291 3584 
Q 2894 3584 3203 3211 
Q 3513 2838 3513 2113 
z
" id="DejaVuSans-68" transform="scale(0.015625)"/>
       <path d="M 2631 2963 
Q 2534 3019 2420 3045 
Q 2306 3072 2169 3072 
Q 1681 3072 1420 2755 
Q 1159 2438 1159 1844 
L 1159 0 
L 581 0 
L 581 3500 
L 1159 3500 
L 1159 2956 
Q 1341 3275 1631 3429 
Q 1922 3584 2338 3584 
Q 2397 3584 2469 3576 
Q 2541 3569 2628 3553 
L 2631 2963 
z
" id="DejaVuSans-72" transform="scale(0.015625)"/>
       <path d="M 1984 4856 
Q 1566 4138 1362 3434 
Q 1159 2731 1159 2009 
Q 1159 1288 1364 580 
Q 1569 -128 1984 -844 
L 1484 -844 
Q 1016 -109 783 600 
Q 550 1309 550 2009 
Q 550 2706 781 3412 
Q 1013 4119 1484 4856 
L 1984 4856 
z
" id="DejaVuSans-28" transform="scale(0.015625)"/>
       <path d="M 1081 4666 
L 1931 4666 
L 3219 666 
L 4000 4666 
L 4616 4666 
L 3706 0 
L 2853 0 
L 1569 4025 
L 788 0 
L 172 0 
L 1081 4666 
z
" id="DejaVuSans-Oblique-4e" transform="scale(0.015625)"/>
       <path d="M 513 4856 
L 1013 4856 
Q 1481 4119 1714 3412 
Q 1947 2706 1947 2009 
Q 1947 1309 1714 600 
Q 1481 -109 1013 -844 
L 513 -844 
Q 928 -128 1133 580 
Q 1338 1288 1338 2009 
Q 1338 2731 1133 3434 
Q 928 4138 513 4856 
z
" id="DejaVuSans-29" transform="scale(0.015625)"/>
      </defs>
      <use transform="translate(0 0.015625)" xlink:href="#DejaVuSans-54"/>
      <use transform="translate(61.083984 0.015625)" xlink:href="#DejaVuSans-68"/>
      <use transform="translate(124.462891 0.015625)" xlink:href="#DejaVuSans-72"/>
      <use transform="translate(165.576172 0.015625)" xlink:href="#DejaVuSans-75"/>
      <use transform="translate(228.955078 0.015625)" xlink:href="#DejaVuSans-73"/>
      <use transform="translate(281.054688 0.015625)" xlink:href="#DejaVuSans-74"/>
      <use transform="translate(320.263672 0.015625)" xlink:href="#DejaVuSans-20"/>
      <use transform="translate(352.050781 0.015625)" xlink:href="#DejaVuSans-28"/>
      <use transform="translate(391.064453 0.015625)" xlink:href="#DejaVuSans-Oblique-4e"/>
      <use transform="translate(465.869141 0.015625)" xlink:href="#DejaVuSans-29"/>
     </g>
    </g>
   </g>
   <g id="line2d_25">
    <path clip-path="url(#pec493d81c9)" d="M 68.87 257.327746 
L 76.3009 260.456396 
L 83.7318 262.330728 
L 91.1627 263.187621 
L 98.5936 263.740789 
L 106.0245 264.293349 
L 113.4554 264.86628 
L 120.8863 265.444555 
L 128.3172 266.082018 
L 135.7481 266.908317 
L 143.179 268.0089 
L 150.6099 269.219839 
L 158.0408 270.234013 
L 165.4717 271.002359 
L 172.9026 271.8618 
L 180.3335 273.123566 
L 187.7644 274.649339 
L 195.1953 275.603688 
L 202.6262 275.481793 
L 210.0571 275.799016 
L 217.488 276.844809 
L 224.9189 277.410282 
L 232.3498 277.531734 
L 239.7807 277.39445 
L 247.2116 277.557043 
L 254.6425 277.740232 
L 262.0734 277.596154 
L 269.5043 277.752185 
L 276.9352 277.84855 
L 284.3661 277.908907 
L 291.797 278.071114 
L 299.2279 278.190139 
L 306.6588 278.316853 
L 314.0897 278.388451 
L 321.5206 278.487671 
L 328.9515 278.54452 
L 336.3824 278.608822 
L 343.8133 278.663924 
L 351.2442 278.715921 
L 358.6751 278.761463 
L 366.106 278.801702 
L 373.5369 278.833754 
L 380.9678 278.859105 
L 388.3987 278.876815 
L 395.8296 278.88842 
L 403.2605 278.895954 
L 410.6914 278.900776 
L 418.1223 278.903744 
L 425.5532 278.905501 
L 432.9841 278.906506 
L 440.415 278.907058 
L 442.64427 278.907165 
" style="fill:none;stroke:#1f77b4;stroke-linecap:square;stroke-width:1.5;"/>
   </g>
   <g id="line2d_26">
    <path clip-path="url(#pec493d81c9)" d="M 68.87 175.437326 
L 76.3009 180.641305 
L 83.7318 183.924665 
L 91.1627 185.630204 
L 98.5936 186.83687 
L 106.0245 187.99669 
L 113.4554 189.125891 
L 120.8863 190.182517 
L 128.3172 191.223667 
L 135.7481 192.421365 
L 143.179 193.920536 
L 150.6099 195.585568 
L 158.0408 197.094632 
L 165.4717 198.393157 
L 172.9026 199.850561 
L 180.3335 201.780511 
L 187.7644 203.994587 
L 195.1953 205.424442 
L 202.6262 205.383365 
L 210.0571 205.919635 
L 217.488 207.605319 
L 224.9189 208.71988 
L 232.3498 208.987932 
L 239.7807 208.864692 
L 247.2116 209.255596 
L 254.6425 209.576618 
L 262.0734 209.410587 
L 269.5043 209.669775 
L 276.9352 209.779365 
L 284.3661 209.845299 
L 291.797 210.048994 
L 299.2279 210.212217 
L 306.6588 210.390261 
L 314.0897 210.495696 
L 321.5206 210.660323 
L 328.9515 210.755441 
L 336.3824 210.864043 
L 343.8133 210.954328 
L 351.2442 211.038255 
L 358.6751 211.110872 
L 366.106 211.175129 
L 373.5369 211.226024 
L 380.9678 211.266409 
L 388.3987 211.294392 
L 395.8296 211.312571 
L 403.2605 211.324314 
L 410.6914 211.331795 
L 418.1223 211.33638 
L 425.5532 211.339082 
L 432.9841 211.340619 
L 440.415 211.341458 
L 447.10281 211.341859 
" style="fill:none;stroke:#ff7f0e;stroke-linecap:square;stroke-width:1.5;"/>
   </g>
   <g id="line2d_27">
    <path clip-path="url(#pec493d81c9)" d="M 68.87 94.263112 
L 76.3009 101.730235 
L 83.7318 106.571472 
L 91.1627 109.244277 
L 98.5936 111.20749 
L 106.0245 113.068179 
L 113.4554 114.835602 
L 120.8863 116.438948 
L 128.3172 117.942866 
L 135.7481 119.566211 
L 143.179 121.508882 
L 150.6099 123.653484 
L 158.0408 125.673145 
L 165.4717 127.50867 
L 172.9026 129.548776 
L 180.3335 132.128401 
L 187.7644 135.033781 
L 195.1953 136.944633 
L 202.6262 136.967777 
L 210.0571 137.708665 
L 217.488 140.016338 
L 224.9189 141.640531 
L 232.3498 142.032662 
L 239.7807 141.917009 
L 247.2116 142.516242 
L 254.6425 142.963537 
L 262.0734 142.777256 
L 269.5043 143.135668 
L 276.9352 143.254781 
L 284.3661 143.322737 
L 291.797 143.564221 
L 299.2279 143.768718 
L 306.6588 143.992019 
L 314.0897 144.126079 
L 321.5206 144.351944 
L 328.9515 144.480277 
L 336.3824 144.629463 
L 343.8133 144.751271 
L 351.2442 144.863989 
L 358.6751 144.960825 
L 366.106 145.046632 
L 373.5369 145.11411 
L 380.9678 145.167685 
L 388.3987 145.204467 
L 395.8296 145.228156 
L 403.2605 145.24341 
L 410.6914 145.2531 
L 418.1223 145.259014 
L 425.5532 145.262481 
L 432.9841 145.264443 
L 440.415 145.265507 
L 447.8459 145.26605 
L 450.07517 145.266149 
" style="fill:none;stroke:#2ca02c;stroke-linecap:square;stroke-width:1.5;"/>
   </g>
   <g id="line2d_28">
    <path clip-path="url(#pec493d81c9)" d="M 68.87 29.410182 
L 76.3009 38.652016 
L 83.7318 44.75665 
L 91.1627 48.247964 
L 98.5936 50.866171 
L 106.0245 53.333718 
L 113.4554 55.65119 
L 120.8863 57.723469 
L 128.3172 59.616955 
L 135.7481 61.586973 
L 143.179 63.881168 
L 150.6099 66.402955 
L 158.0408 68.82022 
L 165.4717 71.071793 
L 172.9026 73.56378 
L 180.3335 76.648461 
L 187.7644 80.092966 
L 195.1953 82.381565 
L 202.6262 82.452612 
L 210.0571 83.35493 
L 217.488 86.15935 
L 224.9189 88.178077 
L 232.3498 88.660561 
L 239.7807 88.546988 
L 247.2116 89.302446 
L 254.6425 89.845288 
L 262.0734 89.641102 
L 269.5043 90.0767 
L 276.9352 90.201125 
L 284.3661 90.26839 
L 291.797 90.54012 
L 299.2279 90.777639 
L 306.6588 91.035258 
L 314.0897 91.190174 
L 321.5206 91.464154 
L 328.9515 91.616679 
L 336.3824 91.797156 
L 343.8133 91.94273 
L 351.2442 92.077428 
L 358.6751 92.192584 
L 366.106 92.294785 
L 373.5369 92.374638 
L 380.9678 92.438027 
L 388.3987 92.481214 
L 395.8296 92.508835 
L 403.2605 92.526584 
L 410.6914 92.537841 
L 418.1223 92.544687 
L 425.5532 92.548684 
L 432.9841 92.550935 
L 440.415 92.55215 
L 447.8459 92.552766 
L 451.56135 92.552941 
" style="fill:none;stroke:#d62728;stroke-linecap:square;stroke-width:1.5;"/>
   </g>
   <g id="patch_3">
    <path d="M 68.87 300.04 
L 68.87 14.76 
" style="fill:none;stroke:#000000;stroke-linecap:square;stroke-linejoin:miter;stroke-width:0.8;"/>
   </g>
   <g id="patch_4">
    <path d="M 440.415 300.04 
L 440.415 14.76 
" style="fill:none;stroke:#000000;stroke-linecap:square;stroke-linejoin:miter;stroke-width:0.8;"/>
   </g>
   <g id="patch_5">
    <path d="M 68.87 300.04 
L 440.415 300.04 
" style="fill:none;stroke:#000000;stroke-linecap:square;stroke-linejoin:miter;stroke-width:0.8;"/>
   </g>
   <g id="patch_6">
    <path d="M 68.87 14.76 
L 440.415 14.76 
" style="fill:none;stroke:#000000;stroke-linecap:square;stroke-linejoin:miter;stroke-width:0.8;"/>
   </g>
   <g id="legend_1">
    <g id="patch_7">
     <path d="M 299.715 82.36 
L 433.415 82.36 
Q 435.415 82.36 435.415 80.36 
L 435.415 21.76 
Q 435.415 19.76 433.415 19.76 
L 299.715 19.76 
Q 297.715 19.76 297.715 21.76 
L 297.715 80.36 
Q 297.715 82.36 299.715 82.36 
z
" style="fill:#ffffff;opacity:0.8;stroke:#cccccc;stroke-linejoin:miter;"/>
    </g>
    <g id="line2d_29">
     <path d="M 301.715 28.06 
L 321.715 28.06 
" style="fill:none;stroke:#1f77b4;stroke-linecap:square;stroke-width:1.5;"/>
    </g>
    <g id="line2d_30"/>
    <g id="text_15">
     <!-- airplane, $\theta_{75}=26^o$ -->
     <g transform="translate(329.715 31.56)scale(0.1 -0.1)">
      <defs>
       <path d="M 2194 1759 
Q 1497 1759 1228 1600 
Q 959 1441 959 1056 
Q 959 750 1161 570 
Q 1363 391 1709 391 
Q 2188 391 2477 730 
Q 2766 1069 2766 1631 
L 2766 1759 
L 2194 1759 
z
M 3341 1997 
L 3341 0 
L 2766 0 
L 2766 531 
Q 2569 213 2275 61 
Q 1981 -91 1556 -91 
Q 1019 -91 701 211 
Q 384 513 384 1019 
Q 384 1609 779 1909 
Q 1175 2209 1959 2209 
L 2766 2209 
L 2766 2266 
Q 2766 2663 2505 2880 
Q 2244 3097 1772 3097 
Q 1472 3097 1187 3025 
Q 903 2953 641 2809 
L 641 3341 
Q 956 3463 1253 3523 
Q 1550 3584 1831 3584 
Q 2591 3584 2966 3190 
Q 3341 2797 3341 1997 
z
" id="DejaVuSans-61" transform="scale(0.015625)"/>
       <path d="M 603 4863 
L 1178 4863 
L 1178 0 
L 603 0 
L 603 4863 
z
" id="DejaVuSans-6c" transform="scale(0.015625)"/>
       <path d="M 3513 2113 
L 3513 0 
L 2938 0 
L 2938 2094 
Q 2938 2591 2744 2837 
Q 2550 3084 2163 3084 
Q 1697 3084 1428 2787 
Q 1159 2491 1159 1978 
L 1159 0 
L 581 0 
L 581 3500 
L 1159 3500 
L 1159 2956 
Q 1366 3272 1645 3428 
Q 1925 3584 2291 3584 
Q 2894 3584 3203 3211 
Q 3513 2838 3513 2113 
z
" id="DejaVuSans-6e" transform="scale(0.015625)"/>
       <path d="M 750 794 
L 1409 794 
L 1409 256 
L 897 -744 
L 494 -744 
L 750 256 
L 750 794 
z
" id="DejaVuSans-2c" transform="scale(0.015625)"/>
       <path d="M 2913 2219 
L 925 2219 
Q 791 1284 928 888 
Q 1100 400 1566 400 
Q 2034 400 2391 891 
Q 2703 1322 2913 2219 
z
M 3009 2750 
Q 3094 3638 2984 3950 
Q 2813 4444 2353 4444 
Q 1875 4444 1525 3956 
Q 1250 3563 1034 2750 
L 3009 2750 
z
M 2444 4913 
Q 3194 4913 3494 4250 
Q 3794 3591 3566 2422 
Q 3341 1256 2781 594 
Q 2225 -72 1475 -72 
Q 722 -72 425 594 
Q 128 1256 353 2422 
Q 581 3591 1134 4250 
Q 1691 4913 2444 4913 
z
" id="DejaVuSans-Oblique-3b8" transform="scale(0.015625)"/>
       <path d="M 525 4666 
L 3525 4666 
L 3525 4397 
L 1831 0 
L 1172 0 
L 2766 4134 
L 525 4134 
L 525 4666 
z
" id="DejaVuSans-37" transform="scale(0.015625)"/>
       <path d="M 678 2906 
L 4684 2906 
L 4684 2381 
L 678 2381 
L 678 2906 
z
M 678 1631 
L 4684 1631 
L 4684 1100 
L 678 1100 
L 678 1631 
z
" id="DejaVuSans-3d" transform="scale(0.015625)"/>
       <path d="M 1625 -91 
Q 1009 -91 651 289 
Q 294 669 294 1325 
Q 294 1706 417 2101 
Q 541 2497 738 2766 
Q 1047 3184 1428 3384 
Q 1809 3584 2291 3584 
Q 2888 3584 3255 3212 
Q 3622 2841 3622 2241 
Q 3622 1825 3500 1412 
Q 3378 1000 3181 728 
Q 2875 309 2494 109 
Q 2113 -91 1625 -91 
z
M 891 1344 
Q 891 869 1089 633 
Q 1288 397 1691 397 
Q 2269 397 2648 901 
Q 3028 1406 3028 2181 
Q 3028 2634 2825 2865 
Q 2622 3097 2228 3097 
Q 1903 3097 1650 2945 
Q 1397 2794 1197 2484 
Q 1050 2253 970 1956 
Q 891 1659 891 1344 
z
" id="DejaVuSans-Oblique-6f" transform="scale(0.015625)"/>
      </defs>
      <use transform="translate(0 0.51875)" xlink:href="#DejaVuSans-61"/>
      <use transform="translate(61.279297 0.51875)" xlink:href="#DejaVuSans-69"/>
      <use transform="translate(89.0625 0.51875)" xlink:href="#DejaVuSans-72"/>
      <use transform="translate(130.175781 0.51875)" xlink:href="#DejaVuSans-70"/>
      <use transform="translate(193.652344 0.51875)" xlink:href="#DejaVuSans-6c"/>
      <use transform="translate(221.435547 0.51875)" xlink:href="#DejaVuSans-61"/>
      <use transform="translate(282.714844 0.51875)" xlink:href="#DejaVuSans-6e"/>
      <use transform="translate(346.09375 0.51875)" xlink:href="#DejaVuSans-65"/>
      <use transform="translate(407.617188 0.51875)" xlink:href="#DejaVuSans-2c"/>
      <use transform="translate(439.404297 0.51875)" xlink:href="#DejaVuSans-20"/>
      <use transform="translate(471.191406 0.51875)" xlink:href="#DejaVuSans-Oblique-3b8"/>
      <use transform="translate(532.373047 -15.8875)scale(0.7)" xlink:href="#DejaVuSans-37"/>
      <use transform="translate(576.90918 -15.8875)scale(0.7)" xlink:href="#DejaVuSans-35"/>
      <use transform="translate(643.662109 0.51875)" xlink:href="#DejaVuSans-3d"/>
      <use transform="translate(746.933594 0.51875)" xlink:href="#DejaVuSans-32"/>
      <use transform="translate(810.556641 0.51875)" xlink:href="#DejaVuSans-36"/>
      <use transform="translate(875.136719 38.8)scale(0.7)" xlink:href="#DejaVuSans-Oblique-6f"/>
     </g>
    </g>
    <g id="line2d_31">
     <path d="M 301.715 42.96 
L 321.715 42.96 
" style="fill:none;stroke:#ff7f0e;stroke-linecap:square;stroke-width:1.5;"/>
    </g>
    <g id="line2d_32"/>
    <g id="text_16">
     <!-- airplane, $\theta_{75}=27^o$ -->
     <g transform="translate(329.715 46.46)scale(0.1 -0.1)">
      <use transform="translate(0 0.51875)" xlink:href="#DejaVuSans-61"/>
      <use transform="translate(61.279297 0.51875)" xlink:href="#DejaVuSans-69"/>
      <use transform="translate(89.0625 0.51875)" xlink:href="#DejaVuSans-72"/>
      <use transform="translate(130.175781 0.51875)" xlink:href="#DejaVuSans-70"/>
      <use transform="translate(193.652344 0.51875)" xlink:href="#DejaVuSans-6c"/>
      <use transform="translate(221.435547 0.51875)" xlink:href="#DejaVuSans-61"/>
      <use transform="translate(282.714844 0.51875)" xlink:href="#DejaVuSans-6e"/>
      <use transform="translate(346.09375 0.51875)" xlink:href="#DejaVuSans-65"/>
      <use transform="translate(407.617188 0.51875)" xlink:href="#DejaVuSans-2c"/>
      <use transform="translate(439.404297 0.51875)" xlink:href="#DejaVuSans-20"/>
      <use transform="translate(471.191406 0.51875)" xlink:href="#DejaVuSans-Oblique-3b8"/>
      <use transform="translate(532.373047 -15.8875)scale(0.7)" xlink:href="#DejaVuSans-37"/>
      <use transform="translate(576.90918 -15.8875)scale(0.7)" xlink:href="#DejaVuSans-35"/>
      <use transform="translate(643.662109 0.51875)" xlink:href="#DejaVuSans-3d"/>
      <use transform="translate(746.933594 0.51875)" xlink:href="#DejaVuSans-32"/>
      <use transform="translate(810.556641 0.51875)" xlink:href="#DejaVuSans-37"/>
      <use transform="translate(875.136719 38.8)scale(0.7)" xlink:href="#DejaVuSans-Oblique-6f"/>
     </g>
    </g>
    <g id="line2d_33">
     <path d="M 301.715 57.86 
L 321.715 57.86 
" style="fill:none;stroke:#2ca02c;stroke-linecap:square;stroke-width:1.5;"/>
    </g>
    <g id="line2d_34"/>
    <g id="text_17">
     <!-- airplane, $\theta_{75}=28^o$ -->
     <g transform="translate(329.715 61.36)scale(0.1 -0.1)">
      <use transform="translate(0 0.51875)" xlink:href="#DejaVuSans-61"/>
      <use transform="translate(61.279297 0.51875)" xlink:href="#DejaVuSans-69"/>
      <use transform="translate(89.0625 0.51875)" xlink:href="#DejaVuSans-72"/>
      <use transform="translate(130.175781 0.51875)" xlink:href="#DejaVuSans-70"/>
      <use transform="translate(193.652344 0.51875)" xlink:href="#DejaVuSans-6c"/>
      <use transform="translate(221.435547 0.51875)" xlink:href="#DejaVuSans-61"/>
      <use transform="translate(282.714844 0.51875)" xlink:href="#DejaVuSans-6e"/>
      <use transform="translate(346.09375 0.51875)" xlink:href="#DejaVuSans-65"/>
      <use transform="translate(407.617188 0.51875)" xlink:href="#DejaVuSans-2c"/>
      <use transform="translate(439.404297 0.51875)" xlink:href="#DejaVuSans-20"/>
      <use transform="translate(471.191406 0.51875)" xlink:href="#DejaVuSans-Oblique-3b8"/>
      <use transform="translate(532.373047 -15.8875)scale(0.7)" xlink:href="#DejaVuSans-37"/>
      <use transform="translate(576.90918 -15.8875)scale(0.7)" xlink:href="#DejaVuSans-35"/>
      <use transform="translate(643.662109 0.51875)" xlink:href="#DejaVuSans-3d"/>
      <use transform="translate(746.933594 0.51875)" xlink:href="#DejaVuSans-32"/>
      <use transform="translate(810.556641 0.51875)" xlink:href="#DejaVuSans-38"/>
      <use transform="translate(875.136719 38.8)scale(0.7)" xlink:href="#DejaVuSans-Oblique-6f"/>
     </g>
    </g>
    <g id="line2d_35">
     <path d="M 301.715 72.76 
L 321.715 72.76 
" style="fill:none;stroke:#d62728;stroke-linecap:square;stroke-width:1.5;"/>
    </g>
    <g id="line2d_36"/>
    <g id="text_18">
     <!-- airplane, $\theta_{75}=28.8^o$ -->
     <g transform="translate(329.715 76.26)scale(0.1 -0.1)">
      <defs>
       <path d="M 684 794 
L 1344 794 
L 1344 0 
L 684 0 
L 684 794 
z
" id="DejaVuSans-2e" transform="scale(0.015625)"/>
      </defs>
      <use transform="translate(0 0.51875)" xlink:href="#DejaVuSans-61"/>
      <use transform="translate(61.279297 0.51875)" xlink:href="#DejaVuSans-69"/>
      <use transform="translate(89.0625 0.51875)" xlink:href="#DejaVuSans-72"/>
      <use transform="translate(130.175781 0.51875)" xlink:href="#DejaVuSans-70"/>
      <use transform="translate(193.652344 0.51875)" xlink:href="#DejaVuSans-6c"/>
      <use transform="translate(221.435547 0.51875)" xlink:href="#DejaVuSans-61"/>
      <use transform="translate(282.714844 0.51875)" xlink:href="#DejaVuSans-6e"/>
      <use transform="translate(346.09375 0.51875)" xlink:href="#DejaVuSans-65"/>
      <use transform="translate(407.617188 0.51875)" xlink:href="#DejaVuSans-2c"/>
      <use transform="translate(439.404297 0.51875)" xlink:href="#DejaVuSans-20"/>
      <use transform="translate(471.191406 0.51875)" xlink:href="#DejaVuSans-Oblique-3b8"/>
      <use transform="translate(532.373047 -15.8875)scale(0.7)" xlink:href="#DejaVuSans-37"/>
      <use transform="translate(576.90918 -15.8875)scale(0.7)" xlink:href="#DejaVuSans-35"/>
      <use transform="translate(643.662109 0.51875)" xlink:href="#DejaVuSans-3d"/>
      <use transform="translate(746.933594 0.51875)" xlink:href="#DejaVuSans-32"/>
      <use transform="translate(810.556641 0.51875)" xlink:href="#DejaVuSans-38"/>
      <use transform="translate(874.179688 0.51875)" xlink:href="#DejaVuSans-2e"/>
      <use transform="translate(905.966797 0.51875)" xlink:href="#DejaVuSans-38"/>
      <use transform="translate(970.546875 38.8)scale(0.7)" xlink:href="#DejaVuSans-Oblique-6f"/>
     </g>
    </g>
   </g>
  </g>
 </g>
 <defs>
  <clipPath id="pec493d81c9">
   <rect height="285.28" width="371.545" x="68.87" y="14.76"/>
  </clipPath>
 </defs>
</svg>
