<?xml version="1.0" encoding="utf-8" standalone="no"?>
<!DOCTYPE svg PUBLIC "-//W3C//DTD SVG 1.1//EN"
  "http://www.w3.org/Graphics/SVG/1.1/DTD/svg11.dtd">
<svg height="345.6pt" version="1.1" viewBox="0 0 460.8 345.6" width="460.8pt" xmlns="http://www.w3.org/2000/svg" xmlns:xlink="http://www.w3.org/1999/xlink">
 <metadata>
  <rdf:RDF xmlns:cc="http://creativecommons.org/ns#" xmlns:dc="http://purl.org/dc/elements/1.1/" xmlns:rdf="http://www.w3.org/1999/02/22-rdf-syntax-ns#">
   <cc:Work>
    <dc:type rdf:resource="http://purl.org/dc/dcmitype/StillImage"/>
    <dc:date>2022-03-03T11:40:48.347441</dc:date>
    <dc:format>image/svg+xml</dc:format>
    <dc:creator>
     <cc:Agent>
      <dc:title>Matplotlib v3.4.3, https://matplotlib.org/</dc:title>
     </cc:Agent>
    </dc:creator>
   </cc:Work>
  </rdf:RDF>
 </metadata>
 <defs>
  <style type="text/css">*{stroke-linecap:butt;stroke-linejoin:round;}</style>
 </defs>
 <g id="figure_1">
  <g id="patch_1">
   <path d="M 0 345.6 
L 460.8 345.6 
L 460.8 0 
L 0 0 
z
" style="fill:#ffffff;"/>
  </g>
  <g id="axes_1">
   <g id="patch_2">
    <path d="M 64.19 300.04 
L 450 300.04 
L 450 14.76 
L 64.19 14.76 
z
" style="fill:#ffffff;"/>
   </g>
   <g id="matplotlib.axis_1">
    <g id="xtick_1">
     <g id="line2d_1">
      <path clip-path="url(#p6b505663d4)" d="M 81.726818 300.04 
L 81.726818 14.76 
" style="fill:none;stroke:#b0b0b0;stroke-dasharray:2.96,1.28;stroke-dashoffset:0;stroke-opacity:0.5;stroke-width:0.8;"/>
     </g>
     <g id="line2d_2">
      <defs>
       <path d="M 0 0 
L 0 3.5 
" id="m282608d9a2" style="stroke:#000000;stroke-width:0.8;"/>
      </defs>
      <g>
       <use style="stroke:#000000;stroke-width:0.8;" x="81.726818" xlink:href="#m282608d9a2" y="300.04"/>
      </g>
     </g>
     <g id="text_1">
      <!-- 0 -->
      <g transform="translate(78.545568 314.638437)scale(0.1 -0.1)">
       <defs>
        <path d="M 2034 4250 
Q 1547 4250 1301 3770 
Q 1056 3291 1056 2328 
Q 1056 1369 1301 889 
Q 1547 409 2034 409 
Q 2525 409 2770 889 
Q 3016 1369 3016 2328 
Q 3016 3291 2770 3770 
Q 2525 4250 2034 4250 
z
M 2034 4750 
Q 2819 4750 3233 4129 
Q 3647 3509 3647 2328 
Q 3647 1150 3233 529 
Q 2819 -91 2034 -91 
Q 1250 -91 836 529 
Q 422 1150 422 2328 
Q 422 3509 836 4129 
Q 1250 4750 2034 4750 
z
" id="DejaVuSans-30" transform="scale(0.015625)"/>
       </defs>
       <use xlink:href="#DejaVuSans-30"/>
      </g>
     </g>
    </g>
    <g id="xtick_2">
     <g id="line2d_3">
      <path clip-path="url(#p6b505663d4)" d="M 149.830966 300.04 
L 149.830966 14.76 
" style="fill:none;stroke:#b0b0b0;stroke-dasharray:2.96,1.28;stroke-dashoffset:0;stroke-opacity:0.5;stroke-width:0.8;"/>
     </g>
     <g id="line2d_4">
      <g>
       <use style="stroke:#000000;stroke-width:0.8;" x="149.830966" xlink:href="#m282608d9a2" y="300.04"/>
      </g>
     </g>
     <g id="text_2">
      <!-- 100 -->
      <g transform="translate(140.287216 314.638437)scale(0.1 -0.1)">
       <defs>
        <path d="M 794 531 
L 1825 531 
L 1825 4091 
L 703 3866 
L 703 4441 
L 1819 4666 
L 2450 4666 
L 2450 531 
L 3481 531 
L 3481 0 
L 794 0 
L 794 531 
z
" id="DejaVuSans-31" transform="scale(0.015625)"/>
       </defs>
       <use xlink:href="#DejaVuSans-31"/>
       <use x="63.623047" xlink:href="#DejaVuSans-30"/>
       <use x="127.246094" xlink:href="#DejaVuSans-30"/>
      </g>
     </g>
    </g>
    <g id="xtick_3">
     <g id="line2d_5">
      <path clip-path="url(#p6b505663d4)" d="M 217.935115 300.04 
L 217.935115 14.76 
" style="fill:none;stroke:#b0b0b0;stroke-dasharray:2.96,1.28;stroke-dashoffset:0;stroke-opacity:0.5;stroke-width:0.8;"/>
     </g>
     <g id="line2d_6">
      <g>
       <use style="stroke:#000000;stroke-width:0.8;" x="217.935115" xlink:href="#m282608d9a2" y="300.04"/>
      </g>
     </g>
     <g id="text_3">
      <!-- 200 -->
      <g transform="translate(208.391365 314.638437)scale(0.1 -0.1)">
       <defs>
        <path d="M 1228 531 
L 3431 531 
L 3431 0 
L 469 0 
L 469 531 
Q 828 903 1448 1529 
Q 2069 2156 2228 2338 
Q 2531 2678 2651 2914 
Q 2772 3150 2772 3378 
Q 2772 3750 2511 3984 
Q 2250 4219 1831 4219 
Q 1534 4219 1204 4116 
Q 875 4013 500 3803 
L 500 4441 
Q 881 4594 1212 4672 
Q 1544 4750 1819 4750 
Q 2544 4750 2975 4387 
Q 3406 4025 3406 3419 
Q 3406 3131 3298 2873 
Q 3191 2616 2906 2266 
Q 2828 2175 2409 1742 
Q 1991 1309 1228 531 
z
" id="DejaVuSans-32" transform="scale(0.015625)"/>
       </defs>
       <use xlink:href="#DejaVuSans-32"/>
       <use x="63.623047" xlink:href="#DejaVuSans-30"/>
       <use x="127.246094" xlink:href="#DejaVuSans-30"/>
      </g>
     </g>
    </g>
    <g id="xtick_4">
     <g id="line2d_7">
      <path clip-path="url(#p6b505663d4)" d="M 286.039263 300.04 
L 286.039263 14.76 
" style="fill:none;stroke:#b0b0b0;stroke-dasharray:2.96,1.28;stroke-dashoffset:0;stroke-opacity:0.5;stroke-width:0.8;"/>
     </g>
     <g id="line2d_8">
      <g>
       <use style="stroke:#000000;stroke-width:0.8;" x="286.039263" xlink:href="#m282608d9a2" y="300.04"/>
      </g>
     </g>
     <g id="text_4">
      <!-- 300 -->
      <g transform="translate(276.495513 314.638437)scale(0.1 -0.1)">
       <defs>
        <path d="M 2597 2516 
Q 3050 2419 3304 2112 
Q 3559 1806 3559 1356 
Q 3559 666 3084 287 
Q 2609 -91 1734 -91 
Q 1441 -91 1130 -33 
Q 819 25 488 141 
L 488 750 
Q 750 597 1062 519 
Q 1375 441 1716 441 
Q 2309 441 2620 675 
Q 2931 909 2931 1356 
Q 2931 1769 2642 2001 
Q 2353 2234 1838 2234 
L 1294 2234 
L 1294 2753 
L 1863 2753 
Q 2328 2753 2575 2939 
Q 2822 3125 2822 3475 
Q 2822 3834 2567 4026 
Q 2313 4219 1838 4219 
Q 1578 4219 1281 4162 
Q 984 4106 628 3988 
L 628 4550 
Q 988 4650 1302 4700 
Q 1616 4750 1894 4750 
Q 2613 4750 3031 4423 
Q 3450 4097 3450 3541 
Q 3450 3153 3228 2886 
Q 3006 2619 2597 2516 
z
" id="DejaVuSans-33" transform="scale(0.015625)"/>
       </defs>
       <use xlink:href="#DejaVuSans-33"/>
       <use x="63.623047" xlink:href="#DejaVuSans-30"/>
       <use x="127.246094" xlink:href="#DejaVuSans-30"/>
      </g>
     </g>
    </g>
    <g id="xtick_5">
     <g id="line2d_9">
      <path clip-path="url(#p6b505663d4)" d="M 354.143411 300.04 
L 354.143411 14.76 
" style="fill:none;stroke:#b0b0b0;stroke-dasharray:2.96,1.28;stroke-dashoffset:0;stroke-opacity:0.5;stroke-width:0.8;"/>
     </g>
     <g id="line2d_10">
      <g>
       <use style="stroke:#000000;stroke-width:0.8;" x="354.143411" xlink:href="#m282608d9a2" y="300.04"/>
      </g>
     </g>
     <g id="text_5">
      <!-- 400 -->
      <g transform="translate(344.599661 314.638437)scale(0.1 -0.1)">
       <defs>
        <path d="M 2419 4116 
L 825 1625 
L 2419 1625 
L 2419 4116 
z
M 2253 4666 
L 3047 4666 
L 3047 1625 
L 3713 1625 
L 3713 1100 
L 3047 1100 
L 3047 0 
L 2419 0 
L 2419 1100 
L 313 1100 
L 313 1709 
L 2253 4666 
z
" id="DejaVuSans-34" transform="scale(0.015625)"/>
       </defs>
       <use xlink:href="#DejaVuSans-34"/>
       <use x="63.623047" xlink:href="#DejaVuSans-30"/>
       <use x="127.246094" xlink:href="#DejaVuSans-30"/>
      </g>
     </g>
    </g>
    <g id="xtick_6">
     <g id="line2d_11">
      <path clip-path="url(#p6b505663d4)" d="M 422.24756 300.04 
L 422.24756 14.76 
" style="fill:none;stroke:#b0b0b0;stroke-dasharray:2.96,1.28;stroke-dashoffset:0;stroke-opacity:0.5;stroke-width:0.8;"/>
     </g>
     <g id="line2d_12">
      <g>
       <use style="stroke:#000000;stroke-width:0.8;" x="422.24756" xlink:href="#m282608d9a2" y="300.04"/>
      </g>
     </g>
     <g id="text_6">
      <!-- 500 -->
      <g transform="translate(412.70381 314.638437)scale(0.1 -0.1)">
       <defs>
        <path d="M 691 4666 
L 3169 4666 
L 3169 4134 
L 1269 4134 
L 1269 2991 
Q 1406 3038 1543 3061 
Q 1681 3084 1819 3084 
Q 2600 3084 3056 2656 
Q 3513 2228 3513 1497 
Q 3513 744 3044 326 
Q 2575 -91 1722 -91 
Q 1428 -91 1123 -41 
Q 819 9 494 109 
L 494 744 
Q 775 591 1075 516 
Q 1375 441 1709 441 
Q 2250 441 2565 725 
Q 2881 1009 2881 1497 
Q 2881 1984 2565 2268 
Q 2250 2553 1709 2553 
Q 1456 2553 1204 2497 
Q 953 2441 691 2322 
L 691 4666 
z
" id="DejaVuSans-35" transform="scale(0.015625)"/>
       </defs>
       <use xlink:href="#DejaVuSans-35"/>
       <use x="63.623047" xlink:href="#DejaVuSans-30"/>
       <use x="127.246094" xlink:href="#DejaVuSans-30"/>
      </g>
     </g>
    </g>
    <g id="text_7">
     <!-- pseudo time step -->
     <g transform="translate(196.128281 331.355937)scale(0.14 -0.14)">
      <defs>
       <path d="M 1159 525 
L 1159 -1331 
L 581 -1331 
L 581 3500 
L 1159 3500 
L 1159 2969 
Q 1341 3281 1617 3432 
Q 1894 3584 2278 3584 
Q 2916 3584 3314 3078 
Q 3713 2572 3713 1747 
Q 3713 922 3314 415 
Q 2916 -91 2278 -91 
Q 1894 -91 1617 61 
Q 1341 213 1159 525 
z
M 3116 1747 
Q 3116 2381 2855 2742 
Q 2594 3103 2138 3103 
Q 1681 3103 1420 2742 
Q 1159 2381 1159 1747 
Q 1159 1113 1420 752 
Q 1681 391 2138 391 
Q 2594 391 2855 752 
Q 3116 1113 3116 1747 
z
" id="DejaVuSans-70" transform="scale(0.015625)"/>
       <path d="M 2834 3397 
L 2834 2853 
Q 2591 2978 2328 3040 
Q 2066 3103 1784 3103 
Q 1356 3103 1142 2972 
Q 928 2841 928 2578 
Q 928 2378 1081 2264 
Q 1234 2150 1697 2047 
L 1894 2003 
Q 2506 1872 2764 1633 
Q 3022 1394 3022 966 
Q 3022 478 2636 193 
Q 2250 -91 1575 -91 
Q 1294 -91 989 -36 
Q 684 19 347 128 
L 347 722 
Q 666 556 975 473 
Q 1284 391 1588 391 
Q 1994 391 2212 530 
Q 2431 669 2431 922 
Q 2431 1156 2273 1281 
Q 2116 1406 1581 1522 
L 1381 1569 
Q 847 1681 609 1914 
Q 372 2147 372 2553 
Q 372 3047 722 3315 
Q 1072 3584 1716 3584 
Q 2034 3584 2315 3537 
Q 2597 3491 2834 3397 
z
" id="DejaVuSans-73" transform="scale(0.015625)"/>
       <path d="M 3597 1894 
L 3597 1613 
L 953 1613 
Q 991 1019 1311 708 
Q 1631 397 2203 397 
Q 2534 397 2845 478 
Q 3156 559 3463 722 
L 3463 178 
Q 3153 47 2828 -22 
Q 2503 -91 2169 -91 
Q 1331 -91 842 396 
Q 353 884 353 1716 
Q 353 2575 817 3079 
Q 1281 3584 2069 3584 
Q 2775 3584 3186 3129 
Q 3597 2675 3597 1894 
z
M 3022 2063 
Q 3016 2534 2758 2815 
Q 2500 3097 2075 3097 
Q 1594 3097 1305 2825 
Q 1016 2553 972 2059 
L 3022 2063 
z
" id="DejaVuSans-65" transform="scale(0.015625)"/>
       <path d="M 544 1381 
L 544 3500 
L 1119 3500 
L 1119 1403 
Q 1119 906 1312 657 
Q 1506 409 1894 409 
Q 2359 409 2629 706 
Q 2900 1003 2900 1516 
L 2900 3500 
L 3475 3500 
L 3475 0 
L 2900 0 
L 2900 538 
Q 2691 219 2414 64 
Q 2138 -91 1772 -91 
Q 1169 -91 856 284 
Q 544 659 544 1381 
z
M 1991 3584 
L 1991 3584 
z
" id="DejaVuSans-75" transform="scale(0.015625)"/>
       <path d="M 2906 2969 
L 2906 4863 
L 3481 4863 
L 3481 0 
L 2906 0 
L 2906 525 
Q 2725 213 2448 61 
Q 2172 -91 1784 -91 
Q 1150 -91 751 415 
Q 353 922 353 1747 
Q 353 2572 751 3078 
Q 1150 3584 1784 3584 
Q 2172 3584 2448 3432 
Q 2725 3281 2906 2969 
z
M 947 1747 
Q 947 1113 1208 752 
Q 1469 391 1925 391 
Q 2381 391 2643 752 
Q 2906 1113 2906 1747 
Q 2906 2381 2643 2742 
Q 2381 3103 1925 3103 
Q 1469 3103 1208 2742 
Q 947 2381 947 1747 
z
" id="DejaVuSans-64" transform="scale(0.015625)"/>
       <path d="M 1959 3097 
Q 1497 3097 1228 2736 
Q 959 2375 959 1747 
Q 959 1119 1226 758 
Q 1494 397 1959 397 
Q 2419 397 2687 759 
Q 2956 1122 2956 1747 
Q 2956 2369 2687 2733 
Q 2419 3097 1959 3097 
z
M 1959 3584 
Q 2709 3584 3137 3096 
Q 3566 2609 3566 1747 
Q 3566 888 3137 398 
Q 2709 -91 1959 -91 
Q 1206 -91 779 398 
Q 353 888 353 1747 
Q 353 2609 779 3096 
Q 1206 3584 1959 3584 
z
" id="DejaVuSans-6f" transform="scale(0.015625)"/>
       <path id="DejaVuSans-20" transform="scale(0.015625)"/>
       <path d="M 1172 4494 
L 1172 3500 
L 2356 3500 
L 2356 3053 
L 1172 3053 
L 1172 1153 
Q 1172 725 1289 603 
Q 1406 481 1766 481 
L 2356 481 
L 2356 0 
L 1766 0 
Q 1100 0 847 248 
Q 594 497 594 1153 
L 594 3053 
L 172 3053 
L 172 3500 
L 594 3500 
L 594 4494 
L 1172 4494 
z
" id="DejaVuSans-74" transform="scale(0.015625)"/>
       <path d="M 603 3500 
L 1178 3500 
L 1178 0 
L 603 0 
L 603 3500 
z
M 603 4863 
L 1178 4863 
L 1178 4134 
L 603 4134 
L 603 4863 
z
" id="DejaVuSans-69" transform="scale(0.015625)"/>
       <path d="M 3328 2828 
Q 3544 3216 3844 3400 
Q 4144 3584 4550 3584 
Q 5097 3584 5394 3201 
Q 5691 2819 5691 2113 
L 5691 0 
L 5113 0 
L 5113 2094 
Q 5113 2597 4934 2840 
Q 4756 3084 4391 3084 
Q 3944 3084 3684 2787 
Q 3425 2491 3425 1978 
L 3425 0 
L 2847 0 
L 2847 2094 
Q 2847 2600 2669 2842 
Q 2491 3084 2119 3084 
Q 1678 3084 1418 2786 
Q 1159 2488 1159 1978 
L 1159 0 
L 581 0 
L 581 3500 
L 1159 3500 
L 1159 2956 
Q 1356 3278 1631 3431 
Q 1906 3584 2284 3584 
Q 2666 3584 2933 3390 
Q 3200 3197 3328 2828 
z
" id="DejaVuSans-6d" transform="scale(0.015625)"/>
      </defs>
      <use xlink:href="#DejaVuSans-70"/>
      <use x="63.476562" xlink:href="#DejaVuSans-73"/>
      <use x="115.576172" xlink:href="#DejaVuSans-65"/>
      <use x="177.099609" xlink:href="#DejaVuSans-75"/>
      <use x="240.478516" xlink:href="#DejaVuSans-64"/>
      <use x="303.955078" xlink:href="#DejaVuSans-6f"/>
      <use x="365.136719" xlink:href="#DejaVuSans-20"/>
      <use x="396.923828" xlink:href="#DejaVuSans-74"/>
      <use x="436.132812" xlink:href="#DejaVuSans-69"/>
      <use x="463.916016" xlink:href="#DejaVuSans-6d"/>
      <use x="561.328125" xlink:href="#DejaVuSans-65"/>
      <use x="622.851562" xlink:href="#DejaVuSans-20"/>
      <use x="654.638672" xlink:href="#DejaVuSans-73"/>
      <use x="706.738281" xlink:href="#DejaVuSans-74"/>
      <use x="745.947266" xlink:href="#DejaVuSans-65"/>
      <use x="807.470703" xlink:href="#DejaVuSans-70"/>
     </g>
    </g>
   </g>
   <g id="matplotlib.axis_2">
    <g id="ytick_1">
     <g id="line2d_13">
      <path clip-path="url(#p6b505663d4)" d="M 64.19 300.04 
L 450 300.04 
" style="fill:none;stroke:#b0b0b0;stroke-dasharray:2.96,1.28;stroke-dashoffset:0;stroke-opacity:0.5;stroke-width:0.8;"/>
     </g>
     <g id="line2d_14">
      <defs>
       <path d="M 0 0 
L -3.5 0 
" id="med5d91f273" style="stroke:#000000;stroke-width:0.8;"/>
      </defs>
      <g>
       <use style="stroke:#000000;stroke-width:0.8;" x="64.19" xlink:href="#med5d91f273" y="300.04"/>
      </g>
     </g>
     <g id="text_8">
      <!-- 0.001 -->
      <g transform="translate(28.561875 303.839219)scale(0.1 -0.1)">
       <defs>
        <path d="M 684 794 
L 1344 794 
L 1344 0 
L 684 0 
L 684 794 
z
" id="DejaVuSans-2e" transform="scale(0.015625)"/>
       </defs>
       <use xlink:href="#DejaVuSans-30"/>
       <use x="63.623047" xlink:href="#DejaVuSans-2e"/>
       <use x="95.410156" xlink:href="#DejaVuSans-30"/>
       <use x="159.033203" xlink:href="#DejaVuSans-30"/>
       <use x="222.65625" xlink:href="#DejaVuSans-31"/>
      </g>
     </g>
    </g>
    <g id="ytick_2">
     <g id="line2d_15">
      <path clip-path="url(#p6b505663d4)" d="M 64.19 268.342222 
L 450 268.342222 
" style="fill:none;stroke:#b0b0b0;stroke-dasharray:2.96,1.28;stroke-dashoffset:0;stroke-opacity:0.5;stroke-width:0.8;"/>
     </g>
     <g id="line2d_16">
      <g>
       <use style="stroke:#000000;stroke-width:0.8;" x="64.19" xlink:href="#med5d91f273" y="268.342222"/>
      </g>
     </g>
     <g id="text_9">
      <!-- 0.002 -->
      <g transform="translate(28.561875 272.141441)scale(0.1 -0.1)">
       <use xlink:href="#DejaVuSans-30"/>
       <use x="63.623047" xlink:href="#DejaVuSans-2e"/>
       <use x="95.410156" xlink:href="#DejaVuSans-30"/>
       <use x="159.033203" xlink:href="#DejaVuSans-30"/>
       <use x="222.65625" xlink:href="#DejaVuSans-32"/>
      </g>
     </g>
    </g>
    <g id="ytick_3">
     <g id="line2d_17">
      <path clip-path="url(#p6b505663d4)" d="M 64.19 236.644444 
L 450 236.644444 
" style="fill:none;stroke:#b0b0b0;stroke-dasharray:2.96,1.28;stroke-dashoffset:0;stroke-opacity:0.5;stroke-width:0.8;"/>
     </g>
     <g id="line2d_18">
      <g>
       <use style="stroke:#000000;stroke-width:0.8;" x="64.19" xlink:href="#med5d91f273" y="236.644444"/>
      </g>
     </g>
     <g id="text_10">
      <!-- 0.003 -->
      <g transform="translate(28.561875 240.443663)scale(0.1 -0.1)">
       <use xlink:href="#DejaVuSans-30"/>
       <use x="63.623047" xlink:href="#DejaVuSans-2e"/>
       <use x="95.410156" xlink:href="#DejaVuSans-30"/>
       <use x="159.033203" xlink:href="#DejaVuSans-30"/>
       <use x="222.65625" xlink:href="#DejaVuSans-33"/>
      </g>
     </g>
    </g>
    <g id="ytick_4">
     <g id="line2d_19">
      <path clip-path="url(#p6b505663d4)" d="M 64.19 204.946667 
L 450 204.946667 
" style="fill:none;stroke:#b0b0b0;stroke-dasharray:2.96,1.28;stroke-dashoffset:0;stroke-opacity:0.5;stroke-width:0.8;"/>
     </g>
     <g id="line2d_20">
      <g>
       <use style="stroke:#000000;stroke-width:0.8;" x="64.19" xlink:href="#med5d91f273" y="204.946667"/>
      </g>
     </g>
     <g id="text_11">
      <!-- 0.004 -->
      <g transform="translate(28.561875 208.745885)scale(0.1 -0.1)">
       <use xlink:href="#DejaVuSans-30"/>
       <use x="63.623047" xlink:href="#DejaVuSans-2e"/>
       <use x="95.410156" xlink:href="#DejaVuSans-30"/>
       <use x="159.033203" xlink:href="#DejaVuSans-30"/>
       <use x="222.65625" xlink:href="#DejaVuSans-34"/>
      </g>
     </g>
    </g>
    <g id="ytick_5">
     <g id="line2d_21">
      <path clip-path="url(#p6b505663d4)" d="M 64.19 173.248889 
L 450 173.248889 
" style="fill:none;stroke:#b0b0b0;stroke-dasharray:2.96,1.28;stroke-dashoffset:0;stroke-opacity:0.5;stroke-width:0.8;"/>
     </g>
     <g id="line2d_22">
      <g>
       <use style="stroke:#000000;stroke-width:0.8;" x="64.19" xlink:href="#med5d91f273" y="173.248889"/>
      </g>
     </g>
     <g id="text_12">
      <!-- 0.005 -->
      <g transform="translate(28.561875 177.048108)scale(0.1 -0.1)">
       <use xlink:href="#DejaVuSans-30"/>
       <use x="63.623047" xlink:href="#DejaVuSans-2e"/>
       <use x="95.410156" xlink:href="#DejaVuSans-30"/>
       <use x="159.033203" xlink:href="#DejaVuSans-30"/>
       <use x="222.65625" xlink:href="#DejaVuSans-35"/>
      </g>
     </g>
    </g>
    <g id="ytick_6">
     <g id="line2d_23">
      <path clip-path="url(#p6b505663d4)" d="M 64.19 141.551111 
L 450 141.551111 
" style="fill:none;stroke:#b0b0b0;stroke-dasharray:2.96,1.28;stroke-dashoffset:0;stroke-opacity:0.5;stroke-width:0.8;"/>
     </g>
     <g id="line2d_24">
      <g>
       <use style="stroke:#000000;stroke-width:0.8;" x="64.19" xlink:href="#med5d91f273" y="141.551111"/>
      </g>
     </g>
     <g id="text_13">
      <!-- 0.006 -->
      <g transform="translate(28.561875 145.35033)scale(0.1 -0.1)">
       <defs>
        <path d="M 2113 2584 
Q 1688 2584 1439 2293 
Q 1191 2003 1191 1497 
Q 1191 994 1439 701 
Q 1688 409 2113 409 
Q 2538 409 2786 701 
Q 3034 994 3034 1497 
Q 3034 2003 2786 2293 
Q 2538 2584 2113 2584 
z
M 3366 4563 
L 3366 3988 
Q 3128 4100 2886 4159 
Q 2644 4219 2406 4219 
Q 1781 4219 1451 3797 
Q 1122 3375 1075 2522 
Q 1259 2794 1537 2939 
Q 1816 3084 2150 3084 
Q 2853 3084 3261 2657 
Q 3669 2231 3669 1497 
Q 3669 778 3244 343 
Q 2819 -91 2113 -91 
Q 1303 -91 875 529 
Q 447 1150 447 2328 
Q 447 3434 972 4092 
Q 1497 4750 2381 4750 
Q 2619 4750 2861 4703 
Q 3103 4656 3366 4563 
z
" id="DejaVuSans-36" transform="scale(0.015625)"/>
       </defs>
       <use xlink:href="#DejaVuSans-30"/>
       <use x="63.623047" xlink:href="#DejaVuSans-2e"/>
       <use x="95.410156" xlink:href="#DejaVuSans-30"/>
       <use x="159.033203" xlink:href="#DejaVuSans-30"/>
       <use x="222.65625" xlink:href="#DejaVuSans-36"/>
      </g>
     </g>
    </g>
    <g id="ytick_7">
     <g id="line2d_25">
      <path clip-path="url(#p6b505663d4)" d="M 64.19 109.853333 
L 450 109.853333 
" style="fill:none;stroke:#b0b0b0;stroke-dasharray:2.96,1.28;stroke-dashoffset:0;stroke-opacity:0.5;stroke-width:0.8;"/>
     </g>
     <g id="line2d_26">
      <g>
       <use style="stroke:#000000;stroke-width:0.8;" x="64.19" xlink:href="#med5d91f273" y="109.853333"/>
      </g>
     </g>
     <g id="text_14">
      <!-- 0.007 -->
      <g transform="translate(28.561875 113.652552)scale(0.1 -0.1)">
       <defs>
        <path d="M 525 4666 
L 3525 4666 
L 3525 4397 
L 1831 0 
L 1172 0 
L 2766 4134 
L 525 4134 
L 525 4666 
z
" id="DejaVuSans-37" transform="scale(0.015625)"/>
       </defs>
       <use xlink:href="#DejaVuSans-30"/>
       <use x="63.623047" xlink:href="#DejaVuSans-2e"/>
       <use x="95.410156" xlink:href="#DejaVuSans-30"/>
       <use x="159.033203" xlink:href="#DejaVuSans-30"/>
       <use x="222.65625" xlink:href="#DejaVuSans-37"/>
      </g>
     </g>
    </g>
    <g id="ytick_8">
     <g id="line2d_27">
      <path clip-path="url(#p6b505663d4)" d="M 64.19 78.155556 
L 450 78.155556 
" style="fill:none;stroke:#b0b0b0;stroke-dasharray:2.96,1.28;stroke-dashoffset:0;stroke-opacity:0.5;stroke-width:0.8;"/>
     </g>
     <g id="line2d_28">
      <g>
       <use style="stroke:#000000;stroke-width:0.8;" x="64.19" xlink:href="#med5d91f273" y="78.155556"/>
      </g>
     </g>
     <g id="text_15">
      <!-- 0.008 -->
      <g transform="translate(28.561875 81.954774)scale(0.1 -0.1)">
       <defs>
        <path d="M 2034 2216 
Q 1584 2216 1326 1975 
Q 1069 1734 1069 1313 
Q 1069 891 1326 650 
Q 1584 409 2034 409 
Q 2484 409 2743 651 
Q 3003 894 3003 1313 
Q 3003 1734 2745 1975 
Q 2488 2216 2034 2216 
z
M 1403 2484 
Q 997 2584 770 2862 
Q 544 3141 544 3541 
Q 544 4100 942 4425 
Q 1341 4750 2034 4750 
Q 2731 4750 3128 4425 
Q 3525 4100 3525 3541 
Q 3525 3141 3298 2862 
Q 3072 2584 2669 2484 
Q 3125 2378 3379 2068 
Q 3634 1759 3634 1313 
Q 3634 634 3220 271 
Q 2806 -91 2034 -91 
Q 1263 -91 848 271 
Q 434 634 434 1313 
Q 434 1759 690 2068 
Q 947 2378 1403 2484 
z
M 1172 3481 
Q 1172 3119 1398 2916 
Q 1625 2713 2034 2713 
Q 2441 2713 2670 2916 
Q 2900 3119 2900 3481 
Q 2900 3844 2670 4047 
Q 2441 4250 2034 4250 
Q 1625 4250 1398 4047 
Q 1172 3844 1172 3481 
z
" id="DejaVuSans-38" transform="scale(0.015625)"/>
       </defs>
       <use xlink:href="#DejaVuSans-30"/>
       <use x="63.623047" xlink:href="#DejaVuSans-2e"/>
       <use x="95.410156" xlink:href="#DejaVuSans-30"/>
       <use x="159.033203" xlink:href="#DejaVuSans-30"/>
       <use x="222.65625" xlink:href="#DejaVuSans-38"/>
      </g>
     </g>
    </g>
    <g id="ytick_9">
     <g id="line2d_29">
      <path clip-path="url(#p6b505663d4)" d="M 64.19 46.457778 
L 450 46.457778 
" style="fill:none;stroke:#b0b0b0;stroke-dasharray:2.96,1.28;stroke-dashoffset:0;stroke-opacity:0.5;stroke-width:0.8;"/>
     </g>
     <g id="line2d_30">
      <g>
       <use style="stroke:#000000;stroke-width:0.8;" x="64.19" xlink:href="#med5d91f273" y="46.457778"/>
      </g>
     </g>
     <g id="text_16">
      <!-- 0.009 -->
      <g transform="translate(28.561875 50.256997)scale(0.1 -0.1)">
       <defs>
        <path d="M 703 97 
L 703 672 
Q 941 559 1184 500 
Q 1428 441 1663 441 
Q 2288 441 2617 861 
Q 2947 1281 2994 2138 
Q 2813 1869 2534 1725 
Q 2256 1581 1919 1581 
Q 1219 1581 811 2004 
Q 403 2428 403 3163 
Q 403 3881 828 4315 
Q 1253 4750 1959 4750 
Q 2769 4750 3195 4129 
Q 3622 3509 3622 2328 
Q 3622 1225 3098 567 
Q 2575 -91 1691 -91 
Q 1453 -91 1209 -44 
Q 966 3 703 97 
z
M 1959 2075 
Q 2384 2075 2632 2365 
Q 2881 2656 2881 3163 
Q 2881 3666 2632 3958 
Q 2384 4250 1959 4250 
Q 1534 4250 1286 3958 
Q 1038 3666 1038 3163 
Q 1038 2656 1286 2365 
Q 1534 2075 1959 2075 
z
" id="DejaVuSans-39" transform="scale(0.015625)"/>
       </defs>
       <use xlink:href="#DejaVuSans-30"/>
       <use x="63.623047" xlink:href="#DejaVuSans-2e"/>
       <use x="95.410156" xlink:href="#DejaVuSans-30"/>
       <use x="159.033203" xlink:href="#DejaVuSans-30"/>
       <use x="222.65625" xlink:href="#DejaVuSans-39"/>
      </g>
     </g>
    </g>
    <g id="ytick_10">
     <g id="line2d_31">
      <path clip-path="url(#p6b505663d4)" d="M 64.19 14.76 
L 450 14.76 
" style="fill:none;stroke:#b0b0b0;stroke-dasharray:2.96,1.28;stroke-dashoffset:0;stroke-opacity:0.5;stroke-width:0.8;"/>
     </g>
     <g id="line2d_32">
      <g>
       <use style="stroke:#000000;stroke-width:0.8;" x="64.19" xlink:href="#med5d91f273" y="14.76"/>
      </g>
     </g>
     <g id="text_17">
      <!-- 0.010 -->
      <g transform="translate(28.561875 18.559219)scale(0.1 -0.1)">
       <use xlink:href="#DejaVuSans-30"/>
       <use x="63.623047" xlink:href="#DejaVuSans-2e"/>
       <use x="95.410156" xlink:href="#DejaVuSans-30"/>
       <use x="159.033203" xlink:href="#DejaVuSans-31"/>
       <use x="222.65625" xlink:href="#DejaVuSans-30"/>
      </g>
     </g>
    </g>
    <g id="text_18">
     <!-- thrust coeffcient -->
     <g transform="translate(21.650313 215.15875)rotate(-90)scale(0.14 -0.14)">
      <defs>
       <path d="M 3513 2113 
L 3513 0 
L 2938 0 
L 2938 2094 
Q 2938 2591 2744 2837 
Q 2550 3084 2163 3084 
Q 1697 3084 1428 2787 
Q 1159 2491 1159 1978 
L 1159 0 
L 581 0 
L 581 4863 
L 1159 4863 
L 1159 2956 
Q 1366 3272 1645 3428 
Q 1925 3584 2291 3584 
Q 2894 3584 3203 3211 
Q 3513 2838 3513 2113 
z
" id="DejaVuSans-68" transform="scale(0.015625)"/>
       <path d="M 2631 2963 
Q 2534 3019 2420 3045 
Q 2306 3072 2169 3072 
Q 1681 3072 1420 2755 
Q 1159 2438 1159 1844 
L 1159 0 
L 581 0 
L 581 3500 
L 1159 3500 
L 1159 2956 
Q 1341 3275 1631 3429 
Q 1922 3584 2338 3584 
Q 2397 3584 2469 3576 
Q 2541 3569 2628 3553 
L 2631 2963 
z
" id="DejaVuSans-72" transform="scale(0.015625)"/>
       <path d="M 3122 3366 
L 3122 2828 
Q 2878 2963 2633 3030 
Q 2388 3097 2138 3097 
Q 1578 3097 1268 2742 
Q 959 2388 959 1747 
Q 959 1106 1268 751 
Q 1578 397 2138 397 
Q 2388 397 2633 464 
Q 2878 531 3122 666 
L 3122 134 
Q 2881 22 2623 -34 
Q 2366 -91 2075 -91 
Q 1284 -91 818 406 
Q 353 903 353 1747 
Q 353 2603 823 3093 
Q 1294 3584 2113 3584 
Q 2378 3584 2631 3529 
Q 2884 3475 3122 3366 
z
" id="DejaVuSans-63" transform="scale(0.015625)"/>
       <path d="M 2375 4863 
L 2375 4384 
L 1825 4384 
Q 1516 4384 1395 4259 
Q 1275 4134 1275 3809 
L 1275 3500 
L 2222 3500 
L 2222 3053 
L 1275 3053 
L 1275 0 
L 697 0 
L 697 3053 
L 147 3053 
L 147 3500 
L 697 3500 
L 697 3744 
Q 697 4328 969 4595 
Q 1241 4863 1831 4863 
L 2375 4863 
z
" id="DejaVuSans-66" transform="scale(0.015625)"/>
       <path d="M 3513 2113 
L 3513 0 
L 2938 0 
L 2938 2094 
Q 2938 2591 2744 2837 
Q 2550 3084 2163 3084 
Q 1697 3084 1428 2787 
Q 1159 2491 1159 1978 
L 1159 0 
L 581 0 
L 581 3500 
L 1159 3500 
L 1159 2956 
Q 1366 3272 1645 3428 
Q 1925 3584 2291 3584 
Q 2894 3584 3203 3211 
Q 3513 2838 3513 2113 
z
" id="DejaVuSans-6e" transform="scale(0.015625)"/>
      </defs>
      <use xlink:href="#DejaVuSans-74"/>
      <use x="39.208984" xlink:href="#DejaVuSans-68"/>
      <use x="102.587891" xlink:href="#DejaVuSans-72"/>
      <use x="143.701172" xlink:href="#DejaVuSans-75"/>
      <use x="207.080078" xlink:href="#DejaVuSans-73"/>
      <use x="259.179688" xlink:href="#DejaVuSans-74"/>
      <use x="298.388672" xlink:href="#DejaVuSans-20"/>
      <use x="330.175781" xlink:href="#DejaVuSans-63"/>
      <use x="385.15625" xlink:href="#DejaVuSans-6f"/>
      <use x="446.337891" xlink:href="#DejaVuSans-65"/>
      <use x="507.861328" xlink:href="#DejaVuSans-66"/>
      <use x="543.066406" xlink:href="#DejaVuSans-66"/>
      <use x="578.271484" xlink:href="#DejaVuSans-63"/>
      <use x="633.251953" xlink:href="#DejaVuSans-69"/>
      <use x="661.035156" xlink:href="#DejaVuSans-65"/>
      <use x="722.558594" xlink:href="#DejaVuSans-6e"/>
      <use x="785.9375" xlink:href="#DejaVuSans-74"/>
     </g>
    </g>
   </g>
   <g id="line2d_33">
    <path clip-path="url(#p6b505663d4)" d="M 81.726818 253.656456 
L 88.537233 255.683484 
L 95.347648 256.897849 
L 102.158063 257.453024 
L 108.968477 257.811417 
L 115.778892 258.169416 
L 122.589307 258.540614 
L 129.399722 258.915274 
L 136.210137 259.328281 
L 143.020552 259.863634 
L 149.830966 260.576694 
L 156.641381 261.361251 
L 163.451796 262.018327 
L 170.262211 262.516132 
L 177.072626 263.072958 
L 183.883041 263.890446 
L 190.693455 264.878983 
L 197.50387 265.497299 
L 204.314285 265.418323 
L 211.1247 265.62385 
L 217.935115 266.301411 
L 224.74553 266.667777 
L 231.555944 266.746465 
L 238.366359 266.65752 
L 245.176774 266.762862 
L 251.987189 266.881549 
L 258.797604 266.788202 
L 265.608019 266.889293 
L 272.418433 266.951727 
L 279.228848 266.990832 
L 286.039263 267.095925 
L 292.849678 267.17304 
L 299.660093 267.255137 
L 306.470508 267.301525 
L 313.280922 267.365809 
L 320.091337 267.402641 
L 326.901752 267.444302 
L 333.712167 267.480002 
L 340.522582 267.513691 
L 347.332996 267.543197 
L 354.143411 267.569267 
L 360.953826 267.590033 
L 367.764241 267.606458 
L 374.574656 267.617932 
L 381.385071 267.625451 
L 388.195485 267.630333 
L 395.0059 267.633457 
L 401.816315 267.635379 
L 408.62673 267.636518 
L 415.437145 267.637169 
L 422.24756 267.637527 
L 424.290684 267.637596 
" style="fill:none;stroke:#1f77b4;stroke-linecap:square;stroke-width:1.5;"/>
   </g>
   <g id="line2d_34">
    <path clip-path="url(#p6b505663d4)" d="M 81.726818 200.60028 
L 88.537233 203.971898 
L 95.347648 206.099162 
L 102.158063 207.204167 
L 108.968477 207.985957 
L 115.778892 208.737396 
L 122.589307 209.468996 
L 129.399722 210.153576 
L 136.210137 210.828129 
L 143.020552 211.604108 
L 149.830966 212.57541 
L 156.641381 213.654171 
L 163.451796 214.631883 
L 170.262211 215.473187 
L 177.072626 216.417428 
L 183.883041 217.667827 
L 190.693455 219.10231 
L 197.50387 220.028702 
L 204.314285 220.002089 
L 211.1247 220.349534 
L 217.935115 221.441676 
L 224.74553 222.163791 
L 231.555944 222.33746 
L 238.366359 222.257614 
L 245.176774 222.510878 
L 251.987189 222.718866 
L 258.797604 222.611295 
L 265.608019 222.779221 
L 272.418433 222.850224 
L 279.228848 222.892942 
L 286.039263 223.024914 
L 292.849678 223.130665 
L 299.660093 223.246018 
L 306.470508 223.314329 
L 313.280922 223.42099 
L 320.091337 223.482616 
L 326.901752 223.552979 
L 333.712167 223.611474 
L 340.522582 223.665849 
L 347.332996 223.712897 
L 354.143411 223.754529 
L 360.953826 223.787503 
L 367.764241 223.813668 
L 374.574656 223.831798 
L 381.385071 223.843576 
L 388.195485 223.851185 
L 395.0059 223.856031 
L 401.816315 223.859002 
L 408.62673 223.860752 
L 415.437145 223.861748 
L 422.24756 223.862292 
L 428.376933 223.862551 
" style="fill:none;stroke:#ff7f0e;stroke-linecap:square;stroke-width:1.5;"/>
   </g>
   <g id="line2d_35">
    <path clip-path="url(#p6b505663d4)" d="M 81.726818 148.008128 
L 88.537233 152.84602 
L 95.347648 155.98262 
L 102.158063 157.71431 
L 108.968477 158.986261 
L 115.778892 160.191787 
L 122.589307 161.336887 
L 129.399722 162.375683 
L 136.210137 163.350059 
L 143.020552 164.401812 
L 149.830966 165.660454 
L 156.641381 167.049926 
L 163.451796 168.358448 
L 170.262211 169.547671 
L 177.072626 170.86944 
L 183.883041 172.540759 
L 190.693455 174.423132 
L 197.50387 175.661159 
L 204.314285 175.676154 
L 211.1247 176.156169 
L 217.935115 177.651293 
L 224.74553 178.703595 
L 231.555944 178.957654 
L 238.366359 178.882723 
L 245.176774 179.270962 
L 251.987189 179.56076 
L 258.797604 179.440071 
L 265.608019 179.672283 
L 272.418433 179.749456 
L 279.228848 179.793483 
L 286.039263 179.949939 
L 292.849678 180.082432 
L 299.660093 180.227106 
L 306.470508 180.313963 
L 313.280922 180.460299 
L 320.091337 180.543445 
L 326.901752 180.640102 
L 333.712167 180.71902 
L 340.522582 180.792049 
L 347.332996 180.854788 
L 354.143411 180.910382 
L 360.953826 180.954101 
L 367.764241 180.988811 
L 374.574656 181.012642 
L 381.385071 181.02799 
L 388.195485 181.037873 
L 395.0059 181.044151 
L 401.816315 181.047983 
L 408.62673 181.050229 
L 415.437145 181.0515 
L 422.24756 181.05219 
L 429.057974 181.052541 
L 431.101099 181.052605 
" style="fill:none;stroke:#2ca02c;stroke-linecap:square;stroke-width:1.5;"/>
   </g>
   <g id="line2d_36">
    <path clip-path="url(#p6b505663d4)" d="M 81.726818 105.990412 
L 88.537233 111.978125 
L 95.347648 115.933271 
L 102.158063 118.195266 
L 108.968477 119.891583 
L 115.778892 121.490287 
L 122.589307 122.99176 
L 129.399722 124.334373 
L 136.210137 125.561149 
L 143.020552 126.837508 
L 149.830966 128.323899 
L 156.641381 129.957746 
L 163.451796 131.523874 
L 170.262211 132.98265 
L 177.072626 134.59719 
L 183.883041 136.595731 
L 190.693455 138.8274 
L 197.50387 140.310165 
L 204.314285 140.356196 
L 211.1247 140.940801 
L 217.935115 142.757763 
L 224.74553 144.06568 
L 231.555944 144.378279 
L 238.366359 144.304695 
L 245.176774 144.794151 
L 251.987189 145.145854 
L 258.797604 145.013563 
L 265.608019 145.295784 
L 272.418433 145.376398 
L 279.228848 145.419979 
L 286.039263 145.59603 
L 292.849678 145.749917 
L 299.660093 145.916826 
L 306.470508 146.017196 
L 313.280922 146.194705 
L 320.091337 146.293525 
L 326.901752 146.410455 
L 333.712167 146.504771 
L 340.522582 146.59204 
L 347.332996 146.666649 
L 354.143411 146.732865 
L 360.953826 146.784601 
L 367.764241 146.825669 
L 374.574656 146.853651 
L 381.385071 146.871545 
L 388.195485 146.883045 
L 395.0059 146.890338 
L 401.816315 146.894774 
L 408.62673 146.897364 
L 415.437145 146.898822 
L 422.24756 146.899609 
L 429.057974 146.900008 
L 432.463182 146.900122 
" style="fill:none;stroke:#d62728;stroke-linecap:square;stroke-width:1.5;"/>
   </g>
   <g id="patch_3">
    <path d="M 64.19 300.04 
L 64.19 14.76 
" style="fill:none;stroke:#000000;stroke-linecap:square;stroke-linejoin:miter;stroke-width:0.8;"/>
   </g>
   <g id="patch_4">
    <path d="M 450 300.04 
L 450 14.76 
" style="fill:none;stroke:#000000;stroke-linecap:square;stroke-linejoin:miter;stroke-width:0.8;"/>
   </g>
   <g id="patch_5">
    <path d="M 64.19 300.04 
L 450 300.04 
" style="fill:none;stroke:#000000;stroke-linecap:square;stroke-linejoin:miter;stroke-width:0.8;"/>
   </g>
   <g id="patch_6">
    <path d="M 64.19 14.76 
L 450 14.76 
" style="fill:none;stroke:#000000;stroke-linecap:square;stroke-linejoin:miter;stroke-width:0.8;"/>
   </g>
   <g id="legend_1">
    <g id="patch_7">
     <path d="M 309.3 82.36 
L 443 82.36 
Q 445 82.36 445 80.36 
L 445 21.76 
Q 445 19.76 443 19.76 
L 309.3 19.76 
Q 307.3 19.76 307.3 21.76 
L 307.3 80.36 
Q 307.3 82.36 309.3 82.36 
z
" style="fill:#ffffff;opacity:0.8;stroke:#cccccc;stroke-linejoin:miter;"/>
    </g>
    <g id="line2d_37">
     <path d="M 311.3 28.06 
L 331.3 28.06 
" style="fill:none;stroke:#1f77b4;stroke-linecap:square;stroke-width:1.5;"/>
    </g>
    <g id="line2d_38"/>
    <g id="text_19">
     <!-- airplane, $\theta_{75}=26^o$ -->
     <g transform="translate(339.3 31.56)scale(0.1 -0.1)">
      <defs>
       <path d="M 2194 1759 
Q 1497 1759 1228 1600 
Q 959 1441 959 1056 
Q 959 750 1161 570 
Q 1363 391 1709 391 
Q 2188 391 2477 730 
Q 2766 1069 2766 1631 
L 2766 1759 
L 2194 1759 
z
M 3341 1997 
L 3341 0 
L 2766 0 
L 2766 531 
Q 2569 213 2275 61 
Q 1981 -91 1556 -91 
Q 1019 -91 701 211 
Q 384 513 384 1019 
Q 384 1609 779 1909 
Q 1175 2209 1959 2209 
L 2766 2209 
L 2766 2266 
Q 2766 2663 2505 2880 
Q 2244 3097 1772 3097 
Q 1472 3097 1187 3025 
Q 903 2953 641 2809 
L 641 3341 
Q 956 3463 1253 3523 
Q 1550 3584 1831 3584 
Q 2591 3584 2966 3190 
Q 3341 2797 3341 1997 
z
" id="DejaVuSans-61" transform="scale(0.015625)"/>
       <path d="M 603 4863 
L 1178 4863 
L 1178 0 
L 603 0 
L 603 4863 
z
" id="DejaVuSans-6c" transform="scale(0.015625)"/>
       <path d="M 750 794 
L 1409 794 
L 1409 256 
L 897 -744 
L 494 -744 
L 750 256 
L 750 794 
z
" id="DejaVuSans-2c" transform="scale(0.015625)"/>
       <path d="M 2913 2219 
L 925 2219 
Q 791 1284 928 888 
Q 1100 400 1566 400 
Q 2034 400 2391 891 
Q 2703 1322 2913 2219 
z
M 3009 2750 
Q 3094 3638 2984 3950 
Q 2813 4444 2353 4444 
Q 1875 4444 1525 3956 
Q 1250 3563 1034 2750 
L 3009 2750 
z
M 2444 4913 
Q 3194 4913 3494 4250 
Q 3794 3591 3566 2422 
Q 3341 1256 2781 594 
Q 2225 -72 1475 -72 
Q 722 -72 425 594 
Q 128 1256 353 2422 
Q 581 3591 1134 4250 
Q 1691 4913 2444 4913 
z
" id="DejaVuSans-Oblique-3b8" transform="scale(0.015625)"/>
       <path d="M 678 2906 
L 4684 2906 
L 4684 2381 
L 678 2381 
L 678 2906 
z
M 678 1631 
L 4684 1631 
L 4684 1100 
L 678 1100 
L 678 1631 
z
" id="DejaVuSans-3d" transform="scale(0.015625)"/>
       <path d="M 1625 -91 
Q 1009 -91 651 289 
Q 294 669 294 1325 
Q 294 1706 417 2101 
Q 541 2497 738 2766 
Q 1047 3184 1428 3384 
Q 1809 3584 2291 3584 
Q 2888 3584 3255 3212 
Q 3622 2841 3622 2241 
Q 3622 1825 3500 1412 
Q 3378 1000 3181 728 
Q 2875 309 2494 109 
Q 2113 -91 1625 -91 
z
M 891 1344 
Q 891 869 1089 633 
Q 1288 397 1691 397 
Q 2269 397 2648 901 
Q 3028 1406 3028 2181 
Q 3028 2634 2825 2865 
Q 2622 3097 2228 3097 
Q 1903 3097 1650 2945 
Q 1397 2794 1197 2484 
Q 1050 2253 970 1956 
Q 891 1659 891 1344 
z
" id="DejaVuSans-Oblique-6f" transform="scale(0.015625)"/>
      </defs>
      <use transform="translate(0 0.51875)" xlink:href="#DejaVuSans-61"/>
      <use transform="translate(61.279297 0.51875)" xlink:href="#DejaVuSans-69"/>
      <use transform="translate(89.0625 0.51875)" xlink:href="#DejaVuSans-72"/>
      <use transform="translate(130.175781 0.51875)" xlink:href="#DejaVuSans-70"/>
      <use transform="translate(193.652344 0.51875)" xlink:href="#DejaVuSans-6c"/>
      <use transform="translate(221.435547 0.51875)" xlink:href="#DejaVuSans-61"/>
      <use transform="translate(282.714844 0.51875)" xlink:href="#DejaVuSans-6e"/>
      <use transform="translate(346.09375 0.51875)" xlink:href="#DejaVuSans-65"/>
      <use transform="translate(407.617188 0.51875)" xlink:href="#DejaVuSans-2c"/>
      <use transform="translate(439.404297 0.51875)" xlink:href="#DejaVuSans-20"/>
      <use transform="translate(471.191406 0.51875)" xlink:href="#DejaVuSans-Oblique-3b8"/>
      <use transform="translate(532.373047 -15.8875)scale(0.7)" xlink:href="#DejaVuSans-37"/>
      <use transform="translate(576.90918 -15.8875)scale(0.7)" xlink:href="#DejaVuSans-35"/>
      <use transform="translate(643.662109 0.51875)" xlink:href="#DejaVuSans-3d"/>
      <use transform="translate(746.933594 0.51875)" xlink:href="#DejaVuSans-32"/>
      <use transform="translate(810.556641 0.51875)" xlink:href="#DejaVuSans-36"/>
      <use transform="translate(875.136719 38.8)scale(0.7)" xlink:href="#DejaVuSans-Oblique-6f"/>
     </g>
    </g>
    <g id="line2d_39">
     <path d="M 311.3 42.96 
L 331.3 42.96 
" style="fill:none;stroke:#ff7f0e;stroke-linecap:square;stroke-width:1.5;"/>
    </g>
    <g id="line2d_40"/>
    <g id="text_20">
     <!-- airplane, $\theta_{75}=27^o$ -->
     <g transform="translate(339.3 46.46)scale(0.1 -0.1)">
      <use transform="translate(0 0.51875)" xlink:href="#DejaVuSans-61"/>
      <use transform="translate(61.279297 0.51875)" xlink:href="#DejaVuSans-69"/>
      <use transform="translate(89.0625 0.51875)" xlink:href="#DejaVuSans-72"/>
      <use transform="translate(130.175781 0.51875)" xlink:href="#DejaVuSans-70"/>
      <use transform="translate(193.652344 0.51875)" xlink:href="#DejaVuSans-6c"/>
      <use transform="translate(221.435547 0.51875)" xlink:href="#DejaVuSans-61"/>
      <use transform="translate(282.714844 0.51875)" xlink:href="#DejaVuSans-6e"/>
      <use transform="translate(346.09375 0.51875)" xlink:href="#DejaVuSans-65"/>
      <use transform="translate(407.617188 0.51875)" xlink:href="#DejaVuSans-2c"/>
      <use transform="translate(439.404297 0.51875)" xlink:href="#DejaVuSans-20"/>
      <use transform="translate(471.191406 0.51875)" xlink:href="#DejaVuSans-Oblique-3b8"/>
      <use transform="translate(532.373047 -15.8875)scale(0.7)" xlink:href="#DejaVuSans-37"/>
      <use transform="translate(576.90918 -15.8875)scale(0.7)" xlink:href="#DejaVuSans-35"/>
      <use transform="translate(643.662109 0.51875)" xlink:href="#DejaVuSans-3d"/>
      <use transform="translate(746.933594 0.51875)" xlink:href="#DejaVuSans-32"/>
      <use transform="translate(810.556641 0.51875)" xlink:href="#DejaVuSans-37"/>
      <use transform="translate(875.136719 38.8)scale(0.7)" xlink:href="#DejaVuSans-Oblique-6f"/>
     </g>
    </g>
    <g id="line2d_41">
     <path d="M 311.3 57.86 
L 331.3 57.86 
" style="fill:none;stroke:#2ca02c;stroke-linecap:square;stroke-width:1.5;"/>
    </g>
    <g id="line2d_42"/>
    <g id="text_21">
     <!-- airplane, $\theta_{75}=28^o$ -->
     <g transform="translate(339.3 61.36)scale(0.1 -0.1)">
      <use transform="translate(0 0.51875)" xlink:href="#DejaVuSans-61"/>
      <use transform="translate(61.279297 0.51875)" xlink:href="#DejaVuSans-69"/>
      <use transform="translate(89.0625 0.51875)" xlink:href="#DejaVuSans-72"/>
      <use transform="translate(130.175781 0.51875)" xlink:href="#DejaVuSans-70"/>
      <use transform="translate(193.652344 0.51875)" xlink:href="#DejaVuSans-6c"/>
      <use transform="translate(221.435547 0.51875)" xlink:href="#DejaVuSans-61"/>
      <use transform="translate(282.714844 0.51875)" xlink:href="#DejaVuSans-6e"/>
      <use transform="translate(346.09375 0.51875)" xlink:href="#DejaVuSans-65"/>
      <use transform="translate(407.617188 0.51875)" xlink:href="#DejaVuSans-2c"/>
      <use transform="translate(439.404297 0.51875)" xlink:href="#DejaVuSans-20"/>
      <use transform="translate(471.191406 0.51875)" xlink:href="#DejaVuSans-Oblique-3b8"/>
      <use transform="translate(532.373047 -15.8875)scale(0.7)" xlink:href="#DejaVuSans-37"/>
      <use transform="translate(576.90918 -15.8875)scale(0.7)" xlink:href="#DejaVuSans-35"/>
      <use transform="translate(643.662109 0.51875)" xlink:href="#DejaVuSans-3d"/>
      <use transform="translate(746.933594 0.51875)" xlink:href="#DejaVuSans-32"/>
      <use transform="translate(810.556641 0.51875)" xlink:href="#DejaVuSans-38"/>
      <use transform="translate(875.136719 38.8)scale(0.7)" xlink:href="#DejaVuSans-Oblique-6f"/>
     </g>
    </g>
    <g id="line2d_43">
     <path d="M 311.3 72.76 
L 331.3 72.76 
" style="fill:none;stroke:#d62728;stroke-linecap:square;stroke-width:1.5;"/>
    </g>
    <g id="line2d_44"/>
    <g id="text_22">
     <!-- airplane, $\theta_{75}=28.8^o$ -->
     <g transform="translate(339.3 76.26)scale(0.1 -0.1)">
      <use transform="translate(0 0.51875)" xlink:href="#DejaVuSans-61"/>
      <use transform="translate(61.279297 0.51875)" xlink:href="#DejaVuSans-69"/>
      <use transform="translate(89.0625 0.51875)" xlink:href="#DejaVuSans-72"/>
      <use transform="translate(130.175781 0.51875)" xlink:href="#DejaVuSans-70"/>
      <use transform="translate(193.652344 0.51875)" xlink:href="#DejaVuSans-6c"/>
      <use transform="translate(221.435547 0.51875)" xlink:href="#DejaVuSans-61"/>
      <use transform="translate(282.714844 0.51875)" xlink:href="#DejaVuSans-6e"/>
      <use transform="translate(346.09375 0.51875)" xlink:href="#DejaVuSans-65"/>
      <use transform="translate(407.617188 0.51875)" xlink:href="#DejaVuSans-2c"/>
      <use transform="translate(439.404297 0.51875)" xlink:href="#DejaVuSans-20"/>
      <use transform="translate(471.191406 0.51875)" xlink:href="#DejaVuSans-Oblique-3b8"/>
      <use transform="translate(532.373047 -15.8875)scale(0.7)" xlink:href="#DejaVuSans-37"/>
      <use transform="translate(576.90918 -15.8875)scale(0.7)" xlink:href="#DejaVuSans-35"/>
      <use transform="translate(643.662109 0.51875)" xlink:href="#DejaVuSans-3d"/>
      <use transform="translate(746.933594 0.51875)" xlink:href="#DejaVuSans-32"/>
      <use transform="translate(810.556641 0.51875)" xlink:href="#DejaVuSans-38"/>
      <use transform="translate(874.179688 0.51875)" xlink:href="#DejaVuSans-2e"/>
      <use transform="translate(905.966797 0.51875)" xlink:href="#DejaVuSans-38"/>
      <use transform="translate(970.546875 38.8)scale(0.7)" xlink:href="#DejaVuSans-Oblique-6f"/>
     </g>
    </g>
   </g>
  </g>
 </g>
 <defs>
  <clipPath id="p6b505663d4">
   <rect height="285.28" width="385.81" x="64.19" y="14.76"/>
  </clipPath>
 </defs>
</svg>
