<?xml version="1.0" encoding="utf-8" standalone="no"?>
<!DOCTYPE svg PUBLIC "-//W3C//DTD SVG 1.1//EN"
  "http://www.w3.org/Graphics/SVG/1.1/DTD/svg11.dtd">
<svg height="345.6pt" version="1.1" viewBox="0 0 460.8 345.6" width="460.8pt" xmlns="http://www.w3.org/2000/svg" xmlns:xlink="http://www.w3.org/1999/xlink">
 <metadata>
  <rdf:RDF xmlns:cc="http://creativecommons.org/ns#" xmlns:dc="http://purl.org/dc/elements/1.1/" xmlns:rdf="http://www.w3.org/1999/02/22-rdf-syntax-ns#">
   <cc:Work>
    <dc:type rdf:resource="http://purl.org/dc/dcmitype/StillImage"/>
    <dc:date>2022-03-03T11:40:48.467436</dc:date>
    <dc:format>image/svg+xml</dc:format>
    <dc:creator>
     <cc:Agent>
      <dc:title>Matplotlib v3.4.3, https://matplotlib.org/</dc:title>
     </cc:Agent>
    </dc:creator>
   </cc:Work>
  </rdf:RDF>
 </metadata>
 <defs>
  <style type="text/css">*{stroke-linecap:butt;stroke-linejoin:round;}</style>
 </defs>
 <g id="figure_1">
  <g id="patch_1">
   <path d="M 0 345.6 
L 460.8 345.6 
L 460.8 0 
L 0 0 
z
" style="fill:#ffffff;"/>
  </g>
  <g id="axes_1">
   <g id="patch_2">
    <path d="M 76.97 300.04 
L 450 300.04 
L 450 10.8 
L 76.97 10.8 
z
" style="fill:#ffffff;"/>
   </g>
   <g id="matplotlib.axis_1">
    <g id="xtick_1">
     <g id="line2d_1">
      <path clip-path="url(#p99cd3e591a)" d="M 93.925909 300.04 
L 93.925909 10.8 
" style="fill:none;stroke:#b0b0b0;stroke-dasharray:2.96,1.28;stroke-dashoffset:0;stroke-opacity:0.5;stroke-width:0.8;"/>
     </g>
     <g id="line2d_2">
      <defs>
       <path d="M 0 0 
L 0 3.5 
" id="m50b758dcde" style="stroke:#000000;stroke-width:0.8;"/>
      </defs>
      <g>
       <use style="stroke:#000000;stroke-width:0.8;" x="93.925909" xlink:href="#m50b758dcde" y="300.04"/>
      </g>
     </g>
     <g id="text_1">
      <!-- 0 -->
      <g transform="translate(90.744659 314.638437)scale(0.1 -0.1)">
       <defs>
        <path d="M 2034 4250 
Q 1547 4250 1301 3770 
Q 1056 3291 1056 2328 
Q 1056 1369 1301 889 
Q 1547 409 2034 409 
Q 2525 409 2770 889 
Q 3016 1369 3016 2328 
Q 3016 3291 2770 3770 
Q 2525 4250 2034 4250 
z
M 2034 4750 
Q 2819 4750 3233 4129 
Q 3647 3509 3647 2328 
Q 3647 1150 3233 529 
Q 2819 -91 2034 -91 
Q 1250 -91 836 529 
Q 422 1150 422 2328 
Q 422 3509 836 4129 
Q 1250 4750 2034 4750 
z
" id="DejaVuSans-30" transform="scale(0.015625)"/>
       </defs>
       <use xlink:href="#DejaVuSans-30"/>
      </g>
     </g>
    </g>
    <g id="xtick_2">
     <g id="line2d_3">
      <path clip-path="url(#p99cd3e591a)" d="M 159.7741 300.04 
L 159.7741 10.8 
" style="fill:none;stroke:#b0b0b0;stroke-dasharray:2.96,1.28;stroke-dashoffset:0;stroke-opacity:0.5;stroke-width:0.8;"/>
     </g>
     <g id="line2d_4">
      <g>
       <use style="stroke:#000000;stroke-width:0.8;" x="159.7741" xlink:href="#m50b758dcde" y="300.04"/>
      </g>
     </g>
     <g id="text_2">
      <!-- 100 -->
      <g transform="translate(150.23035 314.638437)scale(0.1 -0.1)">
       <defs>
        <path d="M 794 531 
L 1825 531 
L 1825 4091 
L 703 3866 
L 703 4441 
L 1819 4666 
L 2450 4666 
L 2450 531 
L 3481 531 
L 3481 0 
L 794 0 
L 794 531 
z
" id="DejaVuSans-31" transform="scale(0.015625)"/>
       </defs>
       <use xlink:href="#DejaVuSans-31"/>
       <use x="63.623047" xlink:href="#DejaVuSans-30"/>
       <use x="127.246094" xlink:href="#DejaVuSans-30"/>
      </g>
     </g>
    </g>
    <g id="xtick_3">
     <g id="line2d_5">
      <path clip-path="url(#p99cd3e591a)" d="M 225.62229 300.04 
L 225.62229 10.8 
" style="fill:none;stroke:#b0b0b0;stroke-dasharray:2.96,1.28;stroke-dashoffset:0;stroke-opacity:0.5;stroke-width:0.8;"/>
     </g>
     <g id="line2d_6">
      <g>
       <use style="stroke:#000000;stroke-width:0.8;" x="225.62229" xlink:href="#m50b758dcde" y="300.04"/>
      </g>
     </g>
     <g id="text_3">
      <!-- 200 -->
      <g transform="translate(216.07854 314.638437)scale(0.1 -0.1)">
       <defs>
        <path d="M 1228 531 
L 3431 531 
L 3431 0 
L 469 0 
L 469 531 
Q 828 903 1448 1529 
Q 2069 2156 2228 2338 
Q 2531 2678 2651 2914 
Q 2772 3150 2772 3378 
Q 2772 3750 2511 3984 
Q 2250 4219 1831 4219 
Q 1534 4219 1204 4116 
Q 875 4013 500 3803 
L 500 4441 
Q 881 4594 1212 4672 
Q 1544 4750 1819 4750 
Q 2544 4750 2975 4387 
Q 3406 4025 3406 3419 
Q 3406 3131 3298 2873 
Q 3191 2616 2906 2266 
Q 2828 2175 2409 1742 
Q 1991 1309 1228 531 
z
" id="DejaVuSans-32" transform="scale(0.015625)"/>
       </defs>
       <use xlink:href="#DejaVuSans-32"/>
       <use x="63.623047" xlink:href="#DejaVuSans-30"/>
       <use x="127.246094" xlink:href="#DejaVuSans-30"/>
      </g>
     </g>
    </g>
    <g id="xtick_4">
     <g id="line2d_7">
      <path clip-path="url(#p99cd3e591a)" d="M 291.470481 300.04 
L 291.470481 10.8 
" style="fill:none;stroke:#b0b0b0;stroke-dasharray:2.96,1.28;stroke-dashoffset:0;stroke-opacity:0.5;stroke-width:0.8;"/>
     </g>
     <g id="line2d_8">
      <g>
       <use style="stroke:#000000;stroke-width:0.8;" x="291.470481" xlink:href="#m50b758dcde" y="300.04"/>
      </g>
     </g>
     <g id="text_4">
      <!-- 300 -->
      <g transform="translate(281.926731 314.638437)scale(0.1 -0.1)">
       <defs>
        <path d="M 2597 2516 
Q 3050 2419 3304 2112 
Q 3559 1806 3559 1356 
Q 3559 666 3084 287 
Q 2609 -91 1734 -91 
Q 1441 -91 1130 -33 
Q 819 25 488 141 
L 488 750 
Q 750 597 1062 519 
Q 1375 441 1716 441 
Q 2309 441 2620 675 
Q 2931 909 2931 1356 
Q 2931 1769 2642 2001 
Q 2353 2234 1838 2234 
L 1294 2234 
L 1294 2753 
L 1863 2753 
Q 2328 2753 2575 2939 
Q 2822 3125 2822 3475 
Q 2822 3834 2567 4026 
Q 2313 4219 1838 4219 
Q 1578 4219 1281 4162 
Q 984 4106 628 3988 
L 628 4550 
Q 988 4650 1302 4700 
Q 1616 4750 1894 4750 
Q 2613 4750 3031 4423 
Q 3450 4097 3450 3541 
Q 3450 3153 3228 2886 
Q 3006 2619 2597 2516 
z
" id="DejaVuSans-33" transform="scale(0.015625)"/>
       </defs>
       <use xlink:href="#DejaVuSans-33"/>
       <use x="63.623047" xlink:href="#DejaVuSans-30"/>
       <use x="127.246094" xlink:href="#DejaVuSans-30"/>
      </g>
     </g>
    </g>
    <g id="xtick_5">
     <g id="line2d_9">
      <path clip-path="url(#p99cd3e591a)" d="M 357.318672 300.04 
L 357.318672 10.8 
" style="fill:none;stroke:#b0b0b0;stroke-dasharray:2.96,1.28;stroke-dashoffset:0;stroke-opacity:0.5;stroke-width:0.8;"/>
     </g>
     <g id="line2d_10">
      <g>
       <use style="stroke:#000000;stroke-width:0.8;" x="357.318672" xlink:href="#m50b758dcde" y="300.04"/>
      </g>
     </g>
     <g id="text_5">
      <!-- 400 -->
      <g transform="translate(347.774922 314.638437)scale(0.1 -0.1)">
       <defs>
        <path d="M 2419 4116 
L 825 1625 
L 2419 1625 
L 2419 4116 
z
M 2253 4666 
L 3047 4666 
L 3047 1625 
L 3713 1625 
L 3713 1100 
L 3047 1100 
L 3047 0 
L 2419 0 
L 2419 1100 
L 313 1100 
L 313 1709 
L 2253 4666 
z
" id="DejaVuSans-34" transform="scale(0.015625)"/>
       </defs>
       <use xlink:href="#DejaVuSans-34"/>
       <use x="63.623047" xlink:href="#DejaVuSans-30"/>
       <use x="127.246094" xlink:href="#DejaVuSans-30"/>
      </g>
     </g>
    </g>
    <g id="xtick_6">
     <g id="line2d_11">
      <path clip-path="url(#p99cd3e591a)" d="M 423.166862 300.04 
L 423.166862 10.8 
" style="fill:none;stroke:#b0b0b0;stroke-dasharray:2.96,1.28;stroke-dashoffset:0;stroke-opacity:0.5;stroke-width:0.8;"/>
     </g>
     <g id="line2d_12">
      <g>
       <use style="stroke:#000000;stroke-width:0.8;" x="423.166862" xlink:href="#m50b758dcde" y="300.04"/>
      </g>
     </g>
     <g id="text_6">
      <!-- 500 -->
      <g transform="translate(413.623112 314.638437)scale(0.1 -0.1)">
       <defs>
        <path d="M 691 4666 
L 3169 4666 
L 3169 4134 
L 1269 4134 
L 1269 2991 
Q 1406 3038 1543 3061 
Q 1681 3084 1819 3084 
Q 2600 3084 3056 2656 
Q 3513 2228 3513 1497 
Q 3513 744 3044 326 
Q 2575 -91 1722 -91 
Q 1428 -91 1123 -41 
Q 819 9 494 109 
L 494 744 
Q 775 591 1075 516 
Q 1375 441 1709 441 
Q 2250 441 2565 725 
Q 2881 1009 2881 1497 
Q 2881 1984 2565 2268 
Q 2250 2553 1709 2553 
Q 1456 2553 1204 2497 
Q 953 2441 691 2322 
L 691 4666 
z
" id="DejaVuSans-35" transform="scale(0.015625)"/>
       </defs>
       <use xlink:href="#DejaVuSans-35"/>
       <use x="63.623047" xlink:href="#DejaVuSans-30"/>
       <use x="127.246094" xlink:href="#DejaVuSans-30"/>
      </g>
     </g>
    </g>
    <g id="text_7">
     <!-- pseudo time step -->
     <g transform="translate(202.518281 331.355937)scale(0.14 -0.14)">
      <defs>
       <path d="M 1159 525 
L 1159 -1331 
L 581 -1331 
L 581 3500 
L 1159 3500 
L 1159 2969 
Q 1341 3281 1617 3432 
Q 1894 3584 2278 3584 
Q 2916 3584 3314 3078 
Q 3713 2572 3713 1747 
Q 3713 922 3314 415 
Q 2916 -91 2278 -91 
Q 1894 -91 1617 61 
Q 1341 213 1159 525 
z
M 3116 1747 
Q 3116 2381 2855 2742 
Q 2594 3103 2138 3103 
Q 1681 3103 1420 2742 
Q 1159 2381 1159 1747 
Q 1159 1113 1420 752 
Q 1681 391 2138 391 
Q 2594 391 2855 752 
Q 3116 1113 3116 1747 
z
" id="DejaVuSans-70" transform="scale(0.015625)"/>
       <path d="M 2834 3397 
L 2834 2853 
Q 2591 2978 2328 3040 
Q 2066 3103 1784 3103 
Q 1356 3103 1142 2972 
Q 928 2841 928 2578 
Q 928 2378 1081 2264 
Q 1234 2150 1697 2047 
L 1894 2003 
Q 2506 1872 2764 1633 
Q 3022 1394 3022 966 
Q 3022 478 2636 193 
Q 2250 -91 1575 -91 
Q 1294 -91 989 -36 
Q 684 19 347 128 
L 347 722 
Q 666 556 975 473 
Q 1284 391 1588 391 
Q 1994 391 2212 530 
Q 2431 669 2431 922 
Q 2431 1156 2273 1281 
Q 2116 1406 1581 1522 
L 1381 1569 
Q 847 1681 609 1914 
Q 372 2147 372 2553 
Q 372 3047 722 3315 
Q 1072 3584 1716 3584 
Q 2034 3584 2315 3537 
Q 2597 3491 2834 3397 
z
" id="DejaVuSans-73" transform="scale(0.015625)"/>
       <path d="M 3597 1894 
L 3597 1613 
L 953 1613 
Q 991 1019 1311 708 
Q 1631 397 2203 397 
Q 2534 397 2845 478 
Q 3156 559 3463 722 
L 3463 178 
Q 3153 47 2828 -22 
Q 2503 -91 2169 -91 
Q 1331 -91 842 396 
Q 353 884 353 1716 
Q 353 2575 817 3079 
Q 1281 3584 2069 3584 
Q 2775 3584 3186 3129 
Q 3597 2675 3597 1894 
z
M 3022 2063 
Q 3016 2534 2758 2815 
Q 2500 3097 2075 3097 
Q 1594 3097 1305 2825 
Q 1016 2553 972 2059 
L 3022 2063 
z
" id="DejaVuSans-65" transform="scale(0.015625)"/>
       <path d="M 544 1381 
L 544 3500 
L 1119 3500 
L 1119 1403 
Q 1119 906 1312 657 
Q 1506 409 1894 409 
Q 2359 409 2629 706 
Q 2900 1003 2900 1516 
L 2900 3500 
L 3475 3500 
L 3475 0 
L 2900 0 
L 2900 538 
Q 2691 219 2414 64 
Q 2138 -91 1772 -91 
Q 1169 -91 856 284 
Q 544 659 544 1381 
z
M 1991 3584 
L 1991 3584 
z
" id="DejaVuSans-75" transform="scale(0.015625)"/>
       <path d="M 2906 2969 
L 2906 4863 
L 3481 4863 
L 3481 0 
L 2906 0 
L 2906 525 
Q 2725 213 2448 61 
Q 2172 -91 1784 -91 
Q 1150 -91 751 415 
Q 353 922 353 1747 
Q 353 2572 751 3078 
Q 1150 3584 1784 3584 
Q 2172 3584 2448 3432 
Q 2725 3281 2906 2969 
z
M 947 1747 
Q 947 1113 1208 752 
Q 1469 391 1925 391 
Q 2381 391 2643 752 
Q 2906 1113 2906 1747 
Q 2906 2381 2643 2742 
Q 2381 3103 1925 3103 
Q 1469 3103 1208 2742 
Q 947 2381 947 1747 
z
" id="DejaVuSans-64" transform="scale(0.015625)"/>
       <path d="M 1959 3097 
Q 1497 3097 1228 2736 
Q 959 2375 959 1747 
Q 959 1119 1226 758 
Q 1494 397 1959 397 
Q 2419 397 2687 759 
Q 2956 1122 2956 1747 
Q 2956 2369 2687 2733 
Q 2419 3097 1959 3097 
z
M 1959 3584 
Q 2709 3584 3137 3096 
Q 3566 2609 3566 1747 
Q 3566 888 3137 398 
Q 2709 -91 1959 -91 
Q 1206 -91 779 398 
Q 353 888 353 1747 
Q 353 2609 779 3096 
Q 1206 3584 1959 3584 
z
" id="DejaVuSans-6f" transform="scale(0.015625)"/>
       <path id="DejaVuSans-20" transform="scale(0.015625)"/>
       <path d="M 1172 4494 
L 1172 3500 
L 2356 3500 
L 2356 3053 
L 1172 3053 
L 1172 1153 
Q 1172 725 1289 603 
Q 1406 481 1766 481 
L 2356 481 
L 2356 0 
L 1766 0 
Q 1100 0 847 248 
Q 594 497 594 1153 
L 594 3053 
L 172 3053 
L 172 3500 
L 594 3500 
L 594 4494 
L 1172 4494 
z
" id="DejaVuSans-74" transform="scale(0.015625)"/>
       <path d="M 603 3500 
L 1178 3500 
L 1178 0 
L 603 0 
L 603 3500 
z
M 603 4863 
L 1178 4863 
L 1178 4134 
L 603 4134 
L 603 4863 
z
" id="DejaVuSans-69" transform="scale(0.015625)"/>
       <path d="M 3328 2828 
Q 3544 3216 3844 3400 
Q 4144 3584 4550 3584 
Q 5097 3584 5394 3201 
Q 5691 2819 5691 2113 
L 5691 0 
L 5113 0 
L 5113 2094 
Q 5113 2597 4934 2840 
Q 4756 3084 4391 3084 
Q 3944 3084 3684 2787 
Q 3425 2491 3425 1978 
L 3425 0 
L 2847 0 
L 2847 2094 
Q 2847 2600 2669 2842 
Q 2491 3084 2119 3084 
Q 1678 3084 1418 2786 
Q 1159 2488 1159 1978 
L 1159 0 
L 581 0 
L 581 3500 
L 1159 3500 
L 1159 2956 
Q 1356 3278 1631 3431 
Q 1906 3584 2284 3584 
Q 2666 3584 2933 3390 
Q 3200 3197 3328 2828 
z
" id="DejaVuSans-6d" transform="scale(0.015625)"/>
      </defs>
      <use xlink:href="#DejaVuSans-70"/>
      <use x="63.476562" xlink:href="#DejaVuSans-73"/>
      <use x="115.576172" xlink:href="#DejaVuSans-65"/>
      <use x="177.099609" xlink:href="#DejaVuSans-75"/>
      <use x="240.478516" xlink:href="#DejaVuSans-64"/>
      <use x="303.955078" xlink:href="#DejaVuSans-6f"/>
      <use x="365.136719" xlink:href="#DejaVuSans-20"/>
      <use x="396.923828" xlink:href="#DejaVuSans-74"/>
      <use x="436.132812" xlink:href="#DejaVuSans-69"/>
      <use x="463.916016" xlink:href="#DejaVuSans-6d"/>
      <use x="561.328125" xlink:href="#DejaVuSans-65"/>
      <use x="622.851562" xlink:href="#DejaVuSans-20"/>
      <use x="654.638672" xlink:href="#DejaVuSans-73"/>
      <use x="706.738281" xlink:href="#DejaVuSans-74"/>
      <use x="745.947266" xlink:href="#DejaVuSans-65"/>
      <use x="807.470703" xlink:href="#DejaVuSans-70"/>
     </g>
    </g>
   </g>
   <g id="matplotlib.axis_2">
    <g id="ytick_1">
     <g id="line2d_13">
      <path clip-path="url(#p99cd3e591a)" d="M 76.97 293.466364 
L 450 293.466364 
" style="fill:none;stroke:#b0b0b0;stroke-dasharray:2.96,1.28;stroke-dashoffset:0;stroke-opacity:0.5;stroke-width:0.8;"/>
     </g>
     <g id="line2d_14">
      <defs>
       <path d="M 0 0 
L -3.5 0 
" id="meaf9a8110f" style="stroke:#000000;stroke-width:0.8;"/>
      </defs>
      <g>
       <use style="stroke:#000000;stroke-width:0.8;" x="76.97" xlink:href="#meaf9a8110f" y="293.466364"/>
      </g>
     </g>
     <g id="text_8">
      <!-- 0.00075 -->
      <g transform="translate(28.616875 297.265582)scale(0.1 -0.1)">
       <defs>
        <path d="M 684 794 
L 1344 794 
L 1344 0 
L 684 0 
L 684 794 
z
" id="DejaVuSans-2e" transform="scale(0.015625)"/>
        <path d="M 525 4666 
L 3525 4666 
L 3525 4397 
L 1831 0 
L 1172 0 
L 2766 4134 
L 525 4134 
L 525 4666 
z
" id="DejaVuSans-37" transform="scale(0.015625)"/>
       </defs>
       <use xlink:href="#DejaVuSans-30"/>
       <use x="63.623047" xlink:href="#DejaVuSans-2e"/>
       <use x="95.410156" xlink:href="#DejaVuSans-30"/>
       <use x="159.033203" xlink:href="#DejaVuSans-30"/>
       <use x="222.65625" xlink:href="#DejaVuSans-30"/>
       <use x="286.279297" xlink:href="#DejaVuSans-37"/>
       <use x="349.902344" xlink:href="#DejaVuSans-35"/>
      </g>
     </g>
    </g>
    <g id="ytick_2">
     <g id="line2d_15">
      <path clip-path="url(#p99cd3e591a)" d="M 76.97 260.598182 
L 450 260.598182 
" style="fill:none;stroke:#b0b0b0;stroke-dasharray:2.96,1.28;stroke-dashoffset:0;stroke-opacity:0.5;stroke-width:0.8;"/>
     </g>
     <g id="line2d_16">
      <g>
       <use style="stroke:#000000;stroke-width:0.8;" x="76.97" xlink:href="#meaf9a8110f" y="260.598182"/>
      </g>
     </g>
     <g id="text_9">
      <!-- 0.00100 -->
      <g transform="translate(28.616875 264.397401)scale(0.1 -0.1)">
       <use xlink:href="#DejaVuSans-30"/>
       <use x="63.623047" xlink:href="#DejaVuSans-2e"/>
       <use x="95.410156" xlink:href="#DejaVuSans-30"/>
       <use x="159.033203" xlink:href="#DejaVuSans-30"/>
       <use x="222.65625" xlink:href="#DejaVuSans-31"/>
       <use x="286.279297" xlink:href="#DejaVuSans-30"/>
       <use x="349.902344" xlink:href="#DejaVuSans-30"/>
      </g>
     </g>
    </g>
    <g id="ytick_3">
     <g id="line2d_17">
      <path clip-path="url(#p99cd3e591a)" d="M 76.97 227.73 
L 450 227.73 
" style="fill:none;stroke:#b0b0b0;stroke-dasharray:2.96,1.28;stroke-dashoffset:0;stroke-opacity:0.5;stroke-width:0.8;"/>
     </g>
     <g id="line2d_18">
      <g>
       <use style="stroke:#000000;stroke-width:0.8;" x="76.97" xlink:href="#meaf9a8110f" y="227.73"/>
      </g>
     </g>
     <g id="text_10">
      <!-- 0.00125 -->
      <g transform="translate(28.616875 231.529219)scale(0.1 -0.1)">
       <use xlink:href="#DejaVuSans-30"/>
       <use x="63.623047" xlink:href="#DejaVuSans-2e"/>
       <use x="95.410156" xlink:href="#DejaVuSans-30"/>
       <use x="159.033203" xlink:href="#DejaVuSans-30"/>
       <use x="222.65625" xlink:href="#DejaVuSans-31"/>
       <use x="286.279297" xlink:href="#DejaVuSans-32"/>
       <use x="349.902344" xlink:href="#DejaVuSans-35"/>
      </g>
     </g>
    </g>
    <g id="ytick_4">
     <g id="line2d_19">
      <path clip-path="url(#p99cd3e591a)" d="M 76.97 194.861818 
L 450 194.861818 
" style="fill:none;stroke:#b0b0b0;stroke-dasharray:2.96,1.28;stroke-dashoffset:0;stroke-opacity:0.5;stroke-width:0.8;"/>
     </g>
     <g id="line2d_20">
      <g>
       <use style="stroke:#000000;stroke-width:0.8;" x="76.97" xlink:href="#meaf9a8110f" y="194.861818"/>
      </g>
     </g>
     <g id="text_11">
      <!-- 0.00150 -->
      <g transform="translate(28.616875 198.661037)scale(0.1 -0.1)">
       <use xlink:href="#DejaVuSans-30"/>
       <use x="63.623047" xlink:href="#DejaVuSans-2e"/>
       <use x="95.410156" xlink:href="#DejaVuSans-30"/>
       <use x="159.033203" xlink:href="#DejaVuSans-30"/>
       <use x="222.65625" xlink:href="#DejaVuSans-31"/>
       <use x="286.279297" xlink:href="#DejaVuSans-35"/>
       <use x="349.902344" xlink:href="#DejaVuSans-30"/>
      </g>
     </g>
    </g>
    <g id="ytick_5">
     <g id="line2d_21">
      <path clip-path="url(#p99cd3e591a)" d="M 76.97 161.993636 
L 450 161.993636 
" style="fill:none;stroke:#b0b0b0;stroke-dasharray:2.96,1.28;stroke-dashoffset:0;stroke-opacity:0.5;stroke-width:0.8;"/>
     </g>
     <g id="line2d_22">
      <g>
       <use style="stroke:#000000;stroke-width:0.8;" x="76.97" xlink:href="#meaf9a8110f" y="161.993636"/>
      </g>
     </g>
     <g id="text_12">
      <!-- 0.00175 -->
      <g transform="translate(28.616875 165.792855)scale(0.1 -0.1)">
       <use xlink:href="#DejaVuSans-30"/>
       <use x="63.623047" xlink:href="#DejaVuSans-2e"/>
       <use x="95.410156" xlink:href="#DejaVuSans-30"/>
       <use x="159.033203" xlink:href="#DejaVuSans-30"/>
       <use x="222.65625" xlink:href="#DejaVuSans-31"/>
       <use x="286.279297" xlink:href="#DejaVuSans-37"/>
       <use x="349.902344" xlink:href="#DejaVuSans-35"/>
      </g>
     </g>
    </g>
    <g id="ytick_6">
     <g id="line2d_23">
      <path clip-path="url(#p99cd3e591a)" d="M 76.97 129.125455 
L 450 129.125455 
" style="fill:none;stroke:#b0b0b0;stroke-dasharray:2.96,1.28;stroke-dashoffset:0;stroke-opacity:0.5;stroke-width:0.8;"/>
     </g>
     <g id="line2d_24">
      <g>
       <use style="stroke:#000000;stroke-width:0.8;" x="76.97" xlink:href="#meaf9a8110f" y="129.125455"/>
      </g>
     </g>
     <g id="text_13">
      <!-- 0.00200 -->
      <g transform="translate(28.616875 132.924673)scale(0.1 -0.1)">
       <use xlink:href="#DejaVuSans-30"/>
       <use x="63.623047" xlink:href="#DejaVuSans-2e"/>
       <use x="95.410156" xlink:href="#DejaVuSans-30"/>
       <use x="159.033203" xlink:href="#DejaVuSans-30"/>
       <use x="222.65625" xlink:href="#DejaVuSans-32"/>
       <use x="286.279297" xlink:href="#DejaVuSans-30"/>
       <use x="349.902344" xlink:href="#DejaVuSans-30"/>
      </g>
     </g>
    </g>
    <g id="ytick_7">
     <g id="line2d_25">
      <path clip-path="url(#p99cd3e591a)" d="M 76.97 96.257273 
L 450 96.257273 
" style="fill:none;stroke:#b0b0b0;stroke-dasharray:2.96,1.28;stroke-dashoffset:0;stroke-opacity:0.5;stroke-width:0.8;"/>
     </g>
     <g id="line2d_26">
      <g>
       <use style="stroke:#000000;stroke-width:0.8;" x="76.97" xlink:href="#meaf9a8110f" y="96.257273"/>
      </g>
     </g>
     <g id="text_14">
      <!-- 0.00225 -->
      <g transform="translate(28.616875 100.056491)scale(0.1 -0.1)">
       <use xlink:href="#DejaVuSans-30"/>
       <use x="63.623047" xlink:href="#DejaVuSans-2e"/>
       <use x="95.410156" xlink:href="#DejaVuSans-30"/>
       <use x="159.033203" xlink:href="#DejaVuSans-30"/>
       <use x="222.65625" xlink:href="#DejaVuSans-32"/>
       <use x="286.279297" xlink:href="#DejaVuSans-32"/>
       <use x="349.902344" xlink:href="#DejaVuSans-35"/>
      </g>
     </g>
    </g>
    <g id="ytick_8">
     <g id="line2d_27">
      <path clip-path="url(#p99cd3e591a)" d="M 76.97 63.389091 
L 450 63.389091 
" style="fill:none;stroke:#b0b0b0;stroke-dasharray:2.96,1.28;stroke-dashoffset:0;stroke-opacity:0.5;stroke-width:0.8;"/>
     </g>
     <g id="line2d_28">
      <g>
       <use style="stroke:#000000;stroke-width:0.8;" x="76.97" xlink:href="#meaf9a8110f" y="63.389091"/>
      </g>
     </g>
     <g id="text_15">
      <!-- 0.00250 -->
      <g transform="translate(28.616875 67.18831)scale(0.1 -0.1)">
       <use xlink:href="#DejaVuSans-30"/>
       <use x="63.623047" xlink:href="#DejaVuSans-2e"/>
       <use x="95.410156" xlink:href="#DejaVuSans-30"/>
       <use x="159.033203" xlink:href="#DejaVuSans-30"/>
       <use x="222.65625" xlink:href="#DejaVuSans-32"/>
       <use x="286.279297" xlink:href="#DejaVuSans-35"/>
       <use x="349.902344" xlink:href="#DejaVuSans-30"/>
      </g>
     </g>
    </g>
    <g id="ytick_9">
     <g id="line2d_29">
      <path clip-path="url(#p99cd3e591a)" d="M 76.97 30.520909 
L 450 30.520909 
" style="fill:none;stroke:#b0b0b0;stroke-dasharray:2.96,1.28;stroke-dashoffset:0;stroke-opacity:0.5;stroke-width:0.8;"/>
     </g>
     <g id="line2d_30">
      <g>
       <use style="stroke:#000000;stroke-width:0.8;" x="76.97" xlink:href="#meaf9a8110f" y="30.520909"/>
      </g>
     </g>
     <g id="text_16">
      <!-- 0.00275 -->
      <g transform="translate(28.616875 34.320128)scale(0.1 -0.1)">
       <use xlink:href="#DejaVuSans-30"/>
       <use x="63.623047" xlink:href="#DejaVuSans-2e"/>
       <use x="95.410156" xlink:href="#DejaVuSans-30"/>
       <use x="159.033203" xlink:href="#DejaVuSans-30"/>
       <use x="222.65625" xlink:href="#DejaVuSans-32"/>
       <use x="286.279297" xlink:href="#DejaVuSans-37"/>
       <use x="349.902344" xlink:href="#DejaVuSans-35"/>
      </g>
     </g>
    </g>
    <g id="text_17">
     <!-- torque coeffcient -->
     <g transform="translate(21.705312 215.263438)rotate(-90)scale(0.14 -0.14)">
      <defs>
       <path d="M 2631 2963 
Q 2534 3019 2420 3045 
Q 2306 3072 2169 3072 
Q 1681 3072 1420 2755 
Q 1159 2438 1159 1844 
L 1159 0 
L 581 0 
L 581 3500 
L 1159 3500 
L 1159 2956 
Q 1341 3275 1631 3429 
Q 1922 3584 2338 3584 
Q 2397 3584 2469 3576 
Q 2541 3569 2628 3553 
L 2631 2963 
z
" id="DejaVuSans-72" transform="scale(0.015625)"/>
       <path d="M 947 1747 
Q 947 1113 1208 752 
Q 1469 391 1925 391 
Q 2381 391 2643 752 
Q 2906 1113 2906 1747 
Q 2906 2381 2643 2742 
Q 2381 3103 1925 3103 
Q 1469 3103 1208 2742 
Q 947 2381 947 1747 
z
M 2906 525 
Q 2725 213 2448 61 
Q 2172 -91 1784 -91 
Q 1150 -91 751 415 
Q 353 922 353 1747 
Q 353 2572 751 3078 
Q 1150 3584 1784 3584 
Q 2172 3584 2448 3432 
Q 2725 3281 2906 2969 
L 2906 3500 
L 3481 3500 
L 3481 -1331 
L 2906 -1331 
L 2906 525 
z
" id="DejaVuSans-71" transform="scale(0.015625)"/>
       <path d="M 3122 3366 
L 3122 2828 
Q 2878 2963 2633 3030 
Q 2388 3097 2138 3097 
Q 1578 3097 1268 2742 
Q 959 2388 959 1747 
Q 959 1106 1268 751 
Q 1578 397 2138 397 
Q 2388 397 2633 464 
Q 2878 531 3122 666 
L 3122 134 
Q 2881 22 2623 -34 
Q 2366 -91 2075 -91 
Q 1284 -91 818 406 
Q 353 903 353 1747 
Q 353 2603 823 3093 
Q 1294 3584 2113 3584 
Q 2378 3584 2631 3529 
Q 2884 3475 3122 3366 
z
" id="DejaVuSans-63" transform="scale(0.015625)"/>
       <path d="M 2375 4863 
L 2375 4384 
L 1825 4384 
Q 1516 4384 1395 4259 
Q 1275 4134 1275 3809 
L 1275 3500 
L 2222 3500 
L 2222 3053 
L 1275 3053 
L 1275 0 
L 697 0 
L 697 3053 
L 147 3053 
L 147 3500 
L 697 3500 
L 697 3744 
Q 697 4328 969 4595 
Q 1241 4863 1831 4863 
L 2375 4863 
z
" id="DejaVuSans-66" transform="scale(0.015625)"/>
       <path d="M 3513 2113 
L 3513 0 
L 2938 0 
L 2938 2094 
Q 2938 2591 2744 2837 
Q 2550 3084 2163 3084 
Q 1697 3084 1428 2787 
Q 1159 2491 1159 1978 
L 1159 0 
L 581 0 
L 581 3500 
L 1159 3500 
L 1159 2956 
Q 1366 3272 1645 3428 
Q 1925 3584 2291 3584 
Q 2894 3584 3203 3211 
Q 3513 2838 3513 2113 
z
" id="DejaVuSans-6e" transform="scale(0.015625)"/>
      </defs>
      <use xlink:href="#DejaVuSans-74"/>
      <use x="39.208984" xlink:href="#DejaVuSans-6f"/>
      <use x="100.390625" xlink:href="#DejaVuSans-72"/>
      <use x="139.753906" xlink:href="#DejaVuSans-71"/>
      <use x="203.230469" xlink:href="#DejaVuSans-75"/>
      <use x="266.609375" xlink:href="#DejaVuSans-65"/>
      <use x="328.132812" xlink:href="#DejaVuSans-20"/>
      <use x="359.919922" xlink:href="#DejaVuSans-63"/>
      <use x="414.900391" xlink:href="#DejaVuSans-6f"/>
      <use x="476.082031" xlink:href="#DejaVuSans-65"/>
      <use x="537.605469" xlink:href="#DejaVuSans-66"/>
      <use x="572.810547" xlink:href="#DejaVuSans-66"/>
      <use x="608.015625" xlink:href="#DejaVuSans-63"/>
      <use x="662.996094" xlink:href="#DejaVuSans-69"/>
      <use x="690.779297" xlink:href="#DejaVuSans-65"/>
      <use x="752.302734" xlink:href="#DejaVuSans-6e"/>
      <use x="815.681641" xlink:href="#DejaVuSans-74"/>
     </g>
    </g>
   </g>
   <g id="line2d_31">
    <path clip-path="url(#p99cd3e591a)" d="M 93.925909 273.925513 
L 100.510728 276.322436 
L 107.095547 277.730486 
L 113.680366 278.329325 
L 120.265185 278.690348 
L 126.850004 279.061243 
L 133.434823 279.46146 
L 140.019643 279.879326 
L 146.604462 280.355405 
L 153.189281 280.988479 
L 159.7741 281.844754 
L 166.358919 282.798638 
L 172.943738 283.609314 
L 179.528557 284.239149 
L 186.113376 284.964797 
L 192.698195 286.018967 
L 199.283014 287.267086 
L 205.867833 288.029581 
L 212.452652 287.922745 
L 219.037471 288.194014 
L 225.62229 289.058223 
L 232.207109 289.550185 
L 238.791929 289.653057 
L 245.376748 289.526527 
L 251.961567 289.679592 
L 258.546386 289.837092 
L 265.131205 289.717465 
L 271.716024 289.85514 
L 278.300843 289.939287 
L 284.885662 289.990606 
L 291.470481 290.130445 
L 298.0553 290.231862 
L 304.640119 290.340352 
L 311.224938 290.40123 
L 317.809757 290.486475 
L 324.394576 290.534959 
L 330.979395 290.590152 
L 337.564214 290.637335 
L 344.149034 290.681954 
L 350.733853 290.720995 
L 357.318672 290.755525 
L 363.903491 290.783005 
L 370.48831 290.804755 
L 377.073129 290.819948 
L 383.657948 290.8299 
L 390.242767 290.83636 
L 396.827586 290.840495 
L 403.412405 290.843041 
L 409.997224 290.844547 
L 416.582043 290.845409 
L 423.166862 290.845883 
L 425.142308 290.845975 
" style="fill:none;stroke:#1f77b4;stroke-linecap:square;stroke-width:1.5;"/>
   </g>
   <g id="line2d_32">
    <path clip-path="url(#p99cd3e591a)" d="M 93.925909 199.253961 
L 100.510728 203.245057 
L 107.095547 205.764619 
L 113.680366 207.060918 
L 120.265185 207.971204 
L 126.850004 208.852123 
L 133.434823 209.716959 
L 140.019643 210.530597 
L 146.604462 211.332567 
L 153.189281 212.25106 
L 159.7741 213.398771 
L 166.358919 214.684396 
L 172.943738 215.873859 
L 179.528557 216.928237 
L 186.113376 218.134762 
L 192.698195 219.713613 
L 199.283014 221.494892 
L 205.867833 222.629283 
L 212.452652 222.596919 
L 219.037471 223.046445 
L 225.62229 224.421248 
L 232.207109 225.372409 
L 238.791929 225.596056 
L 245.376748 225.481624 
L 251.961567 225.830523 
L 258.546386 226.100933 
L 265.131205 225.967819 
L 271.716024 226.19033 
L 278.300843 226.282949 
L 284.885662 226.336143 
L 291.470481 226.506843 
L 298.0553 226.642115 
L 304.640119 226.790397 
L 311.224938 226.877804 
L 317.809757 227.016466 
L 324.394576 227.095891 
L 330.979395 227.187377 
L 337.564214 227.263082 
L 344.149034 227.333616 
L 350.733853 227.394523 
L 357.318672 227.4485 
L 363.903491 227.491199 
L 370.48831 227.525118 
L 377.073129 227.548618 
L 383.657948 227.563876 
L 390.242767 227.573731 
L 396.827586 227.58001 
L 403.412405 227.583859 
L 409.997224 227.586127 
L 416.582043 227.587418 
L 423.166862 227.588122 
L 429.093199 227.588458 
" style="fill:none;stroke:#ff7f0e;stroke-linecap:square;stroke-width:1.5;"/>
   </g>
   <g id="line2d_33">
    <path clip-path="url(#p99cd3e591a)" d="M 93.925909 124.651023 
L 100.510728 130.187018 
L 107.095547 133.828476 
L 113.680366 135.868951 
L 120.265185 137.380373 
L 126.850004 138.815627 
L 133.434823 140.178545 
L 140.019643 141.41004 
L 146.604462 142.550242 
L 153.189281 143.754488 
L 159.7741 145.175264 
L 166.358919 146.753094 
L 172.943738 148.275885 
L 179.528557 149.709222 
L 186.113376 151.336715 
L 192.698195 153.366963 
L 199.283014 155.611251 
L 205.867833 157.070784 
L 212.452652 157.099693 
L 219.037471 157.703042 
L 225.62229 159.52492 
L 232.207109 160.875963 
L 238.791929 161.193659 
L 245.376748 161.084346 
L 251.961567 161.604545 
L 258.546386 161.969841 
L 265.131205 161.827846 
L 271.716024 162.125865 
L 278.300843 162.221526 
L 284.885662 162.271725 
L 291.470481 162.466844 
L 298.0553 162.630074 
L 304.640119 162.809198 
L 311.224938 162.916474 
L 317.809757 163.10147 
L 324.394576 163.205187 
L 330.979395 163.327504 
L 337.564214 163.426548 
L 344.149034 163.518577 
L 350.733853 163.597338 
L 357.318672 163.667325 
L 363.903491 163.722244 
L 370.48831 163.765926 
L 377.073129 163.795915 
L 383.657948 163.815212 
L 390.242767 163.827636 
L 396.827586 163.83553 
L 403.412405 163.84035 
L 409.997224 163.843175 
L 416.582043 163.844773 
L 423.166862 163.845641 
L 429.751681 163.846083 
L 431.727127 163.846164 
" style="fill:none;stroke:#2ca02c;stroke-linecap:square;stroke-width:1.5;"/>
   </g>
   <g id="line2d_34">
    <path clip-path="url(#p99cd3e591a)" d="M 93.925909 65.091195 
L 100.510728 71.694921 
L 107.095547 76.166901 
L 113.680366 78.80092 
L 120.265185 80.806976 
L 126.850004 82.696325 
L 133.434823 84.462752 
L 140.019643 86.028274 
L 146.604462 87.429143 
L 153.189281 88.839274 
L 159.7741 90.444458 
L 166.358919 92.216168 
L 172.943738 93.963876 
L 179.528557 95.659887 
L 186.113376 97.582115 
L 192.698195 99.925822 
L 199.283014 102.4902 
L 205.867833 104.177426 
L 212.452652 104.251545 
L 219.037471 104.967241 
L 225.62229 107.113518 
L 232.207109 108.751877 
L 238.791929 109.131001 
L 245.376748 109.021977 
L 251.961567 109.663733 
L 258.546386 110.094288 
L 265.131205 109.946745 
L 271.716024 110.299244 
L 278.300843 110.394094 
L 284.885662 110.439044 
L 291.470481 110.651283 
L 298.0553 110.834507 
L 304.640119 111.033855 
L 311.224938 111.153629 
L 317.809757 111.372221 
L 324.394576 111.491588 
L 330.979395 111.635783 
L 337.564214 111.750688 
L 344.149034 111.85765 
L 350.733853 111.948582 
L 357.318672 112.029618 
L 363.903491 112.09273 
L 370.48831 112.14296 
L 377.073129 112.177181 
L 383.657948 112.199037 
L 390.242767 112.213082 
L 396.827586 112.221993 
L 403.412405 112.227414 
L 409.997224 112.230579 
L 416.582043 112.23236 
L 423.166862 112.233322 
L 429.751681 112.23381 
L 433.044091 112.233948 
" style="fill:none;stroke:#d62728;stroke-linecap:square;stroke-width:1.5;"/>
   </g>
   <g id="patch_3">
    <path d="M 76.97 300.04 
L 76.97 10.8 
" style="fill:none;stroke:#000000;stroke-linecap:square;stroke-linejoin:miter;stroke-width:0.8;"/>
   </g>
   <g id="patch_4">
    <path d="M 450 300.04 
L 450 10.8 
" style="fill:none;stroke:#000000;stroke-linecap:square;stroke-linejoin:miter;stroke-width:0.8;"/>
   </g>
   <g id="patch_5">
    <path d="M 76.97 300.04 
L 450 300.04 
" style="fill:none;stroke:#000000;stroke-linecap:square;stroke-linejoin:miter;stroke-width:0.8;"/>
   </g>
   <g id="patch_6">
    <path d="M 76.97 10.8 
L 450 10.8 
" style="fill:none;stroke:#000000;stroke-linecap:square;stroke-linejoin:miter;stroke-width:0.8;"/>
   </g>
   <g id="legend_1">
    <g id="patch_7">
     <path d="M 309.3 78.4 
L 443 78.4 
Q 445 78.4 445 76.4 
L 445 17.8 
Q 445 15.8 443 15.8 
L 309.3 15.8 
Q 307.3 15.8 307.3 17.8 
L 307.3 76.4 
Q 307.3 78.4 309.3 78.4 
z
" style="fill:#ffffff;opacity:0.8;stroke:#cccccc;stroke-linejoin:miter;"/>
    </g>
    <g id="line2d_35">
     <path d="M 311.3 24.1 
L 331.3 24.1 
" style="fill:none;stroke:#1f77b4;stroke-linecap:square;stroke-width:1.5;"/>
    </g>
    <g id="line2d_36"/>
    <g id="text_18">
     <!-- airplane, $\theta_{75}=26^o$ -->
     <g transform="translate(339.3 27.6)scale(0.1 -0.1)">
      <defs>
       <path d="M 2194 1759 
Q 1497 1759 1228 1600 
Q 959 1441 959 1056 
Q 959 750 1161 570 
Q 1363 391 1709 391 
Q 2188 391 2477 730 
Q 2766 1069 2766 1631 
L 2766 1759 
L 2194 1759 
z
M 3341 1997 
L 3341 0 
L 2766 0 
L 2766 531 
Q 2569 213 2275 61 
Q 1981 -91 1556 -91 
Q 1019 -91 701 211 
Q 384 513 384 1019 
Q 384 1609 779 1909 
Q 1175 2209 1959 2209 
L 2766 2209 
L 2766 2266 
Q 2766 2663 2505 2880 
Q 2244 3097 1772 3097 
Q 1472 3097 1187 3025 
Q 903 2953 641 2809 
L 641 3341 
Q 956 3463 1253 3523 
Q 1550 3584 1831 3584 
Q 2591 3584 2966 3190 
Q 3341 2797 3341 1997 
z
" id="DejaVuSans-61" transform="scale(0.015625)"/>
       <path d="M 603 4863 
L 1178 4863 
L 1178 0 
L 603 0 
L 603 4863 
z
" id="DejaVuSans-6c" transform="scale(0.015625)"/>
       <path d="M 750 794 
L 1409 794 
L 1409 256 
L 897 -744 
L 494 -744 
L 750 256 
L 750 794 
z
" id="DejaVuSans-2c" transform="scale(0.015625)"/>
       <path d="M 2913 2219 
L 925 2219 
Q 791 1284 928 888 
Q 1100 400 1566 400 
Q 2034 400 2391 891 
Q 2703 1322 2913 2219 
z
M 3009 2750 
Q 3094 3638 2984 3950 
Q 2813 4444 2353 4444 
Q 1875 4444 1525 3956 
Q 1250 3563 1034 2750 
L 3009 2750 
z
M 2444 4913 
Q 3194 4913 3494 4250 
Q 3794 3591 3566 2422 
Q 3341 1256 2781 594 
Q 2225 -72 1475 -72 
Q 722 -72 425 594 
Q 128 1256 353 2422 
Q 581 3591 1134 4250 
Q 1691 4913 2444 4913 
z
" id="DejaVuSans-Oblique-3b8" transform="scale(0.015625)"/>
       <path d="M 678 2906 
L 4684 2906 
L 4684 2381 
L 678 2381 
L 678 2906 
z
M 678 1631 
L 4684 1631 
L 4684 1100 
L 678 1100 
L 678 1631 
z
" id="DejaVuSans-3d" transform="scale(0.015625)"/>
       <path d="M 2113 2584 
Q 1688 2584 1439 2293 
Q 1191 2003 1191 1497 
Q 1191 994 1439 701 
Q 1688 409 2113 409 
Q 2538 409 2786 701 
Q 3034 994 3034 1497 
Q 3034 2003 2786 2293 
Q 2538 2584 2113 2584 
z
M 3366 4563 
L 3366 3988 
Q 3128 4100 2886 4159 
Q 2644 4219 2406 4219 
Q 1781 4219 1451 3797 
Q 1122 3375 1075 2522 
Q 1259 2794 1537 2939 
Q 1816 3084 2150 3084 
Q 2853 3084 3261 2657 
Q 3669 2231 3669 1497 
Q 3669 778 3244 343 
Q 2819 -91 2113 -91 
Q 1303 -91 875 529 
Q 447 1150 447 2328 
Q 447 3434 972 4092 
Q 1497 4750 2381 4750 
Q 2619 4750 2861 4703 
Q 3103 4656 3366 4563 
z
" id="DejaVuSans-36" transform="scale(0.015625)"/>
       <path d="M 1625 -91 
Q 1009 -91 651 289 
Q 294 669 294 1325 
Q 294 1706 417 2101 
Q 541 2497 738 2766 
Q 1047 3184 1428 3384 
Q 1809 3584 2291 3584 
Q 2888 3584 3255 3212 
Q 3622 2841 3622 2241 
Q 3622 1825 3500 1412 
Q 3378 1000 3181 728 
Q 2875 309 2494 109 
Q 2113 -91 1625 -91 
z
M 891 1344 
Q 891 869 1089 633 
Q 1288 397 1691 397 
Q 2269 397 2648 901 
Q 3028 1406 3028 2181 
Q 3028 2634 2825 2865 
Q 2622 3097 2228 3097 
Q 1903 3097 1650 2945 
Q 1397 2794 1197 2484 
Q 1050 2253 970 1956 
Q 891 1659 891 1344 
z
" id="DejaVuSans-Oblique-6f" transform="scale(0.015625)"/>
      </defs>
      <use transform="translate(0 0.51875)" xlink:href="#DejaVuSans-61"/>
      <use transform="translate(61.279297 0.51875)" xlink:href="#DejaVuSans-69"/>
      <use transform="translate(89.0625 0.51875)" xlink:href="#DejaVuSans-72"/>
      <use transform="translate(130.175781 0.51875)" xlink:href="#DejaVuSans-70"/>
      <use transform="translate(193.652344 0.51875)" xlink:href="#DejaVuSans-6c"/>
      <use transform="translate(221.435547 0.51875)" xlink:href="#DejaVuSans-61"/>
      <use transform="translate(282.714844 0.51875)" xlink:href="#DejaVuSans-6e"/>
      <use transform="translate(346.09375 0.51875)" xlink:href="#DejaVuSans-65"/>
      <use transform="translate(407.617188 0.51875)" xlink:href="#DejaVuSans-2c"/>
      <use transform="translate(439.404297 0.51875)" xlink:href="#DejaVuSans-20"/>
      <use transform="translate(471.191406 0.51875)" xlink:href="#DejaVuSans-Oblique-3b8"/>
      <use transform="translate(532.373047 -15.8875)scale(0.7)" xlink:href="#DejaVuSans-37"/>
      <use transform="translate(576.90918 -15.8875)scale(0.7)" xlink:href="#DejaVuSans-35"/>
      <use transform="translate(643.662109 0.51875)" xlink:href="#DejaVuSans-3d"/>
      <use transform="translate(746.933594 0.51875)" xlink:href="#DejaVuSans-32"/>
      <use transform="translate(810.556641 0.51875)" xlink:href="#DejaVuSans-36"/>
      <use transform="translate(875.136719 38.8)scale(0.7)" xlink:href="#DejaVuSans-Oblique-6f"/>
     </g>
    </g>
    <g id="line2d_37">
     <path d="M 311.3 39 
L 331.3 39 
" style="fill:none;stroke:#ff7f0e;stroke-linecap:square;stroke-width:1.5;"/>
    </g>
    <g id="line2d_38"/>
    <g id="text_19">
     <!-- airplane, $\theta_{75}=27^o$ -->
     <g transform="translate(339.3 42.5)scale(0.1 -0.1)">
      <use transform="translate(0 0.51875)" xlink:href="#DejaVuSans-61"/>
      <use transform="translate(61.279297 0.51875)" xlink:href="#DejaVuSans-69"/>
      <use transform="translate(89.0625 0.51875)" xlink:href="#DejaVuSans-72"/>
      <use transform="translate(130.175781 0.51875)" xlink:href="#DejaVuSans-70"/>
      <use transform="translate(193.652344 0.51875)" xlink:href="#DejaVuSans-6c"/>
      <use transform="translate(221.435547 0.51875)" xlink:href="#DejaVuSans-61"/>
      <use transform="translate(282.714844 0.51875)" xlink:href="#DejaVuSans-6e"/>
      <use transform="translate(346.09375 0.51875)" xlink:href="#DejaVuSans-65"/>
      <use transform="translate(407.617188 0.51875)" xlink:href="#DejaVuSans-2c"/>
      <use transform="translate(439.404297 0.51875)" xlink:href="#DejaVuSans-20"/>
      <use transform="translate(471.191406 0.51875)" xlink:href="#DejaVuSans-Oblique-3b8"/>
      <use transform="translate(532.373047 -15.8875)scale(0.7)" xlink:href="#DejaVuSans-37"/>
      <use transform="translate(576.90918 -15.8875)scale(0.7)" xlink:href="#DejaVuSans-35"/>
      <use transform="translate(643.662109 0.51875)" xlink:href="#DejaVuSans-3d"/>
      <use transform="translate(746.933594 0.51875)" xlink:href="#DejaVuSans-32"/>
      <use transform="translate(810.556641 0.51875)" xlink:href="#DejaVuSans-37"/>
      <use transform="translate(875.136719 38.8)scale(0.7)" xlink:href="#DejaVuSans-Oblique-6f"/>
     </g>
    </g>
    <g id="line2d_39">
     <path d="M 311.3 53.9 
L 331.3 53.9 
" style="fill:none;stroke:#2ca02c;stroke-linecap:square;stroke-width:1.5;"/>
    </g>
    <g id="line2d_40"/>
    <g id="text_20">
     <!-- airplane, $\theta_{75}=28^o$ -->
     <g transform="translate(339.3 57.4)scale(0.1 -0.1)">
      <defs>
       <path d="M 2034 2216 
Q 1584 2216 1326 1975 
Q 1069 1734 1069 1313 
Q 1069 891 1326 650 
Q 1584 409 2034 409 
Q 2484 409 2743 651 
Q 3003 894 3003 1313 
Q 3003 1734 2745 1975 
Q 2488 2216 2034 2216 
z
M 1403 2484 
Q 997 2584 770 2862 
Q 544 3141 544 3541 
Q 544 4100 942 4425 
Q 1341 4750 2034 4750 
Q 2731 4750 3128 4425 
Q 3525 4100 3525 3541 
Q 3525 3141 3298 2862 
Q 3072 2584 2669 2484 
Q 3125 2378 3379 2068 
Q 3634 1759 3634 1313 
Q 3634 634 3220 271 
Q 2806 -91 2034 -91 
Q 1263 -91 848 271 
Q 434 634 434 1313 
Q 434 1759 690 2068 
Q 947 2378 1403 2484 
z
M 1172 3481 
Q 1172 3119 1398 2916 
Q 1625 2713 2034 2713 
Q 2441 2713 2670 2916 
Q 2900 3119 2900 3481 
Q 2900 3844 2670 4047 
Q 2441 4250 2034 4250 
Q 1625 4250 1398 4047 
Q 1172 3844 1172 3481 
z
" id="DejaVuSans-38" transform="scale(0.015625)"/>
      </defs>
      <use transform="translate(0 0.51875)" xlink:href="#DejaVuSans-61"/>
      <use transform="translate(61.279297 0.51875)" xlink:href="#DejaVuSans-69"/>
      <use transform="translate(89.0625 0.51875)" xlink:href="#DejaVuSans-72"/>
      <use transform="translate(130.175781 0.51875)" xlink:href="#DejaVuSans-70"/>
      <use transform="translate(193.652344 0.51875)" xlink:href="#DejaVuSans-6c"/>
      <use transform="translate(221.435547 0.51875)" xlink:href="#DejaVuSans-61"/>
      <use transform="translate(282.714844 0.51875)" xlink:href="#DejaVuSans-6e"/>
      <use transform="translate(346.09375 0.51875)" xlink:href="#DejaVuSans-65"/>
      <use transform="translate(407.617188 0.51875)" xlink:href="#DejaVuSans-2c"/>
      <use transform="translate(439.404297 0.51875)" xlink:href="#DejaVuSans-20"/>
      <use transform="translate(471.191406 0.51875)" xlink:href="#DejaVuSans-Oblique-3b8"/>
      <use transform="translate(532.373047 -15.8875)scale(0.7)" xlink:href="#DejaVuSans-37"/>
      <use transform="translate(576.90918 -15.8875)scale(0.7)" xlink:href="#DejaVuSans-35"/>
      <use transform="translate(643.662109 0.51875)" xlink:href="#DejaVuSans-3d"/>
      <use transform="translate(746.933594 0.51875)" xlink:href="#DejaVuSans-32"/>
      <use transform="translate(810.556641 0.51875)" xlink:href="#DejaVuSans-38"/>
      <use transform="translate(875.136719 38.8)scale(0.7)" xlink:href="#DejaVuSans-Oblique-6f"/>
     </g>
    </g>
    <g id="line2d_41">
     <path d="M 311.3 68.8 
L 331.3 68.8 
" style="fill:none;stroke:#d62728;stroke-linecap:square;stroke-width:1.5;"/>
    </g>
    <g id="line2d_42"/>
    <g id="text_21">
     <!-- airplane, $\theta_{75}=28.8^o$ -->
     <g transform="translate(339.3 72.3)scale(0.1 -0.1)">
      <use transform="translate(0 0.51875)" xlink:href="#DejaVuSans-61"/>
      <use transform="translate(61.279297 0.51875)" xlink:href="#DejaVuSans-69"/>
      <use transform="translate(89.0625 0.51875)" xlink:href="#DejaVuSans-72"/>
      <use transform="translate(130.175781 0.51875)" xlink:href="#DejaVuSans-70"/>
      <use transform="translate(193.652344 0.51875)" xlink:href="#DejaVuSans-6c"/>
      <use transform="translate(221.435547 0.51875)" xlink:href="#DejaVuSans-61"/>
      <use transform="translate(282.714844 0.51875)" xlink:href="#DejaVuSans-6e"/>
      <use transform="translate(346.09375 0.51875)" xlink:href="#DejaVuSans-65"/>
      <use transform="translate(407.617188 0.51875)" xlink:href="#DejaVuSans-2c"/>
      <use transform="translate(439.404297 0.51875)" xlink:href="#DejaVuSans-20"/>
      <use transform="translate(471.191406 0.51875)" xlink:href="#DejaVuSans-Oblique-3b8"/>
      <use transform="translate(532.373047 -15.8875)scale(0.7)" xlink:href="#DejaVuSans-37"/>
      <use transform="translate(576.90918 -15.8875)scale(0.7)" xlink:href="#DejaVuSans-35"/>
      <use transform="translate(643.662109 0.51875)" xlink:href="#DejaVuSans-3d"/>
      <use transform="translate(746.933594 0.51875)" xlink:href="#DejaVuSans-32"/>
      <use transform="translate(810.556641 0.51875)" xlink:href="#DejaVuSans-38"/>
      <use transform="translate(874.179688 0.51875)" xlink:href="#DejaVuSans-2e"/>
      <use transform="translate(905.966797 0.51875)" xlink:href="#DejaVuSans-38"/>
      <use transform="translate(970.546875 38.8)scale(0.7)" xlink:href="#DejaVuSans-Oblique-6f"/>
     </g>
    </g>
   </g>
  </g>
 </g>
 <defs>
  <clipPath id="p99cd3e591a">
   <rect height="289.24" width="373.03" x="76.97" y="10.8"/>
  </clipPath>
 </defs>
</svg>
